%TF.GenerationSoftware,KiCad,Pcbnew,(5.1.10-1-10_14)*%
%TF.CreationDate,2023-04-11T22:44:58+12:00*%
%TF.ProjectId,BMSladder,424d536c-6164-4646-9572-2e6b69636164,rev?*%
%TF.SameCoordinates,Original*%
%TF.FileFunction,Copper,L1,Top*%
%TF.FilePolarity,Positive*%
%FSLAX46Y46*%
G04 Gerber Fmt 4.6, Leading zero omitted, Abs format (unit mm)*
G04 Created by KiCad (PCBNEW (5.1.10-1-10_14)) date 2023-04-11 22:44:58*
%MOMM*%
%LPD*%
G01*
G04 APERTURE LIST*
%TA.AperFunction,ComponentPad*%
%ADD10O,1.200000X1.750000*%
%TD*%
%TA.AperFunction,ComponentPad*%
%ADD11O,1.000000X1.000000*%
%TD*%
%TA.AperFunction,ComponentPad*%
%ADD12R,1.000000X1.000000*%
%TD*%
%TA.AperFunction,ComponentPad*%
%ADD13O,2.400000X2.400000*%
%TD*%
%TA.AperFunction,ComponentPad*%
%ADD14C,2.400000*%
%TD*%
%TA.AperFunction,ComponentPad*%
%ADD15O,2.500000X5.000000*%
%TD*%
%TA.AperFunction,SMDPad,CuDef*%
%ADD16R,0.800000X0.900000*%
%TD*%
%TA.AperFunction,SMDPad,CuDef*%
%ADD17R,0.900000X0.800000*%
%TD*%
%TA.AperFunction,SMDPad,CuDef*%
%ADD18R,0.400000X0.650000*%
%TD*%
%TA.AperFunction,SMDPad,CuDef*%
%ADD19R,0.450000X0.700000*%
%TD*%
%TA.AperFunction,ViaPad*%
%ADD20C,0.800000*%
%TD*%
%TA.AperFunction,Conductor*%
%ADD21C,0.300000*%
%TD*%
%TA.AperFunction,Conductor*%
%ADD22C,0.250000*%
%TD*%
%TA.AperFunction,Conductor*%
%ADD23C,0.800000*%
%TD*%
G04 APERTURE END LIST*
D10*
%TO.P,J4,2*%
%TO.N,Net-(J2-Pad2)*%
X27700000Y-28800000D03*
%TO.P,J4,1*%
%TO.N,Net-(J2-Pad1)*%
%TA.AperFunction,ComponentPad*%
G36*
G01*
X25100000Y-29425001D02*
X25100000Y-28174999D01*
G75*
G02*
X25349999Y-27925000I249999J0D01*
G01*
X26050001Y-27925000D01*
G75*
G02*
X26300000Y-28174999I0J-249999D01*
G01*
X26300000Y-29425001D01*
G75*
G02*
X26050001Y-29675000I-249999J0D01*
G01*
X25349999Y-29675000D01*
G75*
G02*
X25100000Y-29425001I0J249999D01*
G01*
G37*
%TD.AperFunction*%
%TD*%
%TO.P,J3,2*%
%TO.N,Net-(J1-Pad2)*%
X61600000Y-22700000D03*
%TO.P,J3,1*%
%TO.N,Net-(J1-Pad1)*%
%TA.AperFunction,ComponentPad*%
G36*
G01*
X64200000Y-22074999D02*
X64200000Y-23325001D01*
G75*
G02*
X63950001Y-23575000I-249999J0D01*
G01*
X63249999Y-23575000D01*
G75*
G02*
X63000000Y-23325001I0J249999D01*
G01*
X63000000Y-22074999D01*
G75*
G02*
X63249999Y-21825000I249999J0D01*
G01*
X63950001Y-21825000D01*
G75*
G02*
X64200000Y-22074999I0J-249999D01*
G01*
G37*
%TD.AperFunction*%
%TD*%
%TO.P,J2,MP*%
%TO.N,N/C*%
%TA.AperFunction,SMDPad,CuDef*%
G36*
G01*
X28300000Y-31225001D02*
X28300000Y-29924999D01*
G75*
G02*
X28549999Y-29675000I249999J0D01*
G01*
X29250001Y-29675000D01*
G75*
G02*
X29500000Y-29924999I0J-249999D01*
G01*
X29500000Y-31225001D01*
G75*
G02*
X29250001Y-31475000I-249999J0D01*
G01*
X28549999Y-31475000D01*
G75*
G02*
X28300000Y-31225001I0J249999D01*
G01*
G37*
%TD.AperFunction*%
%TA.AperFunction,SMDPad,CuDef*%
G36*
G01*
X23700000Y-31225001D02*
X23700000Y-29924999D01*
G75*
G02*
X23949999Y-29675000I249999J0D01*
G01*
X24650001Y-29675000D01*
G75*
G02*
X24900000Y-29924999I0J-249999D01*
G01*
X24900000Y-31225001D01*
G75*
G02*
X24650001Y-31475000I-249999J0D01*
G01*
X23949999Y-31475000D01*
G75*
G02*
X23700000Y-31225001I0J249999D01*
G01*
G37*
%TD.AperFunction*%
%TO.P,J2,3*%
%TO.N,Net-(J2-Pad3)*%
%TA.AperFunction,SMDPad,CuDef*%
G36*
G01*
X27300000Y-27325000D02*
X27300000Y-26075000D01*
G75*
G02*
X27450000Y-25925000I150000J0D01*
G01*
X27750000Y-25925000D01*
G75*
G02*
X27900000Y-26075000I0J-150000D01*
G01*
X27900000Y-27325000D01*
G75*
G02*
X27750000Y-27475000I-150000J0D01*
G01*
X27450000Y-27475000D01*
G75*
G02*
X27300000Y-27325000I0J150000D01*
G01*
G37*
%TD.AperFunction*%
%TO.P,J2,2*%
%TO.N,Net-(J2-Pad2)*%
%TA.AperFunction,SMDPad,CuDef*%
G36*
G01*
X26300000Y-27325000D02*
X26300000Y-26075000D01*
G75*
G02*
X26450000Y-25925000I150000J0D01*
G01*
X26750000Y-25925000D01*
G75*
G02*
X26900000Y-26075000I0J-150000D01*
G01*
X26900000Y-27325000D01*
G75*
G02*
X26750000Y-27475000I-150000J0D01*
G01*
X26450000Y-27475000D01*
G75*
G02*
X26300000Y-27325000I0J150000D01*
G01*
G37*
%TD.AperFunction*%
%TO.P,J2,1*%
%TO.N,Net-(J2-Pad1)*%
%TA.AperFunction,SMDPad,CuDef*%
G36*
G01*
X25300000Y-27325000D02*
X25300000Y-26075000D01*
G75*
G02*
X25450000Y-25925000I150000J0D01*
G01*
X25750000Y-25925000D01*
G75*
G02*
X25900000Y-26075000I0J-150000D01*
G01*
X25900000Y-27325000D01*
G75*
G02*
X25750000Y-27475000I-150000J0D01*
G01*
X25450000Y-27475000D01*
G75*
G02*
X25300000Y-27325000I0J150000D01*
G01*
G37*
%TD.AperFunction*%
%TD*%
%TO.P,J1,MP*%
%TO.N,N/C*%
%TA.AperFunction,SMDPad,CuDef*%
G36*
G01*
X61000000Y-20274999D02*
X61000000Y-21575001D01*
G75*
G02*
X60750001Y-21825000I-249999J0D01*
G01*
X60049999Y-21825000D01*
G75*
G02*
X59800000Y-21575001I0J249999D01*
G01*
X59800000Y-20274999D01*
G75*
G02*
X60049999Y-20025000I249999J0D01*
G01*
X60750001Y-20025000D01*
G75*
G02*
X61000000Y-20274999I0J-249999D01*
G01*
G37*
%TD.AperFunction*%
%TA.AperFunction,SMDPad,CuDef*%
G36*
G01*
X65600000Y-20274999D02*
X65600000Y-21575001D01*
G75*
G02*
X65350001Y-21825000I-249999J0D01*
G01*
X64649999Y-21825000D01*
G75*
G02*
X64400000Y-21575001I0J249999D01*
G01*
X64400000Y-20274999D01*
G75*
G02*
X64649999Y-20025000I249999J0D01*
G01*
X65350001Y-20025000D01*
G75*
G02*
X65600000Y-20274999I0J-249999D01*
G01*
G37*
%TD.AperFunction*%
%TO.P,J1,3*%
%TA.AperFunction,SMDPad,CuDef*%
G36*
G01*
X62000000Y-24175000D02*
X62000000Y-25425000D01*
G75*
G02*
X61850000Y-25575000I-150000J0D01*
G01*
X61550000Y-25575000D01*
G75*
G02*
X61400000Y-25425000I0J150000D01*
G01*
X61400000Y-24175000D01*
G75*
G02*
X61550000Y-24025000I150000J0D01*
G01*
X61850000Y-24025000D01*
G75*
G02*
X62000000Y-24175000I0J-150000D01*
G01*
G37*
%TD.AperFunction*%
%TO.P,J1,2*%
%TO.N,Net-(J1-Pad2)*%
%TA.AperFunction,SMDPad,CuDef*%
G36*
G01*
X63000000Y-24175000D02*
X63000000Y-25425000D01*
G75*
G02*
X62850000Y-25575000I-150000J0D01*
G01*
X62550000Y-25575000D01*
G75*
G02*
X62400000Y-25425000I0J150000D01*
G01*
X62400000Y-24175000D01*
G75*
G02*
X62550000Y-24025000I150000J0D01*
G01*
X62850000Y-24025000D01*
G75*
G02*
X63000000Y-24175000I0J-150000D01*
G01*
G37*
%TD.AperFunction*%
%TO.P,J1,1*%
%TO.N,Net-(J1-Pad1)*%
%TA.AperFunction,SMDPad,CuDef*%
G36*
G01*
X64000000Y-24175000D02*
X64000000Y-25425000D01*
G75*
G02*
X63850000Y-25575000I-150000J0D01*
G01*
X63550000Y-25575000D01*
G75*
G02*
X63400000Y-25425000I0J150000D01*
G01*
X63400000Y-24175000D01*
G75*
G02*
X63550000Y-24025000I150000J0D01*
G01*
X63850000Y-24025000D01*
G75*
G02*
X64000000Y-24175000I0J-150000D01*
G01*
G37*
%TD.AperFunction*%
%TD*%
%TO.P,D1,2*%
%TO.N,Net-(D1-Pad2)*%
%TA.AperFunction,SMDPad,CuDef*%
G36*
G01*
X58156250Y-20950000D02*
X57643750Y-20950000D01*
G75*
G02*
X57425000Y-20731250I0J218750D01*
G01*
X57425000Y-20293750D01*
G75*
G02*
X57643750Y-20075000I218750J0D01*
G01*
X58156250Y-20075000D01*
G75*
G02*
X58375000Y-20293750I0J-218750D01*
G01*
X58375000Y-20731250D01*
G75*
G02*
X58156250Y-20950000I-218750J0D01*
G01*
G37*
%TD.AperFunction*%
%TO.P,D1,1*%
%TO.N,Net-(D1-Pad1)*%
%TA.AperFunction,SMDPad,CuDef*%
G36*
G01*
X58156250Y-22525000D02*
X57643750Y-22525000D01*
G75*
G02*
X57425000Y-22306250I0J218750D01*
G01*
X57425000Y-21868750D01*
G75*
G02*
X57643750Y-21650000I218750J0D01*
G01*
X58156250Y-21650000D01*
G75*
G02*
X58375000Y-21868750I0J-218750D01*
G01*
X58375000Y-22306250D01*
G75*
G02*
X58156250Y-22525000I-218750J0D01*
G01*
G37*
%TD.AperFunction*%
%TD*%
%TO.P,R3,2*%
%TO.N,/RX*%
%TA.AperFunction,SMDPad,CuDef*%
G36*
G01*
X49550000Y-30943750D02*
X49550000Y-31456250D01*
G75*
G02*
X49331250Y-31675000I-218750J0D01*
G01*
X48893750Y-31675000D01*
G75*
G02*
X48675000Y-31456250I0J218750D01*
G01*
X48675000Y-30943750D01*
G75*
G02*
X48893750Y-30725000I218750J0D01*
G01*
X49331250Y-30725000D01*
G75*
G02*
X49550000Y-30943750I0J-218750D01*
G01*
G37*
%TD.AperFunction*%
%TO.P,R3,1*%
%TO.N,Net-(D1-Pad2)*%
%TA.AperFunction,SMDPad,CuDef*%
G36*
G01*
X51125000Y-30943750D02*
X51125000Y-31456250D01*
G75*
G02*
X50906250Y-31675000I-218750J0D01*
G01*
X50468750Y-31675000D01*
G75*
G02*
X50250000Y-31456250I0J218750D01*
G01*
X50250000Y-30943750D01*
G75*
G02*
X50468750Y-30725000I218750J0D01*
G01*
X50906250Y-30725000D01*
G75*
G02*
X51125000Y-30943750I0J-218750D01*
G01*
G37*
%TD.AperFunction*%
%TD*%
%TO.P,U2,8*%
%TO.N,GND*%
%TA.AperFunction,SMDPad,CuDef*%
G36*
G01*
X42200000Y-26195000D02*
X42200000Y-25895000D01*
G75*
G02*
X42350000Y-25745000I150000J0D01*
G01*
X44000000Y-25745000D01*
G75*
G02*
X44150000Y-25895000I0J-150000D01*
G01*
X44150000Y-26195000D01*
G75*
G02*
X44000000Y-26345000I-150000J0D01*
G01*
X42350000Y-26345000D01*
G75*
G02*
X42200000Y-26195000I0J150000D01*
G01*
G37*
%TD.AperFunction*%
%TO.P,U2,7*%
%TO.N,/BAL*%
%TA.AperFunction,SMDPad,CuDef*%
G36*
G01*
X42200000Y-27465000D02*
X42200000Y-27165000D01*
G75*
G02*
X42350000Y-27015000I150000J0D01*
G01*
X44000000Y-27015000D01*
G75*
G02*
X44150000Y-27165000I0J-150000D01*
G01*
X44150000Y-27465000D01*
G75*
G02*
X44000000Y-27615000I-150000J0D01*
G01*
X42350000Y-27615000D01*
G75*
G02*
X42200000Y-27465000I0J150000D01*
G01*
G37*
%TD.AperFunction*%
%TO.P,U2,6*%
%TO.N,/FAULT_UPDI*%
%TA.AperFunction,SMDPad,CuDef*%
G36*
G01*
X42200000Y-28735000D02*
X42200000Y-28435000D01*
G75*
G02*
X42350000Y-28285000I150000J0D01*
G01*
X44000000Y-28285000D01*
G75*
G02*
X44150000Y-28435000I0J-150000D01*
G01*
X44150000Y-28735000D01*
G75*
G02*
X44000000Y-28885000I-150000J0D01*
G01*
X42350000Y-28885000D01*
G75*
G02*
X42200000Y-28735000I0J150000D01*
G01*
G37*
%TD.AperFunction*%
%TO.P,U2,5*%
%TO.N,/~EN*%
%TA.AperFunction,SMDPad,CuDef*%
G36*
G01*
X42200000Y-30005000D02*
X42200000Y-29705000D01*
G75*
G02*
X42350000Y-29555000I150000J0D01*
G01*
X44000000Y-29555000D01*
G75*
G02*
X44150000Y-29705000I0J-150000D01*
G01*
X44150000Y-30005000D01*
G75*
G02*
X44000000Y-30155000I-150000J0D01*
G01*
X42350000Y-30155000D01*
G75*
G02*
X42200000Y-30005000I0J150000D01*
G01*
G37*
%TD.AperFunction*%
%TO.P,U2,4*%
%TO.N,/2V5*%
%TA.AperFunction,SMDPad,CuDef*%
G36*
G01*
X37250000Y-30005000D02*
X37250000Y-29705000D01*
G75*
G02*
X37400000Y-29555000I150000J0D01*
G01*
X39050000Y-29555000D01*
G75*
G02*
X39200000Y-29705000I0J-150000D01*
G01*
X39200000Y-30005000D01*
G75*
G02*
X39050000Y-30155000I-150000J0D01*
G01*
X37400000Y-30155000D01*
G75*
G02*
X37250000Y-30005000I0J150000D01*
G01*
G37*
%TD.AperFunction*%
%TO.P,U2,3*%
%TO.N,/RX*%
%TA.AperFunction,SMDPad,CuDef*%
G36*
G01*
X37250000Y-28735000D02*
X37250000Y-28435000D01*
G75*
G02*
X37400000Y-28285000I150000J0D01*
G01*
X39050000Y-28285000D01*
G75*
G02*
X39200000Y-28435000I0J-150000D01*
G01*
X39200000Y-28735000D01*
G75*
G02*
X39050000Y-28885000I-150000J0D01*
G01*
X37400000Y-28885000D01*
G75*
G02*
X37250000Y-28735000I0J150000D01*
G01*
G37*
%TD.AperFunction*%
%TO.P,U2,2*%
%TO.N,/TX*%
%TA.AperFunction,SMDPad,CuDef*%
G36*
G01*
X37250000Y-27465000D02*
X37250000Y-27165000D01*
G75*
G02*
X37400000Y-27015000I150000J0D01*
G01*
X39050000Y-27015000D01*
G75*
G02*
X39200000Y-27165000I0J-150000D01*
G01*
X39200000Y-27465000D01*
G75*
G02*
X39050000Y-27615000I-150000J0D01*
G01*
X37400000Y-27615000D01*
G75*
G02*
X37250000Y-27465000I0J150000D01*
G01*
G37*
%TD.AperFunction*%
%TO.P,U2,1*%
%TO.N,/VCC*%
%TA.AperFunction,SMDPad,CuDef*%
G36*
G01*
X37250000Y-26195000D02*
X37250000Y-25895000D01*
G75*
G02*
X37400000Y-25745000I150000J0D01*
G01*
X39050000Y-25745000D01*
G75*
G02*
X39200000Y-25895000I0J-150000D01*
G01*
X39200000Y-26195000D01*
G75*
G02*
X39050000Y-26345000I-150000J0D01*
G01*
X37400000Y-26345000D01*
G75*
G02*
X37250000Y-26195000I0J150000D01*
G01*
G37*
%TD.AperFunction*%
%TD*%
D11*
%TO.P,J5,6*%
%TO.N,GND*%
X33740000Y-29530000D03*
%TO.P,J5,5*%
%TO.N,N/C*%
X33740000Y-30800000D03*
%TO.P,J5,4*%
%TO.N,/TX*%
X32470000Y-29530000D03*
%TO.P,J5,3*%
%TO.N,/RX*%
X32470000Y-30800000D03*
%TO.P,J5,2*%
%TO.N,/VCC*%
X31200000Y-29530000D03*
D12*
%TO.P,J5,1*%
%TO.N,/FAULT_UPDI*%
X31200000Y-30800000D03*
%TD*%
D13*
%TO.P,R7,2*%
%TO.N,Net-(Q2-Pad3)*%
X33500000Y-21500000D03*
D14*
%TO.P,R7,1*%
%TO.N,Net-(D1-Pad2)*%
X55500000Y-21500000D03*
%TD*%
D15*
%TO.P,H2,1*%
%TO.N,GND*%
X22000000Y-26000000D03*
%TD*%
%TO.P,H1,1*%
%TO.N,Net-(D1-Pad2)*%
X67000000Y-26000000D03*
%TD*%
D16*
%TO.P,U1,3*%
%TO.N,/FAULT_UPDI*%
X46400000Y-28700000D03*
%TO.P,U1,2*%
%TO.N,/2V5*%
X47350000Y-30700000D03*
%TO.P,U1,1*%
X45450000Y-30700000D03*
%TD*%
%TO.P,R13,2*%
%TO.N,Net-(J2-Pad3)*%
%TA.AperFunction,SMDPad,CuDef*%
G36*
G01*
X26150000Y-21056250D02*
X26150000Y-20543750D01*
G75*
G02*
X26368750Y-20325000I218750J0D01*
G01*
X26806250Y-20325000D01*
G75*
G02*
X27025000Y-20543750I0J-218750D01*
G01*
X27025000Y-21056250D01*
G75*
G02*
X26806250Y-21275000I-218750J0D01*
G01*
X26368750Y-21275000D01*
G75*
G02*
X26150000Y-21056250I0J218750D01*
G01*
G37*
%TD.AperFunction*%
%TO.P,R13,1*%
%TO.N,GND*%
%TA.AperFunction,SMDPad,CuDef*%
G36*
G01*
X24575000Y-21056250D02*
X24575000Y-20543750D01*
G75*
G02*
X24793750Y-20325000I218750J0D01*
G01*
X25231250Y-20325000D01*
G75*
G02*
X25450000Y-20543750I0J-218750D01*
G01*
X25450000Y-21056250D01*
G75*
G02*
X25231250Y-21275000I-218750J0D01*
G01*
X24793750Y-21275000D01*
G75*
G02*
X24575000Y-21056250I0J218750D01*
G01*
G37*
%TD.AperFunction*%
%TD*%
%TO.P,R12,2*%
%TO.N,GND*%
%TA.AperFunction,SMDPad,CuDef*%
G36*
G01*
X22356250Y-21250000D02*
X21843750Y-21250000D01*
G75*
G02*
X21625000Y-21031250I0J218750D01*
G01*
X21625000Y-20593750D01*
G75*
G02*
X21843750Y-20375000I218750J0D01*
G01*
X22356250Y-20375000D01*
G75*
G02*
X22575000Y-20593750I0J-218750D01*
G01*
X22575000Y-21031250D01*
G75*
G02*
X22356250Y-21250000I-218750J0D01*
G01*
G37*
%TD.AperFunction*%
%TO.P,R12,1*%
%TO.N,Net-(J2-Pad1)*%
%TA.AperFunction,SMDPad,CuDef*%
G36*
G01*
X22356250Y-22825000D02*
X21843750Y-22825000D01*
G75*
G02*
X21625000Y-22606250I0J218750D01*
G01*
X21625000Y-22168750D01*
G75*
G02*
X21843750Y-21950000I218750J0D01*
G01*
X22356250Y-21950000D01*
G75*
G02*
X22575000Y-22168750I0J-218750D01*
G01*
X22575000Y-22606250D01*
G75*
G02*
X22356250Y-22825000I-218750J0D01*
G01*
G37*
%TD.AperFunction*%
%TD*%
%TO.P,R11,2*%
%TO.N,GND*%
%TA.AperFunction,SMDPad,CuDef*%
G36*
G01*
X29950000Y-20543750D02*
X29950000Y-21056250D01*
G75*
G02*
X29731250Y-21275000I-218750J0D01*
G01*
X29293750Y-21275000D01*
G75*
G02*
X29075000Y-21056250I0J218750D01*
G01*
X29075000Y-20543750D01*
G75*
G02*
X29293750Y-20325000I218750J0D01*
G01*
X29731250Y-20325000D01*
G75*
G02*
X29950000Y-20543750I0J-218750D01*
G01*
G37*
%TD.AperFunction*%
%TO.P,R11,1*%
%TO.N,Net-(Q2-Pad1)*%
%TA.AperFunction,SMDPad,CuDef*%
G36*
G01*
X31525000Y-20543750D02*
X31525000Y-21056250D01*
G75*
G02*
X31306250Y-21275000I-218750J0D01*
G01*
X30868750Y-21275000D01*
G75*
G02*
X30650000Y-21056250I0J218750D01*
G01*
X30650000Y-20543750D01*
G75*
G02*
X30868750Y-20325000I218750J0D01*
G01*
X31306250Y-20325000D01*
G75*
G02*
X31525000Y-20543750I0J-218750D01*
G01*
G37*
%TD.AperFunction*%
%TD*%
%TO.P,R10,2*%
%TO.N,Net-(Q2-Pad1)*%
%TA.AperFunction,SMDPad,CuDef*%
G36*
G01*
X31650000Y-25743750D02*
X31650000Y-26256250D01*
G75*
G02*
X31431250Y-26475000I-218750J0D01*
G01*
X30993750Y-26475000D01*
G75*
G02*
X30775000Y-26256250I0J218750D01*
G01*
X30775000Y-25743750D01*
G75*
G02*
X30993750Y-25525000I218750J0D01*
G01*
X31431250Y-25525000D01*
G75*
G02*
X31650000Y-25743750I0J-218750D01*
G01*
G37*
%TD.AperFunction*%
%TO.P,R10,1*%
%TO.N,/BAL*%
%TA.AperFunction,SMDPad,CuDef*%
G36*
G01*
X33225000Y-25743750D02*
X33225000Y-26256250D01*
G75*
G02*
X33006250Y-26475000I-218750J0D01*
G01*
X32568750Y-26475000D01*
G75*
G02*
X32350000Y-26256250I0J218750D01*
G01*
X32350000Y-25743750D01*
G75*
G02*
X32568750Y-25525000I218750J0D01*
G01*
X33006250Y-25525000D01*
G75*
G02*
X33225000Y-25743750I0J-218750D01*
G01*
G37*
%TD.AperFunction*%
%TD*%
%TO.P,R9,2*%
%TO.N,/~EN*%
%TA.AperFunction,SMDPad,CuDef*%
G36*
G01*
X49550000Y-27043750D02*
X49550000Y-27556250D01*
G75*
G02*
X49331250Y-27775000I-218750J0D01*
G01*
X48893750Y-27775000D01*
G75*
G02*
X48675000Y-27556250I0J218750D01*
G01*
X48675000Y-27043750D01*
G75*
G02*
X48893750Y-26825000I218750J0D01*
G01*
X49331250Y-26825000D01*
G75*
G02*
X49550000Y-27043750I0J-218750D01*
G01*
G37*
%TD.AperFunction*%
%TO.P,R9,1*%
%TO.N,Net-(D2-Pad3)*%
%TA.AperFunction,SMDPad,CuDef*%
G36*
G01*
X51125000Y-27043750D02*
X51125000Y-27556250D01*
G75*
G02*
X50906250Y-27775000I-218750J0D01*
G01*
X50468750Y-27775000D01*
G75*
G02*
X50250000Y-27556250I0J218750D01*
G01*
X50250000Y-27043750D01*
G75*
G02*
X50468750Y-26825000I218750J0D01*
G01*
X50906250Y-26825000D01*
G75*
G02*
X51125000Y-27043750I0J-218750D01*
G01*
G37*
%TD.AperFunction*%
%TD*%
%TO.P,R8,2*%
%TO.N,Net-(Q1-Pad2)*%
%TA.AperFunction,SMDPad,CuDef*%
G36*
G01*
X54693750Y-27700000D02*
X55206250Y-27700000D01*
G75*
G02*
X55425000Y-27918750I0J-218750D01*
G01*
X55425000Y-28356250D01*
G75*
G02*
X55206250Y-28575000I-218750J0D01*
G01*
X54693750Y-28575000D01*
G75*
G02*
X54475000Y-28356250I0J218750D01*
G01*
X54475000Y-27918750D01*
G75*
G02*
X54693750Y-27700000I218750J0D01*
G01*
G37*
%TD.AperFunction*%
%TO.P,R8,1*%
%TO.N,Net-(D2-Pad3)*%
%TA.AperFunction,SMDPad,CuDef*%
G36*
G01*
X54693750Y-26125000D02*
X55206250Y-26125000D01*
G75*
G02*
X55425000Y-26343750I0J-218750D01*
G01*
X55425000Y-26781250D01*
G75*
G02*
X55206250Y-27000000I-218750J0D01*
G01*
X54693750Y-27000000D01*
G75*
G02*
X54475000Y-26781250I0J218750D01*
G01*
X54475000Y-26343750D01*
G75*
G02*
X54693750Y-26125000I218750J0D01*
G01*
G37*
%TD.AperFunction*%
%TD*%
%TO.P,R6,2*%
%TO.N,Net-(J1-Pad1)*%
%TA.AperFunction,SMDPad,CuDef*%
G36*
G01*
X61050000Y-27356250D02*
X61050000Y-26843750D01*
G75*
G02*
X61268750Y-26625000I218750J0D01*
G01*
X61706250Y-26625000D01*
G75*
G02*
X61925000Y-26843750I0J-218750D01*
G01*
X61925000Y-27356250D01*
G75*
G02*
X61706250Y-27575000I-218750J0D01*
G01*
X61268750Y-27575000D01*
G75*
G02*
X61050000Y-27356250I0J218750D01*
G01*
G37*
%TD.AperFunction*%
%TO.P,R6,1*%
%TO.N,/TX*%
%TA.AperFunction,SMDPad,CuDef*%
G36*
G01*
X59475000Y-27356250D02*
X59475000Y-26843750D01*
G75*
G02*
X59693750Y-26625000I218750J0D01*
G01*
X60131250Y-26625000D01*
G75*
G02*
X60350000Y-26843750I0J-218750D01*
G01*
X60350000Y-27356250D01*
G75*
G02*
X60131250Y-27575000I-218750J0D01*
G01*
X59693750Y-27575000D01*
G75*
G02*
X59475000Y-27356250I0J218750D01*
G01*
G37*
%TD.AperFunction*%
%TD*%
%TO.P,R5,2*%
%TO.N,Net-(D1-Pad1)*%
%TA.AperFunction,SMDPad,CuDef*%
G36*
G01*
X57862500Y-24156250D02*
X57862500Y-23643750D01*
G75*
G02*
X58081250Y-23425000I218750J0D01*
G01*
X58518750Y-23425000D01*
G75*
G02*
X58737500Y-23643750I0J-218750D01*
G01*
X58737500Y-24156250D01*
G75*
G02*
X58518750Y-24375000I-218750J0D01*
G01*
X58081250Y-24375000D01*
G75*
G02*
X57862500Y-24156250I0J218750D01*
G01*
G37*
%TD.AperFunction*%
%TO.P,R5,1*%
%TO.N,/TX*%
%TA.AperFunction,SMDPad,CuDef*%
G36*
G01*
X56287500Y-24156250D02*
X56287500Y-23643750D01*
G75*
G02*
X56506250Y-23425000I218750J0D01*
G01*
X56943750Y-23425000D01*
G75*
G02*
X57162500Y-23643750I0J-218750D01*
G01*
X57162500Y-24156250D01*
G75*
G02*
X56943750Y-24375000I-218750J0D01*
G01*
X56506250Y-24375000D01*
G75*
G02*
X56287500Y-24156250I0J218750D01*
G01*
G37*
%TD.AperFunction*%
%TD*%
%TO.P,R4,2*%
%TO.N,Net-(D1-Pad2)*%
%TA.AperFunction,SMDPad,CuDef*%
G36*
G01*
X50250000Y-29956250D02*
X50250000Y-29443750D01*
G75*
G02*
X50468750Y-29225000I218750J0D01*
G01*
X50906250Y-29225000D01*
G75*
G02*
X51125000Y-29443750I0J-218750D01*
G01*
X51125000Y-29956250D01*
G75*
G02*
X50906250Y-30175000I-218750J0D01*
G01*
X50468750Y-30175000D01*
G75*
G02*
X50250000Y-29956250I0J218750D01*
G01*
G37*
%TD.AperFunction*%
%TO.P,R4,1*%
%TO.N,/2V5*%
%TA.AperFunction,SMDPad,CuDef*%
G36*
G01*
X48675000Y-29956250D02*
X48675000Y-29443750D01*
G75*
G02*
X48893750Y-29225000I218750J0D01*
G01*
X49331250Y-29225000D01*
G75*
G02*
X49550000Y-29443750I0J-218750D01*
G01*
X49550000Y-29956250D01*
G75*
G02*
X49331250Y-30175000I-218750J0D01*
G01*
X48893750Y-30175000D01*
G75*
G02*
X48675000Y-29956250I0J218750D01*
G01*
G37*
%TD.AperFunction*%
%TD*%
%TO.P,R2,2*%
%TO.N,/VCC*%
%TA.AperFunction,SMDPad,CuDef*%
G36*
G01*
X46050000Y-25743750D02*
X46050000Y-26256250D01*
G75*
G02*
X45831250Y-26475000I-218750J0D01*
G01*
X45393750Y-26475000D01*
G75*
G02*
X45175000Y-26256250I0J218750D01*
G01*
X45175000Y-25743750D01*
G75*
G02*
X45393750Y-25525000I218750J0D01*
G01*
X45831250Y-25525000D01*
G75*
G02*
X46050000Y-25743750I0J-218750D01*
G01*
G37*
%TD.AperFunction*%
%TO.P,R2,1*%
%TO.N,Net-(D1-Pad2)*%
%TA.AperFunction,SMDPad,CuDef*%
G36*
G01*
X47625000Y-25743750D02*
X47625000Y-26256250D01*
G75*
G02*
X47406250Y-26475000I-218750J0D01*
G01*
X46968750Y-26475000D01*
G75*
G02*
X46750000Y-26256250I0J218750D01*
G01*
X46750000Y-25743750D01*
G75*
G02*
X46968750Y-25525000I218750J0D01*
G01*
X47406250Y-25525000D01*
G75*
G02*
X47625000Y-25743750I0J-218750D01*
G01*
G37*
%TD.AperFunction*%
%TD*%
%TO.P,R1,2*%
%TO.N,Net-(D1-Pad2)*%
%TA.AperFunction,SMDPad,CuDef*%
G36*
G01*
X56050000Y-30943750D02*
X56050000Y-31456250D01*
G75*
G02*
X55831250Y-31675000I-218750J0D01*
G01*
X55393750Y-31675000D01*
G75*
G02*
X55175000Y-31456250I0J218750D01*
G01*
X55175000Y-30943750D01*
G75*
G02*
X55393750Y-30725000I218750J0D01*
G01*
X55831250Y-30725000D01*
G75*
G02*
X56050000Y-30943750I0J-218750D01*
G01*
G37*
%TD.AperFunction*%
%TO.P,R1,1*%
%TO.N,Net-(J2-Pad2)*%
%TA.AperFunction,SMDPad,CuDef*%
G36*
G01*
X57625000Y-30943750D02*
X57625000Y-31456250D01*
G75*
G02*
X57406250Y-31675000I-218750J0D01*
G01*
X56968750Y-31675000D01*
G75*
G02*
X56750000Y-31456250I0J218750D01*
G01*
X56750000Y-30943750D01*
G75*
G02*
X56968750Y-30725000I218750J0D01*
G01*
X57406250Y-30725000D01*
G75*
G02*
X57625000Y-30943750I0J-218750D01*
G01*
G37*
%TD.AperFunction*%
%TD*%
D17*
%TO.P,Q3,3*%
%TO.N,/RX*%
X26900000Y-23500000D03*
%TO.P,Q3,2*%
%TO.N,Net-(J2-Pad1)*%
X24900000Y-24450000D03*
%TO.P,Q3,1*%
%TO.N,GND*%
X24900000Y-22550000D03*
%TD*%
%TO.P,Q2,3*%
%TO.N,Net-(Q2-Pad3)*%
X31300000Y-23500000D03*
%TO.P,Q2,2*%
%TO.N,GND*%
X29300000Y-24450000D03*
%TO.P,Q2,1*%
%TO.N,Net-(Q2-Pad1)*%
X29300000Y-22550000D03*
%TD*%
D18*
%TO.P,Q1,6*%
%TO.N,Net-(J1-Pad2)*%
X58100000Y-28400000D03*
%TO.P,Q1,4*%
%TO.N,Net-(D1-Pad2)*%
X56800000Y-28400000D03*
%TO.P,Q1,2*%
%TO.N,Net-(Q1-Pad2)*%
X57450000Y-26500000D03*
%TO.P,Q1,5*%
%TO.N,Net-(J2-Pad2)*%
X57450000Y-28400000D03*
%TO.P,Q1,3*%
%TO.N,Net-(Q1-Pad2)*%
X56800000Y-26500000D03*
%TO.P,Q1,1*%
%TO.N,Net-(D2-Pad3)*%
X58100000Y-26500000D03*
%TD*%
D19*
%TO.P,D2,3*%
%TO.N,Net-(D2-Pad3)*%
X52800000Y-26600000D03*
%TO.P,D2,2*%
%TO.N,Net-(D1-Pad2)*%
X53450000Y-28600000D03*
%TO.P,D2,1*%
%TO.N,GND*%
X52150000Y-28600000D03*
%TD*%
%TO.P,C1,2*%
%TO.N,GND*%
%TA.AperFunction,SMDPad,CuDef*%
G36*
G01*
X34950000Y-25743750D02*
X34950000Y-26256250D01*
G75*
G02*
X34731250Y-26475000I-218750J0D01*
G01*
X34293750Y-26475000D01*
G75*
G02*
X34075000Y-26256250I0J218750D01*
G01*
X34075000Y-25743750D01*
G75*
G02*
X34293750Y-25525000I218750J0D01*
G01*
X34731250Y-25525000D01*
G75*
G02*
X34950000Y-25743750I0J-218750D01*
G01*
G37*
%TD.AperFunction*%
%TO.P,C1,1*%
%TO.N,/VCC*%
%TA.AperFunction,SMDPad,CuDef*%
G36*
G01*
X36525000Y-25743750D02*
X36525000Y-26256250D01*
G75*
G02*
X36306250Y-26475000I-218750J0D01*
G01*
X35868750Y-26475000D01*
G75*
G02*
X35650000Y-26256250I0J218750D01*
G01*
X35650000Y-25743750D01*
G75*
G02*
X35868750Y-25525000I218750J0D01*
G01*
X36306250Y-25525000D01*
G75*
G02*
X36525000Y-25743750I0J-218750D01*
G01*
G37*
%TD.AperFunction*%
%TD*%
D20*
%TO.N,GND*%
X34450000Y-27150000D03*
X23700000Y-22400000D03*
X28100000Y-22800004D03*
X28099992Y-23565677D03*
X28100004Y-24400000D03*
%TO.N,Net-(D1-Pad2)*%
X56100000Y-29550000D03*
X48400000Y-25625022D03*
%TO.N,/BAL*%
X34500000Y-24800000D03*
%TO.N,/FAULT_UPDI*%
X35100000Y-30900000D03*
%TO.N,GND*%
X52100000Y-29600000D03*
X41500000Y-26200010D03*
%TO.N,Net-(D1-Pad2)*%
X53500000Y-29600000D03*
%TO.N,/BAL*%
X40089070Y-26185610D03*
%TD*%
D21*
%TO.N,*%
X66300000Y-30900000D02*
X67500000Y-30900000D01*
X66900000Y-30300000D02*
X66900000Y-31500000D01*
D22*
%TO.N,GND*%
X34462500Y-27137500D02*
X34450000Y-27150000D01*
X34462500Y-25950000D02*
X34462500Y-27137500D01*
X28100000Y-23287500D02*
X28100000Y-22800004D01*
D23*
X28100000Y-22800004D02*
X28100000Y-23565669D01*
X28100000Y-23565669D02*
X28099992Y-23565677D01*
X28100004Y-24400000D02*
X28099992Y-23565677D01*
X28150004Y-24450000D02*
X28100004Y-24400000D01*
X29300000Y-24450000D02*
X28150004Y-24450000D01*
D22*
X29512500Y-20800000D02*
X28800000Y-20800000D01*
X28100000Y-21500000D02*
X28100000Y-22800004D01*
X28800000Y-20800000D02*
X28100000Y-21500000D01*
%TO.N,/VCC*%
X38955000Y-26045000D02*
X38225000Y-26045000D01*
X39600000Y-25400000D02*
X38955000Y-26045000D01*
X45600000Y-26000000D02*
X45087500Y-25487500D01*
X45000000Y-25400000D02*
X45087500Y-25487500D01*
X39600000Y-25400000D02*
X45000000Y-25400000D01*
X32730000Y-28000000D02*
X31200000Y-29530000D01*
X36037500Y-25950000D02*
X36037500Y-26862500D01*
X36037500Y-26862500D02*
X34900000Y-28000000D01*
X36132500Y-26045000D02*
X36037500Y-25950000D01*
X34900000Y-28000000D02*
X32730000Y-28000000D01*
X38855000Y-26045000D02*
X36132500Y-26045000D01*
%TO.N,Net-(D1-Pad2)*%
X66750000Y-26000000D02*
X67000000Y-26000000D01*
X56800000Y-28850000D02*
X56100000Y-29550000D01*
X56800000Y-28400000D02*
X56800000Y-28850000D01*
X56487500Y-20512500D02*
X55500000Y-21500000D01*
X57900000Y-20512500D02*
X56487500Y-20512500D01*
X48274978Y-25625022D02*
X48400000Y-25625022D01*
X47900000Y-26000000D02*
X48274978Y-25625022D01*
X47187500Y-26000000D02*
X47900000Y-26000000D01*
%TO.N,Net-(D2-Pad3)*%
X58100000Y-25750000D02*
X57650000Y-25300000D01*
X57650000Y-25300000D02*
X54950000Y-25300000D01*
X58100000Y-26500000D02*
X58100000Y-25750000D01*
X54950000Y-26562500D02*
X54950000Y-25300000D01*
%TO.N,/RX*%
X32620000Y-31620000D02*
X32625001Y-31625001D01*
X37015000Y-28585000D02*
X38175000Y-28585000D01*
X36700000Y-28900000D02*
X37015000Y-28585000D01*
X32625001Y-31625001D02*
X36374999Y-31625001D01*
X36700000Y-31600000D02*
X36725001Y-31625001D01*
X36700000Y-28900000D02*
X36700000Y-31600000D01*
X36374999Y-31625001D02*
X36725001Y-31625001D01*
X35274999Y-31625001D02*
X38025001Y-31625001D01*
X35025001Y-31625001D02*
X35274999Y-31625001D01*
X32470000Y-31620002D02*
X32474999Y-31625001D01*
X32470000Y-30800000D02*
X32470000Y-31620002D01*
X32474999Y-31625001D02*
X35274999Y-31625001D01*
%TO.N,/TX*%
X55112500Y-24787500D02*
X55100000Y-24800000D01*
X44525000Y-27950000D02*
X45496753Y-26978247D01*
X49600000Y-26400000D02*
X50600000Y-25400000D01*
X54250000Y-24800000D02*
X55100000Y-24800000D01*
X48200000Y-26400000D02*
X49600000Y-26400000D01*
X47621753Y-26978247D02*
X48200000Y-26400000D01*
X45496753Y-26978247D02*
X47621753Y-26978247D01*
X40950000Y-27950000D02*
X44525000Y-27950000D01*
X36585000Y-27315000D02*
X40315000Y-27315000D01*
X33375000Y-28625000D02*
X35275000Y-28625000D01*
X35275000Y-28625000D02*
X36585000Y-27315000D01*
X53650000Y-25400000D02*
X54250000Y-24800000D01*
X40315000Y-27315000D02*
X40950000Y-27950000D01*
X50600000Y-25400000D02*
X53650000Y-25400000D01*
X32470000Y-29530000D02*
X33375000Y-28625000D01*
X59912500Y-26012500D02*
X58700000Y-24800000D01*
X59912500Y-27100000D02*
X59912500Y-26012500D01*
%TO.N,Net-(Q1-Pad2)*%
X57450000Y-26500000D02*
X57450000Y-25900000D01*
X57450000Y-25900000D02*
X57350000Y-25800000D01*
X57350000Y-25800000D02*
X56800000Y-25800000D01*
X56800000Y-25800000D02*
X56800000Y-26500000D01*
X55662500Y-28137500D02*
X54950000Y-28137500D01*
X56000000Y-27800000D02*
X55662500Y-28137500D01*
X56000000Y-26150000D02*
X56000000Y-27800000D01*
X56350000Y-25800000D02*
X56000000Y-26150000D01*
X56800000Y-25800000D02*
X56350000Y-25800000D01*
D23*
%TO.N,Net-(Q2-Pad3)*%
X31500000Y-23500000D02*
X33500000Y-21500000D01*
X31300000Y-23500000D02*
X31500000Y-23500000D01*
D22*
%TO.N,Net-(Q2-Pad1)*%
X31087500Y-20800000D02*
X31087500Y-21712500D01*
X30250000Y-22550000D02*
X29300000Y-22550000D01*
X31087500Y-21712500D02*
X30250000Y-22550000D01*
X31212500Y-25912500D02*
X30250000Y-24950000D01*
X30250000Y-24950000D02*
X30250000Y-22550000D01*
X31212500Y-26000000D02*
X31212500Y-25912500D01*
%TO.N,/FAULT_UPDI*%
X36740010Y-27959990D02*
X35100000Y-29600000D01*
X40009990Y-27959990D02*
X36740010Y-27959990D01*
X35100000Y-29600000D02*
X35100000Y-30900000D01*
X40635000Y-28585000D02*
X40009990Y-27959990D01*
X46285000Y-28585000D02*
X40635000Y-28585000D01*
X46400000Y-28700000D02*
X46285000Y-28585000D01*
%TO.N,Net-(J2-Pad2)*%
X57450000Y-28400000D02*
X57450000Y-29400000D01*
X29900000Y-32100000D02*
X28200000Y-32100000D01*
X29900000Y-32100000D02*
X28800000Y-32100000D01*
%TO.N,GND*%
X22212500Y-20712500D02*
X22100000Y-20712500D01*
X23700000Y-22400000D02*
X23700000Y-20900000D01*
X23800000Y-20800000D02*
X25012500Y-20800000D01*
X23700000Y-20900000D02*
X23800000Y-20800000D01*
X22112500Y-20800000D02*
X22100000Y-20812500D01*
X23800000Y-20800000D02*
X22112500Y-20800000D01*
X24900000Y-22550000D02*
X24850000Y-22550000D01*
X24700000Y-22400000D02*
X23700000Y-22400000D01*
X24850000Y-22550000D02*
X24700000Y-22400000D01*
X52100000Y-28650000D02*
X52150000Y-28600000D01*
X52100000Y-29600000D02*
X52100000Y-28650000D01*
X41505010Y-26045000D02*
X43125000Y-26045000D01*
X41500000Y-26200010D02*
X41505010Y-26045000D01*
%TO.N,Net-(D1-Pad2)*%
X51387500Y-30400000D02*
X50687500Y-29700000D01*
X52100000Y-30400000D02*
X51387500Y-30400000D01*
X52700000Y-30400000D02*
X52100000Y-30400000D01*
X53500000Y-29600000D02*
X52700000Y-30400000D01*
X53500000Y-28650000D02*
X53450000Y-28600000D01*
X53500000Y-29600000D02*
X53500000Y-28650000D01*
X55612500Y-30037500D02*
X56100000Y-29550000D01*
X55612500Y-31200000D02*
X55612500Y-30037500D01*
X50687500Y-31100000D02*
X51387500Y-30400000D01*
X50687500Y-31200000D02*
X50687500Y-31100000D01*
%TO.N,Net-(D1-Pad1)*%
X58100000Y-22287500D02*
X57900000Y-22087500D01*
X58100000Y-23700000D02*
X58100000Y-22287500D01*
X58300000Y-23900000D02*
X58100000Y-23700000D01*
%TO.N,Net-(D2-Pad3)*%
X51300000Y-26600000D02*
X50687500Y-27212500D01*
X50687500Y-27212500D02*
X50687500Y-27300000D01*
X54600000Y-25300000D02*
X53300000Y-26600000D01*
X53300000Y-26600000D02*
X51300000Y-26600000D01*
X54950000Y-25300000D02*
X54600000Y-25300000D01*
%TO.N,/RX*%
X48687499Y-31625001D02*
X48937499Y-31375001D01*
X48937499Y-31375001D02*
X48937499Y-31175001D01*
X36725001Y-31625001D02*
X48687499Y-31625001D01*
X31925001Y-31625001D02*
X32474999Y-31625001D01*
X26900000Y-24300000D02*
X30000000Y-27400000D01*
X30425001Y-31625001D02*
X31925001Y-31625001D01*
X30000000Y-27400000D02*
X30000000Y-31200000D01*
X30000000Y-31200000D02*
X30425001Y-31625001D01*
X26900000Y-23500000D02*
X26900000Y-24300000D01*
%TO.N,/TX*%
X56725000Y-23900000D02*
X56725000Y-24775000D01*
X56725000Y-24775000D02*
X56700000Y-24800000D01*
X56700000Y-24800000D02*
X55100000Y-24800000D01*
X58700000Y-24800000D02*
X56700000Y-24800000D01*
%TO.N,/2V5*%
X39395000Y-29855000D02*
X38175000Y-29855000D01*
X40455000Y-29855000D02*
X39395000Y-29855000D01*
X41300000Y-30700000D02*
X40455000Y-29855000D01*
X48300000Y-29700000D02*
X47300000Y-30700000D01*
X47300000Y-30700000D02*
X41300000Y-30700000D01*
X49112500Y-29700000D02*
X48300000Y-29700000D01*
%TO.N,/BAL*%
X32787500Y-25912500D02*
X32787500Y-26000000D01*
X33900000Y-24800000D02*
X32787500Y-25912500D01*
X34500000Y-24800000D02*
X33900000Y-24800000D01*
X41218460Y-27315000D02*
X40089070Y-26185610D01*
X43125000Y-27315000D02*
X41218460Y-27315000D01*
%TO.N,/~EN*%
X45245000Y-29855000D02*
X43125000Y-29855000D01*
X49112500Y-27387500D02*
X46645000Y-29855000D01*
X46645000Y-29855000D02*
X45245000Y-29855000D01*
X49112500Y-27300000D02*
X49112500Y-27387500D01*
%TO.N,Net-(J2-Pad3)*%
X27600000Y-25700000D02*
X27600000Y-26700000D01*
X25900000Y-24000000D02*
X27600000Y-25700000D01*
X25900000Y-22700000D02*
X25900000Y-24000000D01*
X26587500Y-22012500D02*
X25900000Y-22700000D01*
X26587500Y-20800000D02*
X26587500Y-22012500D01*
%TO.N,Net-(J2-Pad1)*%
X24300000Y-25300000D02*
X24000000Y-25000000D01*
X24900000Y-24450000D02*
X24900000Y-25300000D01*
X24900000Y-25300000D02*
X24300000Y-25300000D01*
%TO.N,Net-(J2-Pad2)*%
X26600000Y-27700000D02*
X27700000Y-28800000D01*
X26600000Y-26700000D02*
X26600000Y-27700000D01*
%TO.N,Net-(J1-Pad2)*%
X62700000Y-23800000D02*
X61600000Y-22700000D01*
X62700000Y-24800000D02*
X62700000Y-23800000D01*
%TO.N,Net-(J1-Pad1)*%
X63700000Y-22800000D02*
X63600000Y-22700000D01*
X63700000Y-24800000D02*
X63700000Y-22800000D01*
X61487500Y-27100000D02*
X62900000Y-27100000D01*
X63700000Y-26300000D02*
X63700000Y-24800000D01*
X62900000Y-27100000D02*
X63700000Y-26300000D01*
%TO.N,Net-(J2-Pad1)*%
X25600000Y-28700000D02*
X25700000Y-28800000D01*
X25600000Y-26700000D02*
X25600000Y-28700000D01*
%TO.N,Net-(J2-Pad2)*%
X57187500Y-29662500D02*
X57450000Y-29400000D01*
X57187500Y-31200000D02*
X57187500Y-29662500D01*
X27700000Y-31600000D02*
X28200000Y-32100000D01*
X27700000Y-28800000D02*
X27700000Y-31600000D01*
X57000000Y-32100000D02*
X57187500Y-31912500D01*
X57187500Y-31912500D02*
X57187500Y-31200000D01*
X29900000Y-32100000D02*
X57000000Y-32100000D01*
%TO.N,Net-(J1-Pad2)*%
X60500000Y-28400000D02*
X58100000Y-28400000D01*
X62700000Y-25900000D02*
X62500000Y-26100000D01*
X60700000Y-26300000D02*
X60700000Y-28200000D01*
X60700000Y-28200000D02*
X60500000Y-28400000D01*
X60900000Y-26100000D02*
X60700000Y-26300000D01*
X62500000Y-26100000D02*
X60900000Y-26100000D01*
X62700000Y-24800000D02*
X62700000Y-25900000D01*
%TO.N,Net-(J2-Pad1)*%
X25600000Y-26700000D02*
X25600000Y-25700000D01*
X25200000Y-25300000D02*
X24900000Y-25300000D01*
X25600000Y-25700000D02*
X25200000Y-25300000D01*
X22100000Y-22387500D02*
X22100000Y-22400000D01*
X22100000Y-22400000D02*
X24000000Y-24300000D01*
X24000000Y-25000000D02*
X24000000Y-24300000D01*
%TD*%
M02*
