%TF.GenerationSoftware,KiCad,Pcbnew,(5.1.10-1-10_14)*%
%TF.CreationDate,2023-04-11T22:44:58+12:00*%
%TF.ProjectId,BMSladder,424d536c-6164-4646-9572-2e6b69636164,rev?*%
%TF.SameCoordinates,Original*%
%TF.FileFunction,Paste,Top*%
%TF.FilePolarity,Positive*%
%FSLAX46Y46*%
G04 Gerber Fmt 4.6, Leading zero omitted, Abs format (unit mm)*
G04 Created by KiCad (PCBNEW (5.1.10-1-10_14)) date 2023-04-11 22:44:58*
%MOMM*%
%LPD*%
G01*
G04 APERTURE LIST*
%ADD10R,0.800000X0.900000*%
%ADD11R,0.900000X0.800000*%
%ADD12R,0.400000X0.650000*%
%ADD13R,0.450000X0.700000*%
G04 APERTURE END LIST*
%TO.C,J2*%
G36*
G01*
X28300000Y-31225001D02*
X28300000Y-29924999D01*
G75*
G02*
X28549999Y-29675000I249999J0D01*
G01*
X29250001Y-29675000D01*
G75*
G02*
X29500000Y-29924999I0J-249999D01*
G01*
X29500000Y-31225001D01*
G75*
G02*
X29250001Y-31475000I-249999J0D01*
G01*
X28549999Y-31475000D01*
G75*
G02*
X28300000Y-31225001I0J249999D01*
G01*
G37*
G36*
G01*
X23700000Y-31225001D02*
X23700000Y-29924999D01*
G75*
G02*
X23949999Y-29675000I249999J0D01*
G01*
X24650001Y-29675000D01*
G75*
G02*
X24900000Y-29924999I0J-249999D01*
G01*
X24900000Y-31225001D01*
G75*
G02*
X24650001Y-31475000I-249999J0D01*
G01*
X23949999Y-31475000D01*
G75*
G02*
X23700000Y-31225001I0J249999D01*
G01*
G37*
G36*
G01*
X27300000Y-27325000D02*
X27300000Y-26075000D01*
G75*
G02*
X27450000Y-25925000I150000J0D01*
G01*
X27750000Y-25925000D01*
G75*
G02*
X27900000Y-26075000I0J-150000D01*
G01*
X27900000Y-27325000D01*
G75*
G02*
X27750000Y-27475000I-150000J0D01*
G01*
X27450000Y-27475000D01*
G75*
G02*
X27300000Y-27325000I0J150000D01*
G01*
G37*
G36*
G01*
X26300000Y-27325000D02*
X26300000Y-26075000D01*
G75*
G02*
X26450000Y-25925000I150000J0D01*
G01*
X26750000Y-25925000D01*
G75*
G02*
X26900000Y-26075000I0J-150000D01*
G01*
X26900000Y-27325000D01*
G75*
G02*
X26750000Y-27475000I-150000J0D01*
G01*
X26450000Y-27475000D01*
G75*
G02*
X26300000Y-27325000I0J150000D01*
G01*
G37*
G36*
G01*
X25300000Y-27325000D02*
X25300000Y-26075000D01*
G75*
G02*
X25450000Y-25925000I150000J0D01*
G01*
X25750000Y-25925000D01*
G75*
G02*
X25900000Y-26075000I0J-150000D01*
G01*
X25900000Y-27325000D01*
G75*
G02*
X25750000Y-27475000I-150000J0D01*
G01*
X25450000Y-27475000D01*
G75*
G02*
X25300000Y-27325000I0J150000D01*
G01*
G37*
%TD*%
%TO.C,J1*%
G36*
G01*
X61000000Y-20274999D02*
X61000000Y-21575001D01*
G75*
G02*
X60750001Y-21825000I-249999J0D01*
G01*
X60049999Y-21825000D01*
G75*
G02*
X59800000Y-21575001I0J249999D01*
G01*
X59800000Y-20274999D01*
G75*
G02*
X60049999Y-20025000I249999J0D01*
G01*
X60750001Y-20025000D01*
G75*
G02*
X61000000Y-20274999I0J-249999D01*
G01*
G37*
G36*
G01*
X65600000Y-20274999D02*
X65600000Y-21575001D01*
G75*
G02*
X65350001Y-21825000I-249999J0D01*
G01*
X64649999Y-21825000D01*
G75*
G02*
X64400000Y-21575001I0J249999D01*
G01*
X64400000Y-20274999D01*
G75*
G02*
X64649999Y-20025000I249999J0D01*
G01*
X65350001Y-20025000D01*
G75*
G02*
X65600000Y-20274999I0J-249999D01*
G01*
G37*
G36*
G01*
X62000000Y-24175000D02*
X62000000Y-25425000D01*
G75*
G02*
X61850000Y-25575000I-150000J0D01*
G01*
X61550000Y-25575000D01*
G75*
G02*
X61400000Y-25425000I0J150000D01*
G01*
X61400000Y-24175000D01*
G75*
G02*
X61550000Y-24025000I150000J0D01*
G01*
X61850000Y-24025000D01*
G75*
G02*
X62000000Y-24175000I0J-150000D01*
G01*
G37*
G36*
G01*
X63000000Y-24175000D02*
X63000000Y-25425000D01*
G75*
G02*
X62850000Y-25575000I-150000J0D01*
G01*
X62550000Y-25575000D01*
G75*
G02*
X62400000Y-25425000I0J150000D01*
G01*
X62400000Y-24175000D01*
G75*
G02*
X62550000Y-24025000I150000J0D01*
G01*
X62850000Y-24025000D01*
G75*
G02*
X63000000Y-24175000I0J-150000D01*
G01*
G37*
G36*
G01*
X64000000Y-24175000D02*
X64000000Y-25425000D01*
G75*
G02*
X63850000Y-25575000I-150000J0D01*
G01*
X63550000Y-25575000D01*
G75*
G02*
X63400000Y-25425000I0J150000D01*
G01*
X63400000Y-24175000D01*
G75*
G02*
X63550000Y-24025000I150000J0D01*
G01*
X63850000Y-24025000D01*
G75*
G02*
X64000000Y-24175000I0J-150000D01*
G01*
G37*
%TD*%
%TO.C,D1*%
G36*
G01*
X58156250Y-20950000D02*
X57643750Y-20950000D01*
G75*
G02*
X57425000Y-20731250I0J218750D01*
G01*
X57425000Y-20293750D01*
G75*
G02*
X57643750Y-20075000I218750J0D01*
G01*
X58156250Y-20075000D01*
G75*
G02*
X58375000Y-20293750I0J-218750D01*
G01*
X58375000Y-20731250D01*
G75*
G02*
X58156250Y-20950000I-218750J0D01*
G01*
G37*
G36*
G01*
X58156250Y-22525000D02*
X57643750Y-22525000D01*
G75*
G02*
X57425000Y-22306250I0J218750D01*
G01*
X57425000Y-21868750D01*
G75*
G02*
X57643750Y-21650000I218750J0D01*
G01*
X58156250Y-21650000D01*
G75*
G02*
X58375000Y-21868750I0J-218750D01*
G01*
X58375000Y-22306250D01*
G75*
G02*
X58156250Y-22525000I-218750J0D01*
G01*
G37*
%TD*%
%TO.C,R3*%
G36*
G01*
X49550000Y-30943750D02*
X49550000Y-31456250D01*
G75*
G02*
X49331250Y-31675000I-218750J0D01*
G01*
X48893750Y-31675000D01*
G75*
G02*
X48675000Y-31456250I0J218750D01*
G01*
X48675000Y-30943750D01*
G75*
G02*
X48893750Y-30725000I218750J0D01*
G01*
X49331250Y-30725000D01*
G75*
G02*
X49550000Y-30943750I0J-218750D01*
G01*
G37*
G36*
G01*
X51125000Y-30943750D02*
X51125000Y-31456250D01*
G75*
G02*
X50906250Y-31675000I-218750J0D01*
G01*
X50468750Y-31675000D01*
G75*
G02*
X50250000Y-31456250I0J218750D01*
G01*
X50250000Y-30943750D01*
G75*
G02*
X50468750Y-30725000I218750J0D01*
G01*
X50906250Y-30725000D01*
G75*
G02*
X51125000Y-30943750I0J-218750D01*
G01*
G37*
%TD*%
%TO.C,U2*%
G36*
G01*
X42200000Y-26195000D02*
X42200000Y-25895000D01*
G75*
G02*
X42350000Y-25745000I150000J0D01*
G01*
X44000000Y-25745000D01*
G75*
G02*
X44150000Y-25895000I0J-150000D01*
G01*
X44150000Y-26195000D01*
G75*
G02*
X44000000Y-26345000I-150000J0D01*
G01*
X42350000Y-26345000D01*
G75*
G02*
X42200000Y-26195000I0J150000D01*
G01*
G37*
G36*
G01*
X42200000Y-27465000D02*
X42200000Y-27165000D01*
G75*
G02*
X42350000Y-27015000I150000J0D01*
G01*
X44000000Y-27015000D01*
G75*
G02*
X44150000Y-27165000I0J-150000D01*
G01*
X44150000Y-27465000D01*
G75*
G02*
X44000000Y-27615000I-150000J0D01*
G01*
X42350000Y-27615000D01*
G75*
G02*
X42200000Y-27465000I0J150000D01*
G01*
G37*
G36*
G01*
X42200000Y-28735000D02*
X42200000Y-28435000D01*
G75*
G02*
X42350000Y-28285000I150000J0D01*
G01*
X44000000Y-28285000D01*
G75*
G02*
X44150000Y-28435000I0J-150000D01*
G01*
X44150000Y-28735000D01*
G75*
G02*
X44000000Y-28885000I-150000J0D01*
G01*
X42350000Y-28885000D01*
G75*
G02*
X42200000Y-28735000I0J150000D01*
G01*
G37*
G36*
G01*
X42200000Y-30005000D02*
X42200000Y-29705000D01*
G75*
G02*
X42350000Y-29555000I150000J0D01*
G01*
X44000000Y-29555000D01*
G75*
G02*
X44150000Y-29705000I0J-150000D01*
G01*
X44150000Y-30005000D01*
G75*
G02*
X44000000Y-30155000I-150000J0D01*
G01*
X42350000Y-30155000D01*
G75*
G02*
X42200000Y-30005000I0J150000D01*
G01*
G37*
G36*
G01*
X37250000Y-30005000D02*
X37250000Y-29705000D01*
G75*
G02*
X37400000Y-29555000I150000J0D01*
G01*
X39050000Y-29555000D01*
G75*
G02*
X39200000Y-29705000I0J-150000D01*
G01*
X39200000Y-30005000D01*
G75*
G02*
X39050000Y-30155000I-150000J0D01*
G01*
X37400000Y-30155000D01*
G75*
G02*
X37250000Y-30005000I0J150000D01*
G01*
G37*
G36*
G01*
X37250000Y-28735000D02*
X37250000Y-28435000D01*
G75*
G02*
X37400000Y-28285000I150000J0D01*
G01*
X39050000Y-28285000D01*
G75*
G02*
X39200000Y-28435000I0J-150000D01*
G01*
X39200000Y-28735000D01*
G75*
G02*
X39050000Y-28885000I-150000J0D01*
G01*
X37400000Y-28885000D01*
G75*
G02*
X37250000Y-28735000I0J150000D01*
G01*
G37*
G36*
G01*
X37250000Y-27465000D02*
X37250000Y-27165000D01*
G75*
G02*
X37400000Y-27015000I150000J0D01*
G01*
X39050000Y-27015000D01*
G75*
G02*
X39200000Y-27165000I0J-150000D01*
G01*
X39200000Y-27465000D01*
G75*
G02*
X39050000Y-27615000I-150000J0D01*
G01*
X37400000Y-27615000D01*
G75*
G02*
X37250000Y-27465000I0J150000D01*
G01*
G37*
G36*
G01*
X37250000Y-26195000D02*
X37250000Y-25895000D01*
G75*
G02*
X37400000Y-25745000I150000J0D01*
G01*
X39050000Y-25745000D01*
G75*
G02*
X39200000Y-25895000I0J-150000D01*
G01*
X39200000Y-26195000D01*
G75*
G02*
X39050000Y-26345000I-150000J0D01*
G01*
X37400000Y-26345000D01*
G75*
G02*
X37250000Y-26195000I0J150000D01*
G01*
G37*
%TD*%
D10*
%TO.C,U1*%
X46400000Y-28700000D03*
X47350000Y-30700000D03*
X45450000Y-30700000D03*
%TD*%
%TO.C,R13*%
G36*
G01*
X26150000Y-21056250D02*
X26150000Y-20543750D01*
G75*
G02*
X26368750Y-20325000I218750J0D01*
G01*
X26806250Y-20325000D01*
G75*
G02*
X27025000Y-20543750I0J-218750D01*
G01*
X27025000Y-21056250D01*
G75*
G02*
X26806250Y-21275000I-218750J0D01*
G01*
X26368750Y-21275000D01*
G75*
G02*
X26150000Y-21056250I0J218750D01*
G01*
G37*
G36*
G01*
X24575000Y-21056250D02*
X24575000Y-20543750D01*
G75*
G02*
X24793750Y-20325000I218750J0D01*
G01*
X25231250Y-20325000D01*
G75*
G02*
X25450000Y-20543750I0J-218750D01*
G01*
X25450000Y-21056250D01*
G75*
G02*
X25231250Y-21275000I-218750J0D01*
G01*
X24793750Y-21275000D01*
G75*
G02*
X24575000Y-21056250I0J218750D01*
G01*
G37*
%TD*%
%TO.C,R12*%
G36*
G01*
X22356250Y-21250000D02*
X21843750Y-21250000D01*
G75*
G02*
X21625000Y-21031250I0J218750D01*
G01*
X21625000Y-20593750D01*
G75*
G02*
X21843750Y-20375000I218750J0D01*
G01*
X22356250Y-20375000D01*
G75*
G02*
X22575000Y-20593750I0J-218750D01*
G01*
X22575000Y-21031250D01*
G75*
G02*
X22356250Y-21250000I-218750J0D01*
G01*
G37*
G36*
G01*
X22356250Y-22825000D02*
X21843750Y-22825000D01*
G75*
G02*
X21625000Y-22606250I0J218750D01*
G01*
X21625000Y-22168750D01*
G75*
G02*
X21843750Y-21950000I218750J0D01*
G01*
X22356250Y-21950000D01*
G75*
G02*
X22575000Y-22168750I0J-218750D01*
G01*
X22575000Y-22606250D01*
G75*
G02*
X22356250Y-22825000I-218750J0D01*
G01*
G37*
%TD*%
%TO.C,R11*%
G36*
G01*
X29950000Y-20543750D02*
X29950000Y-21056250D01*
G75*
G02*
X29731250Y-21275000I-218750J0D01*
G01*
X29293750Y-21275000D01*
G75*
G02*
X29075000Y-21056250I0J218750D01*
G01*
X29075000Y-20543750D01*
G75*
G02*
X29293750Y-20325000I218750J0D01*
G01*
X29731250Y-20325000D01*
G75*
G02*
X29950000Y-20543750I0J-218750D01*
G01*
G37*
G36*
G01*
X31525000Y-20543750D02*
X31525000Y-21056250D01*
G75*
G02*
X31306250Y-21275000I-218750J0D01*
G01*
X30868750Y-21275000D01*
G75*
G02*
X30650000Y-21056250I0J218750D01*
G01*
X30650000Y-20543750D01*
G75*
G02*
X30868750Y-20325000I218750J0D01*
G01*
X31306250Y-20325000D01*
G75*
G02*
X31525000Y-20543750I0J-218750D01*
G01*
G37*
%TD*%
%TO.C,R10*%
G36*
G01*
X31650000Y-25743750D02*
X31650000Y-26256250D01*
G75*
G02*
X31431250Y-26475000I-218750J0D01*
G01*
X30993750Y-26475000D01*
G75*
G02*
X30775000Y-26256250I0J218750D01*
G01*
X30775000Y-25743750D01*
G75*
G02*
X30993750Y-25525000I218750J0D01*
G01*
X31431250Y-25525000D01*
G75*
G02*
X31650000Y-25743750I0J-218750D01*
G01*
G37*
G36*
G01*
X33225000Y-25743750D02*
X33225000Y-26256250D01*
G75*
G02*
X33006250Y-26475000I-218750J0D01*
G01*
X32568750Y-26475000D01*
G75*
G02*
X32350000Y-26256250I0J218750D01*
G01*
X32350000Y-25743750D01*
G75*
G02*
X32568750Y-25525000I218750J0D01*
G01*
X33006250Y-25525000D01*
G75*
G02*
X33225000Y-25743750I0J-218750D01*
G01*
G37*
%TD*%
%TO.C,R9*%
G36*
G01*
X49550000Y-27043750D02*
X49550000Y-27556250D01*
G75*
G02*
X49331250Y-27775000I-218750J0D01*
G01*
X48893750Y-27775000D01*
G75*
G02*
X48675000Y-27556250I0J218750D01*
G01*
X48675000Y-27043750D01*
G75*
G02*
X48893750Y-26825000I218750J0D01*
G01*
X49331250Y-26825000D01*
G75*
G02*
X49550000Y-27043750I0J-218750D01*
G01*
G37*
G36*
G01*
X51125000Y-27043750D02*
X51125000Y-27556250D01*
G75*
G02*
X50906250Y-27775000I-218750J0D01*
G01*
X50468750Y-27775000D01*
G75*
G02*
X50250000Y-27556250I0J218750D01*
G01*
X50250000Y-27043750D01*
G75*
G02*
X50468750Y-26825000I218750J0D01*
G01*
X50906250Y-26825000D01*
G75*
G02*
X51125000Y-27043750I0J-218750D01*
G01*
G37*
%TD*%
%TO.C,R8*%
G36*
G01*
X54693750Y-27700000D02*
X55206250Y-27700000D01*
G75*
G02*
X55425000Y-27918750I0J-218750D01*
G01*
X55425000Y-28356250D01*
G75*
G02*
X55206250Y-28575000I-218750J0D01*
G01*
X54693750Y-28575000D01*
G75*
G02*
X54475000Y-28356250I0J218750D01*
G01*
X54475000Y-27918750D01*
G75*
G02*
X54693750Y-27700000I218750J0D01*
G01*
G37*
G36*
G01*
X54693750Y-26125000D02*
X55206250Y-26125000D01*
G75*
G02*
X55425000Y-26343750I0J-218750D01*
G01*
X55425000Y-26781250D01*
G75*
G02*
X55206250Y-27000000I-218750J0D01*
G01*
X54693750Y-27000000D01*
G75*
G02*
X54475000Y-26781250I0J218750D01*
G01*
X54475000Y-26343750D01*
G75*
G02*
X54693750Y-26125000I218750J0D01*
G01*
G37*
%TD*%
%TO.C,R6*%
G36*
G01*
X61050000Y-27356250D02*
X61050000Y-26843750D01*
G75*
G02*
X61268750Y-26625000I218750J0D01*
G01*
X61706250Y-26625000D01*
G75*
G02*
X61925000Y-26843750I0J-218750D01*
G01*
X61925000Y-27356250D01*
G75*
G02*
X61706250Y-27575000I-218750J0D01*
G01*
X61268750Y-27575000D01*
G75*
G02*
X61050000Y-27356250I0J218750D01*
G01*
G37*
G36*
G01*
X59475000Y-27356250D02*
X59475000Y-26843750D01*
G75*
G02*
X59693750Y-26625000I218750J0D01*
G01*
X60131250Y-26625000D01*
G75*
G02*
X60350000Y-26843750I0J-218750D01*
G01*
X60350000Y-27356250D01*
G75*
G02*
X60131250Y-27575000I-218750J0D01*
G01*
X59693750Y-27575000D01*
G75*
G02*
X59475000Y-27356250I0J218750D01*
G01*
G37*
%TD*%
%TO.C,R5*%
G36*
G01*
X57862500Y-24156250D02*
X57862500Y-23643750D01*
G75*
G02*
X58081250Y-23425000I218750J0D01*
G01*
X58518750Y-23425000D01*
G75*
G02*
X58737500Y-23643750I0J-218750D01*
G01*
X58737500Y-24156250D01*
G75*
G02*
X58518750Y-24375000I-218750J0D01*
G01*
X58081250Y-24375000D01*
G75*
G02*
X57862500Y-24156250I0J218750D01*
G01*
G37*
G36*
G01*
X56287500Y-24156250D02*
X56287500Y-23643750D01*
G75*
G02*
X56506250Y-23425000I218750J0D01*
G01*
X56943750Y-23425000D01*
G75*
G02*
X57162500Y-23643750I0J-218750D01*
G01*
X57162500Y-24156250D01*
G75*
G02*
X56943750Y-24375000I-218750J0D01*
G01*
X56506250Y-24375000D01*
G75*
G02*
X56287500Y-24156250I0J218750D01*
G01*
G37*
%TD*%
%TO.C,R4*%
G36*
G01*
X50250000Y-29956250D02*
X50250000Y-29443750D01*
G75*
G02*
X50468750Y-29225000I218750J0D01*
G01*
X50906250Y-29225000D01*
G75*
G02*
X51125000Y-29443750I0J-218750D01*
G01*
X51125000Y-29956250D01*
G75*
G02*
X50906250Y-30175000I-218750J0D01*
G01*
X50468750Y-30175000D01*
G75*
G02*
X50250000Y-29956250I0J218750D01*
G01*
G37*
G36*
G01*
X48675000Y-29956250D02*
X48675000Y-29443750D01*
G75*
G02*
X48893750Y-29225000I218750J0D01*
G01*
X49331250Y-29225000D01*
G75*
G02*
X49550000Y-29443750I0J-218750D01*
G01*
X49550000Y-29956250D01*
G75*
G02*
X49331250Y-30175000I-218750J0D01*
G01*
X48893750Y-30175000D01*
G75*
G02*
X48675000Y-29956250I0J218750D01*
G01*
G37*
%TD*%
%TO.C,R2*%
G36*
G01*
X46050000Y-25743750D02*
X46050000Y-26256250D01*
G75*
G02*
X45831250Y-26475000I-218750J0D01*
G01*
X45393750Y-26475000D01*
G75*
G02*
X45175000Y-26256250I0J218750D01*
G01*
X45175000Y-25743750D01*
G75*
G02*
X45393750Y-25525000I218750J0D01*
G01*
X45831250Y-25525000D01*
G75*
G02*
X46050000Y-25743750I0J-218750D01*
G01*
G37*
G36*
G01*
X47625000Y-25743750D02*
X47625000Y-26256250D01*
G75*
G02*
X47406250Y-26475000I-218750J0D01*
G01*
X46968750Y-26475000D01*
G75*
G02*
X46750000Y-26256250I0J218750D01*
G01*
X46750000Y-25743750D01*
G75*
G02*
X46968750Y-25525000I218750J0D01*
G01*
X47406250Y-25525000D01*
G75*
G02*
X47625000Y-25743750I0J-218750D01*
G01*
G37*
%TD*%
%TO.C,R1*%
G36*
G01*
X56050000Y-30943750D02*
X56050000Y-31456250D01*
G75*
G02*
X55831250Y-31675000I-218750J0D01*
G01*
X55393750Y-31675000D01*
G75*
G02*
X55175000Y-31456250I0J218750D01*
G01*
X55175000Y-30943750D01*
G75*
G02*
X55393750Y-30725000I218750J0D01*
G01*
X55831250Y-30725000D01*
G75*
G02*
X56050000Y-30943750I0J-218750D01*
G01*
G37*
G36*
G01*
X57625000Y-30943750D02*
X57625000Y-31456250D01*
G75*
G02*
X57406250Y-31675000I-218750J0D01*
G01*
X56968750Y-31675000D01*
G75*
G02*
X56750000Y-31456250I0J218750D01*
G01*
X56750000Y-30943750D01*
G75*
G02*
X56968750Y-30725000I218750J0D01*
G01*
X57406250Y-30725000D01*
G75*
G02*
X57625000Y-30943750I0J-218750D01*
G01*
G37*
%TD*%
D11*
%TO.C,Q3*%
X26900000Y-23500000D03*
X24900000Y-24450000D03*
X24900000Y-22550000D03*
%TD*%
%TO.C,Q2*%
X31300000Y-23500000D03*
X29300000Y-24450000D03*
X29300000Y-22550000D03*
%TD*%
D12*
%TO.C,Q1*%
X58100000Y-28400000D03*
X56800000Y-28400000D03*
X57450000Y-26500000D03*
X57450000Y-28400000D03*
X56800000Y-26500000D03*
X58100000Y-26500000D03*
%TD*%
D13*
%TO.C,D2*%
X52800000Y-26600000D03*
X53450000Y-28600000D03*
X52150000Y-28600000D03*
%TD*%
%TO.C,C1*%
G36*
G01*
X34950000Y-25743750D02*
X34950000Y-26256250D01*
G75*
G02*
X34731250Y-26475000I-218750J0D01*
G01*
X34293750Y-26475000D01*
G75*
G02*
X34075000Y-26256250I0J218750D01*
G01*
X34075000Y-25743750D01*
G75*
G02*
X34293750Y-25525000I218750J0D01*
G01*
X34731250Y-25525000D01*
G75*
G02*
X34950000Y-25743750I0J-218750D01*
G01*
G37*
G36*
G01*
X36525000Y-25743750D02*
X36525000Y-26256250D01*
G75*
G02*
X36306250Y-26475000I-218750J0D01*
G01*
X35868750Y-26475000D01*
G75*
G02*
X35650000Y-26256250I0J218750D01*
G01*
X35650000Y-25743750D01*
G75*
G02*
X35868750Y-25525000I218750J0D01*
G01*
X36306250Y-25525000D01*
G75*
G02*
X36525000Y-25743750I0J-218750D01*
G01*
G37*
%TD*%
M02*
