%TF.GenerationSoftware,KiCad,Pcbnew,(5.1.10-1-10_14)*%
%TF.CreationDate,2023-04-11T22:44:58+12:00*%
%TF.ProjectId,BMSladder,424d536c-6164-4646-9572-2e6b69636164,rev?*%
%TF.SameCoordinates,Original*%
%TF.FileFunction,Soldermask,Bot*%
%TF.FilePolarity,Negative*%
%FSLAX46Y46*%
G04 Gerber Fmt 4.6, Leading zero omitted, Abs format (unit mm)*
G04 Created by KiCad (PCBNEW (5.1.10-1-10_14)) date 2023-04-11 22:44:58*
%MOMM*%
%LPD*%
G01*
G04 APERTURE LIST*
%ADD10C,0.150000*%
%ADD11O,1.200000X1.750000*%
%ADD12O,1.000000X1.000000*%
%ADD13R,1.000000X1.000000*%
%ADD14O,2.400000X2.400000*%
%ADD15C,2.400000*%
%ADD16O,2.500000X5.000000*%
%ADD17C,0.800000*%
G04 APERTURE END LIST*
D10*
X50771428Y-27978571D02*
X50628571Y-28026190D01*
X50580952Y-28073809D01*
X50533333Y-28169047D01*
X50533333Y-28311904D01*
X50580952Y-28407142D01*
X50628571Y-28454761D01*
X50723809Y-28502380D01*
X51104761Y-28502380D01*
X51104761Y-27502380D01*
X50771428Y-27502380D01*
X50676190Y-27550000D01*
X50628571Y-27597619D01*
X50580952Y-27692857D01*
X50580952Y-27788095D01*
X50628571Y-27883333D01*
X50676190Y-27930952D01*
X50771428Y-27978571D01*
X51104761Y-27978571D01*
X50104761Y-28502380D02*
X50104761Y-27502380D01*
X49771428Y-28216666D01*
X49438095Y-27502380D01*
X49438095Y-28502380D01*
X49009523Y-28454761D02*
X48866666Y-28502380D01*
X48628571Y-28502380D01*
X48533333Y-28454761D01*
X48485714Y-28407142D01*
X48438095Y-28311904D01*
X48438095Y-28216666D01*
X48485714Y-28121428D01*
X48533333Y-28073809D01*
X48628571Y-28026190D01*
X48819047Y-27978571D01*
X48914285Y-27930952D01*
X48961904Y-27883333D01*
X49009523Y-27788095D01*
X49009523Y-27692857D01*
X48961904Y-27597619D01*
X48914285Y-27550000D01*
X48819047Y-27502380D01*
X48580952Y-27502380D01*
X48438095Y-27550000D01*
X46771428Y-28502380D02*
X47247619Y-28502380D01*
X47247619Y-27502380D01*
X46485714Y-28216666D02*
X46009523Y-28216666D01*
X46580952Y-28502380D02*
X46247619Y-27502380D01*
X45914285Y-28502380D01*
X45580952Y-28502380D02*
X45580952Y-27502380D01*
X45342857Y-27502380D01*
X45200000Y-27550000D01*
X45104761Y-27645238D01*
X45057142Y-27740476D01*
X45009523Y-27930952D01*
X45009523Y-28073809D01*
X45057142Y-28264285D01*
X45104761Y-28359523D01*
X45200000Y-28454761D01*
X45342857Y-28502380D01*
X45580952Y-28502380D01*
X44580952Y-28502380D02*
X44580952Y-27502380D01*
X44342857Y-27502380D01*
X44200000Y-27550000D01*
X44104761Y-27645238D01*
X44057142Y-27740476D01*
X44009523Y-27930952D01*
X44009523Y-28073809D01*
X44057142Y-28264285D01*
X44104761Y-28359523D01*
X44200000Y-28454761D01*
X44342857Y-28502380D01*
X44580952Y-28502380D01*
X43580952Y-27978571D02*
X43247619Y-27978571D01*
X43104761Y-28502380D02*
X43580952Y-28502380D01*
X43580952Y-27502380D01*
X43104761Y-27502380D01*
X42104761Y-28502380D02*
X42438095Y-28026190D01*
X42676190Y-28502380D02*
X42676190Y-27502380D01*
X42295238Y-27502380D01*
X42200000Y-27550000D01*
X42152380Y-27597619D01*
X42104761Y-27692857D01*
X42104761Y-27835714D01*
X42152380Y-27930952D01*
X42200000Y-27978571D01*
X42295238Y-28026190D01*
X42676190Y-28026190D01*
X40342857Y-28502380D02*
X40676190Y-28026190D01*
X40914285Y-28502380D02*
X40914285Y-27502380D01*
X40533333Y-27502380D01*
X40438095Y-27550000D01*
X40390476Y-27597619D01*
X40342857Y-27692857D01*
X40342857Y-27835714D01*
X40390476Y-27930952D01*
X40438095Y-27978571D01*
X40533333Y-28026190D01*
X40914285Y-28026190D01*
X39914285Y-27502380D02*
X39914285Y-28311904D01*
X39866666Y-28407142D01*
X39819047Y-28454761D01*
X39723809Y-28502380D01*
X39533333Y-28502380D01*
X39438095Y-28454761D01*
X39390476Y-28407142D01*
X39342857Y-28311904D01*
X39342857Y-27502380D01*
X38866666Y-28502380D02*
X38866666Y-27502380D01*
X38295238Y-28502380D01*
X38295238Y-27502380D01*
X37295238Y-27550000D02*
X37390476Y-27502380D01*
X37533333Y-27502380D01*
X37676190Y-27550000D01*
X37771428Y-27645238D01*
X37819047Y-27740476D01*
X37866666Y-27930952D01*
X37866666Y-28073809D01*
X37819047Y-28264285D01*
X37771428Y-28359523D01*
X37676190Y-28454761D01*
X37533333Y-28502380D01*
X37438095Y-28502380D01*
X37295238Y-28454761D01*
X37247619Y-28407142D01*
X37247619Y-28073809D01*
X37438095Y-28073809D01*
X50652380Y-30152380D02*
X51223809Y-30152380D01*
X50938095Y-30152380D02*
X50938095Y-29152380D01*
X51033333Y-29295238D01*
X51128571Y-29390476D01*
X51223809Y-29438095D01*
X48890476Y-30057142D02*
X48938095Y-30104761D01*
X49080952Y-30152380D01*
X49176190Y-30152380D01*
X49319047Y-30104761D01*
X49414285Y-30009523D01*
X49461904Y-29914285D01*
X49509523Y-29723809D01*
X49509523Y-29580952D01*
X49461904Y-29390476D01*
X49414285Y-29295238D01*
X49319047Y-29200000D01*
X49176190Y-29152380D01*
X49080952Y-29152380D01*
X48938095Y-29200000D01*
X48890476Y-29247619D01*
X48461904Y-29628571D02*
X48128571Y-29628571D01*
X47985714Y-30152380D02*
X48461904Y-30152380D01*
X48461904Y-29152380D01*
X47985714Y-29152380D01*
X47080952Y-30152380D02*
X47557142Y-30152380D01*
X47557142Y-29152380D01*
X46271428Y-30152380D02*
X46747619Y-30152380D01*
X46747619Y-29152380D01*
X45223809Y-29866666D02*
X44747619Y-29866666D01*
X45319047Y-30152380D02*
X44985714Y-29152380D01*
X44652380Y-30152380D01*
X43842857Y-30152380D02*
X44319047Y-30152380D01*
X44319047Y-29152380D01*
X43557142Y-29866666D02*
X43080952Y-29866666D01*
X43652380Y-30152380D02*
X43319047Y-29152380D01*
X42985714Y-30152380D01*
X42080952Y-30152380D02*
X42414285Y-29676190D01*
X42652380Y-30152380D02*
X42652380Y-29152380D01*
X42271428Y-29152380D01*
X42176190Y-29200000D01*
X42128571Y-29247619D01*
X42080952Y-29342857D01*
X42080952Y-29485714D01*
X42128571Y-29580952D01*
X42176190Y-29628571D01*
X42271428Y-29676190D01*
X42652380Y-29676190D01*
X41652380Y-30152380D02*
X41652380Y-29152380D01*
X41319047Y-29866666D01*
X40985714Y-29152380D01*
X40985714Y-30152380D01*
X39747619Y-30152380D02*
X39747619Y-29152380D01*
X39366666Y-29152380D01*
X39271428Y-29200000D01*
X39223809Y-29247619D01*
X39176190Y-29342857D01*
X39176190Y-29485714D01*
X39223809Y-29580952D01*
X39271428Y-29628571D01*
X39366666Y-29676190D01*
X39747619Y-29676190D01*
X38176190Y-30057142D02*
X38223809Y-30104761D01*
X38366666Y-30152380D01*
X38461904Y-30152380D01*
X38604761Y-30104761D01*
X38700000Y-30009523D01*
X38747619Y-29914285D01*
X38795238Y-29723809D01*
X38795238Y-29580952D01*
X38747619Y-29390476D01*
X38700000Y-29295238D01*
X38604761Y-29200000D01*
X38461904Y-29152380D01*
X38366666Y-29152380D01*
X38223809Y-29200000D01*
X38176190Y-29247619D01*
X37414285Y-29628571D02*
X37271428Y-29676190D01*
X37223809Y-29723809D01*
X37176190Y-29819047D01*
X37176190Y-29961904D01*
X37223809Y-30057142D01*
X37271428Y-30104761D01*
X37366666Y-30152380D01*
X37747619Y-30152380D01*
X37747619Y-29152380D01*
X37414285Y-29152380D01*
X37319047Y-29200000D01*
X37271428Y-29247619D01*
X37223809Y-29342857D01*
X37223809Y-29438095D01*
X37271428Y-29533333D01*
X37319047Y-29580952D01*
X37414285Y-29628571D01*
X37747619Y-29628571D01*
X51961904Y-31802380D02*
X52295238Y-31326190D01*
X52533333Y-31802380D02*
X52533333Y-30802380D01*
X52152380Y-30802380D01*
X52057142Y-30850000D01*
X52009523Y-30897619D01*
X51961904Y-30992857D01*
X51961904Y-31135714D01*
X52009523Y-31230952D01*
X52057142Y-31278571D01*
X52152380Y-31326190D01*
X52533333Y-31326190D01*
X51533333Y-31278571D02*
X51200000Y-31278571D01*
X51057142Y-31802380D02*
X51533333Y-31802380D01*
X51533333Y-30802380D01*
X51057142Y-30802380D01*
X50771428Y-30802380D02*
X50438095Y-31802380D01*
X50104761Y-30802380D01*
X48485714Y-31802380D02*
X49057142Y-31802380D01*
X48771428Y-31802380D02*
X48771428Y-30802380D01*
X48866666Y-30945238D01*
X48961904Y-31040476D01*
X49057142Y-31088095D01*
X48057142Y-31707142D02*
X48009523Y-31754761D01*
X48057142Y-31802380D01*
X48104761Y-31754761D01*
X48057142Y-31707142D01*
X48057142Y-31802380D01*
X47057142Y-31802380D02*
X47628571Y-31802380D01*
X47342857Y-31802380D02*
X47342857Y-30802380D01*
X47438095Y-30945238D01*
X47533333Y-31040476D01*
X47628571Y-31088095D01*
X45580952Y-32183333D02*
X45628571Y-32135714D01*
X45723809Y-31992857D01*
X45771428Y-31897619D01*
X45819047Y-31754761D01*
X45866666Y-31516666D01*
X45866666Y-31326190D01*
X45819047Y-31088095D01*
X45771428Y-30945238D01*
X45723809Y-30850000D01*
X45628571Y-30707142D01*
X45580952Y-30659523D01*
X44771428Y-31754761D02*
X44866666Y-31802380D01*
X45057142Y-31802380D01*
X45152380Y-31754761D01*
X45200000Y-31707142D01*
X45247619Y-31611904D01*
X45247619Y-31326190D01*
X45200000Y-31230952D01*
X45152380Y-31183333D01*
X45057142Y-31135714D01*
X44866666Y-31135714D01*
X44771428Y-31183333D01*
X44438095Y-32183333D02*
X44390476Y-32135714D01*
X44295238Y-31992857D01*
X44247619Y-31897619D01*
X44200000Y-31754761D01*
X44152380Y-31516666D01*
X44152380Y-31326190D01*
X44200000Y-31088095D01*
X44247619Y-30945238D01*
X44295238Y-30850000D01*
X44390476Y-30707142D01*
X44438095Y-30659523D01*
X42961904Y-30897619D02*
X42914285Y-30850000D01*
X42819047Y-30802380D01*
X42580952Y-30802380D01*
X42485714Y-30850000D01*
X42438095Y-30897619D01*
X42390476Y-30992857D01*
X42390476Y-31088095D01*
X42438095Y-31230952D01*
X43009523Y-31802380D01*
X42390476Y-31802380D01*
X41771428Y-30802380D02*
X41676190Y-30802380D01*
X41580952Y-30850000D01*
X41533333Y-30897619D01*
X41485714Y-30992857D01*
X41438095Y-31183333D01*
X41438095Y-31421428D01*
X41485714Y-31611904D01*
X41533333Y-31707142D01*
X41580952Y-31754761D01*
X41676190Y-31802380D01*
X41771428Y-31802380D01*
X41866666Y-31754761D01*
X41914285Y-31707142D01*
X41961904Y-31611904D01*
X42009523Y-31421428D01*
X42009523Y-31183333D01*
X41961904Y-30992857D01*
X41914285Y-30897619D01*
X41866666Y-30850000D01*
X41771428Y-30802380D01*
X41057142Y-30897619D02*
X41009523Y-30850000D01*
X40914285Y-30802380D01*
X40676190Y-30802380D01*
X40580952Y-30850000D01*
X40533333Y-30897619D01*
X40485714Y-30992857D01*
X40485714Y-31088095D01*
X40533333Y-31230952D01*
X41104761Y-31802380D01*
X40485714Y-31802380D01*
X40152380Y-30802380D02*
X39533333Y-30802380D01*
X39866666Y-31183333D01*
X39723809Y-31183333D01*
X39628571Y-31230952D01*
X39580952Y-31278571D01*
X39533333Y-31373809D01*
X39533333Y-31611904D01*
X39580952Y-31707142D01*
X39628571Y-31754761D01*
X39723809Y-31802380D01*
X40009523Y-31802380D01*
X40104761Y-31754761D01*
X40152380Y-31707142D01*
X38342857Y-31278571D02*
X38009523Y-31278571D01*
X37866666Y-31802380D02*
X38342857Y-31802380D01*
X38342857Y-30802380D01*
X37866666Y-30802380D01*
X37438095Y-31802380D02*
X37438095Y-30802380D01*
X37438095Y-31278571D02*
X36866666Y-31278571D01*
X36866666Y-31802380D02*
X36866666Y-30802380D01*
X35819047Y-31707142D02*
X35866666Y-31754761D01*
X36009523Y-31802380D01*
X36104761Y-31802380D01*
X36247619Y-31754761D01*
X36342857Y-31659523D01*
X36390476Y-31564285D01*
X36438095Y-31373809D01*
X36438095Y-31230952D01*
X36390476Y-31040476D01*
X36342857Y-30945238D01*
X36247619Y-30850000D01*
X36104761Y-30802380D01*
X36009523Y-30802380D01*
X35866666Y-30850000D01*
X35819047Y-30897619D01*
D11*
%TO.C,J4*%
X27700000Y-28800000D03*
G36*
G01*
X25100000Y-29425001D02*
X25100000Y-28174999D01*
G75*
G02*
X25349999Y-27925000I249999J0D01*
G01*
X26050001Y-27925000D01*
G75*
G02*
X26300000Y-28174999I0J-249999D01*
G01*
X26300000Y-29425001D01*
G75*
G02*
X26050001Y-29675000I-249999J0D01*
G01*
X25349999Y-29675000D01*
G75*
G02*
X25100000Y-29425001I0J249999D01*
G01*
G37*
%TD*%
%TO.C,J3*%
X61600000Y-22700000D03*
G36*
G01*
X64200000Y-22074999D02*
X64200000Y-23325001D01*
G75*
G02*
X63950001Y-23575000I-249999J0D01*
G01*
X63249999Y-23575000D01*
G75*
G02*
X63000000Y-23325001I0J249999D01*
G01*
X63000000Y-22074999D01*
G75*
G02*
X63249999Y-21825000I249999J0D01*
G01*
X63950001Y-21825000D01*
G75*
G02*
X64200000Y-22074999I0J-249999D01*
G01*
G37*
%TD*%
D12*
%TO.C,J5*%
X33740000Y-29530000D03*
X33740000Y-30800000D03*
X32470000Y-29530000D03*
X32470000Y-30800000D03*
X31200000Y-29530000D03*
D13*
X31200000Y-30800000D03*
%TD*%
D14*
%TO.C,R7*%
X33500000Y-21500000D03*
D15*
X55500000Y-21500000D03*
%TD*%
D16*
%TO.C,H2*%
X22000000Y-26000000D03*
%TD*%
%TO.C,H1*%
X67000000Y-26000000D03*
%TD*%
D17*
X34450000Y-27150000D03*
X23700000Y-22400000D03*
X28100000Y-22800004D03*
X28099992Y-23565677D03*
X28100004Y-24400000D03*
X56100000Y-29550000D03*
X48400000Y-25625022D03*
X34500000Y-24800000D03*
X35100000Y-30900000D03*
X52100000Y-29600000D03*
X41500000Y-26200010D03*
X53500000Y-29600000D03*
X40089070Y-26185610D03*
M02*
