%TF.GenerationSoftware,KiCad,Pcbnew,(5.1.10-1-10_14)*%
%TF.CreationDate,2023-04-11T22:44:58+12:00*%
%TF.ProjectId,BMSladder,424d536c-6164-4646-9572-2e6b69636164,rev?*%
%TF.SameCoordinates,Original*%
%TF.FileFunction,Other,Fab,Top*%
%FSLAX46Y46*%
G04 Gerber Fmt 4.6, Leading zero omitted, Abs format (unit mm)*
G04 Created by KiCad (PCBNEW (5.1.10-1-10_14)) date 2023-04-11 22:44:58*
%MOMM*%
%LPD*%
G01*
G04 APERTURE LIST*
%ADD10C,0.100000*%
%ADD11C,0.150000*%
%ADD12C,0.060000*%
%ADD13C,0.075000*%
G04 APERTURE END LIST*
D10*
%TO.C,J2*%
X24100000Y-27025000D02*
X29100000Y-27025000D01*
X24100000Y-31275000D02*
X29100000Y-31275000D01*
X24100000Y-27025000D02*
X24100000Y-31275000D01*
X29100000Y-27025000D02*
X29100000Y-31275000D01*
X25100000Y-27025000D02*
X25600000Y-27732107D01*
X25600000Y-27732107D02*
X26100000Y-27025000D01*
%TO.C,J1*%
X65200000Y-24475000D02*
X60200000Y-24475000D01*
X65200000Y-20225000D02*
X60200000Y-20225000D01*
X65200000Y-24475000D02*
X65200000Y-20225000D01*
X60200000Y-24475000D02*
X60200000Y-20225000D01*
X64200000Y-24475000D02*
X63700000Y-23767893D01*
X63700000Y-23767893D02*
X63200000Y-24475000D01*
%TO.C,D1*%
X57500000Y-20500000D02*
X57500000Y-21800000D01*
X57500000Y-21800000D02*
X57800000Y-22100000D01*
X57800000Y-22100000D02*
X58300000Y-22100000D01*
X58300000Y-22100000D02*
X58300000Y-20500000D01*
X58300000Y-20500000D02*
X57500000Y-20500000D01*
%TO.C,R3*%
X50700000Y-30800000D02*
X50700000Y-31600000D01*
X50700000Y-31600000D02*
X49100000Y-31600000D01*
X49100000Y-31600000D02*
X49100000Y-30800000D01*
X49100000Y-30800000D02*
X50700000Y-30800000D01*
%TO.C,U2*%
X39725000Y-25500000D02*
X42650000Y-25500000D01*
X42650000Y-25500000D02*
X42650000Y-30400000D01*
X42650000Y-30400000D02*
X38750000Y-30400000D01*
X38750000Y-30400000D02*
X38750000Y-26475000D01*
X38750000Y-26475000D02*
X39725000Y-25500000D01*
%TO.C,J5*%
X31417500Y-31870000D02*
X30565000Y-31017500D01*
X34375000Y-31870000D02*
X31417500Y-31870000D01*
X34375000Y-28460000D02*
X34375000Y-31870000D01*
X30565000Y-28460000D02*
X34375000Y-28460000D01*
X30565000Y-31017500D02*
X30565000Y-28460000D01*
%TO.C,R7*%
X52840000Y-24500000D02*
X52840000Y-18500000D01*
X52840000Y-18500000D02*
X35840000Y-18500000D01*
X35840000Y-18500000D02*
X35840000Y-24500000D01*
X35840000Y-24500000D02*
X52840000Y-24500000D01*
X54500000Y-21500000D02*
X52840000Y-21500000D01*
X34180000Y-21500000D02*
X35840000Y-21500000D01*
%TO.C,U1*%
X45450000Y-30400000D02*
X47900000Y-30400000D01*
X44880000Y-29850000D02*
X44880000Y-29000000D01*
X45450000Y-30400000D02*
X44880000Y-29850000D01*
X44880000Y-29000000D02*
X47920000Y-29000000D01*
X47920000Y-30400000D02*
X47920000Y-29000000D01*
%TO.C,R13*%
X25000000Y-21200000D02*
X25000000Y-20400000D01*
X25000000Y-20400000D02*
X26600000Y-20400000D01*
X26600000Y-20400000D02*
X26600000Y-21200000D01*
X26600000Y-21200000D02*
X25000000Y-21200000D01*
%TO.C,R12*%
X22500000Y-22400000D02*
X21700000Y-22400000D01*
X21700000Y-22400000D02*
X21700000Y-20800000D01*
X21700000Y-20800000D02*
X22500000Y-20800000D01*
X22500000Y-20800000D02*
X22500000Y-22400000D01*
%TO.C,R11*%
X31100000Y-20400000D02*
X31100000Y-21200000D01*
X31100000Y-21200000D02*
X29500000Y-21200000D01*
X29500000Y-21200000D02*
X29500000Y-20400000D01*
X29500000Y-20400000D02*
X31100000Y-20400000D01*
%TO.C,R10*%
X32800000Y-25600000D02*
X32800000Y-26400000D01*
X32800000Y-26400000D02*
X31200000Y-26400000D01*
X31200000Y-26400000D02*
X31200000Y-25600000D01*
X31200000Y-25600000D02*
X32800000Y-25600000D01*
%TO.C,R9*%
X50700000Y-26900000D02*
X50700000Y-27700000D01*
X50700000Y-27700000D02*
X49100000Y-27700000D01*
X49100000Y-27700000D02*
X49100000Y-26900000D01*
X49100000Y-26900000D02*
X50700000Y-26900000D01*
%TO.C,R8*%
X54550000Y-26550000D02*
X55350000Y-26550000D01*
X55350000Y-26550000D02*
X55350000Y-28150000D01*
X55350000Y-28150000D02*
X54550000Y-28150000D01*
X54550000Y-28150000D02*
X54550000Y-26550000D01*
%TO.C,R6*%
X59900000Y-27500000D02*
X59900000Y-26700000D01*
X59900000Y-26700000D02*
X61500000Y-26700000D01*
X61500000Y-26700000D02*
X61500000Y-27500000D01*
X61500000Y-27500000D02*
X59900000Y-27500000D01*
%TO.C,R5*%
X56712500Y-24300000D02*
X56712500Y-23500000D01*
X56712500Y-23500000D02*
X58312500Y-23500000D01*
X58312500Y-23500000D02*
X58312500Y-24300000D01*
X58312500Y-24300000D02*
X56712500Y-24300000D01*
%TO.C,R4*%
X49100000Y-30100000D02*
X49100000Y-29300000D01*
X49100000Y-29300000D02*
X50700000Y-29300000D01*
X50700000Y-29300000D02*
X50700000Y-30100000D01*
X50700000Y-30100000D02*
X49100000Y-30100000D01*
%TO.C,R2*%
X47200000Y-25600000D02*
X47200000Y-26400000D01*
X47200000Y-26400000D02*
X45600000Y-26400000D01*
X45600000Y-26400000D02*
X45600000Y-25600000D01*
X45600000Y-25600000D02*
X47200000Y-25600000D01*
%TO.C,R1*%
X57200000Y-30800000D02*
X57200000Y-31600000D01*
X57200000Y-31600000D02*
X55600000Y-31600000D01*
X55600000Y-31600000D02*
X55600000Y-30800000D01*
X55600000Y-30800000D02*
X57200000Y-30800000D01*
%TO.C,Q3*%
X25200000Y-22550000D02*
X25200000Y-25000000D01*
X25750000Y-21980000D02*
X26600000Y-21980000D01*
X25200000Y-22550000D02*
X25750000Y-21980000D01*
X26600000Y-21980000D02*
X26600000Y-25020000D01*
X25200000Y-25020000D02*
X26600000Y-25020000D01*
%TO.C,Q2*%
X29600000Y-22550000D02*
X29600000Y-25000000D01*
X30150000Y-21980000D02*
X31000000Y-21980000D01*
X29600000Y-22550000D02*
X30150000Y-21980000D01*
X31000000Y-21980000D02*
X31000000Y-25020000D01*
X29600000Y-25020000D02*
X31000000Y-25020000D01*
%TO.C,Q1*%
X58550000Y-28125000D02*
X58550000Y-27275000D01*
X58050000Y-26775000D02*
X56350000Y-26775000D01*
X58550000Y-28125000D02*
X56350000Y-28125000D01*
X56350000Y-28125000D02*
X56350000Y-26775000D01*
X58550000Y-27275000D02*
X58050000Y-26775000D01*
%TO.C,D2*%
X51700000Y-26930000D02*
X51700000Y-27780000D01*
X52200000Y-28280000D02*
X53900000Y-28280000D01*
X51700000Y-26930000D02*
X53900000Y-26930000D01*
X53900000Y-26930000D02*
X53900000Y-28280000D01*
X51700000Y-27780000D02*
X52200000Y-28280000D01*
%TO.C,C1*%
X36100000Y-25600000D02*
X36100000Y-26400000D01*
X36100000Y-26400000D02*
X34500000Y-26400000D01*
X34500000Y-26400000D02*
X34500000Y-25600000D01*
X34500000Y-25600000D02*
X36100000Y-25600000D01*
%TD*%
%TO.C,J2*%
D11*
X26957142Y-41338095D02*
X27004761Y-41385714D01*
X27052380Y-41528571D01*
X27052380Y-41623809D01*
X27004761Y-41766666D01*
X26909523Y-41861904D01*
X26814285Y-41909523D01*
X26623809Y-41957142D01*
X26480952Y-41957142D01*
X26290476Y-41909523D01*
X26195238Y-41861904D01*
X26100000Y-41766666D01*
X26052380Y-41623809D01*
X26052380Y-41528571D01*
X26100000Y-41385714D01*
X26147619Y-41338095D01*
X27052380Y-40766666D02*
X27004761Y-40861904D01*
X26957142Y-40909523D01*
X26861904Y-40957142D01*
X26576190Y-40957142D01*
X26480952Y-40909523D01*
X26433333Y-40861904D01*
X26385714Y-40766666D01*
X26385714Y-40623809D01*
X26433333Y-40528571D01*
X26480952Y-40480952D01*
X26576190Y-40433333D01*
X26861904Y-40433333D01*
X26957142Y-40480952D01*
X27004761Y-40528571D01*
X27052380Y-40623809D01*
X27052380Y-40766666D01*
X26385714Y-40004761D02*
X27052380Y-40004761D01*
X26480952Y-40004761D02*
X26433333Y-39957142D01*
X26385714Y-39861904D01*
X26385714Y-39719047D01*
X26433333Y-39623809D01*
X26528571Y-39576190D01*
X27052380Y-39576190D01*
X26385714Y-39100000D02*
X27052380Y-39100000D01*
X26480952Y-39100000D02*
X26433333Y-39052380D01*
X26385714Y-38957142D01*
X26385714Y-38814285D01*
X26433333Y-38719047D01*
X26528571Y-38671428D01*
X27052380Y-38671428D01*
X27147619Y-38433333D02*
X27147619Y-37671428D01*
X26052380Y-37242857D02*
X26052380Y-37147619D01*
X26100000Y-37052380D01*
X26147619Y-37004761D01*
X26242857Y-36957142D01*
X26433333Y-36909523D01*
X26671428Y-36909523D01*
X26861904Y-36957142D01*
X26957142Y-37004761D01*
X27004761Y-37052380D01*
X27052380Y-37147619D01*
X27052380Y-37242857D01*
X27004761Y-37338095D01*
X26957142Y-37385714D01*
X26861904Y-37433333D01*
X26671428Y-37480952D01*
X26433333Y-37480952D01*
X26242857Y-37433333D01*
X26147619Y-37385714D01*
X26100000Y-37338095D01*
X26052380Y-37242857D01*
X27052380Y-35957142D02*
X27052380Y-36528571D01*
X27052380Y-36242857D02*
X26052380Y-36242857D01*
X26195238Y-36338095D01*
X26290476Y-36433333D01*
X26338095Y-36528571D01*
X27052380Y-35623809D02*
X26385714Y-35100000D01*
X26385714Y-35623809D02*
X27052380Y-35100000D01*
X26052380Y-34528571D02*
X26052380Y-34433333D01*
X26100000Y-34338095D01*
X26147619Y-34290476D01*
X26242857Y-34242857D01*
X26433333Y-34195238D01*
X26671428Y-34195238D01*
X26861904Y-34242857D01*
X26957142Y-34290476D01*
X27004761Y-34338095D01*
X27052380Y-34433333D01*
X27052380Y-34528571D01*
X27004761Y-34623809D01*
X26957142Y-34671428D01*
X26861904Y-34719047D01*
X26671428Y-34766666D01*
X26433333Y-34766666D01*
X26242857Y-34719047D01*
X26147619Y-34671428D01*
X26100000Y-34623809D01*
X26052380Y-34528571D01*
X26052380Y-33861904D02*
X26052380Y-33242857D01*
X26433333Y-33576190D01*
X26433333Y-33433333D01*
X26480952Y-33338095D01*
X26528571Y-33290476D01*
X26623809Y-33242857D01*
X26861904Y-33242857D01*
X26957142Y-33290476D01*
X27004761Y-33338095D01*
X27052380Y-33433333D01*
X27052380Y-33719047D01*
X27004761Y-33814285D01*
X26957142Y-33861904D01*
X26066666Y-28852380D02*
X26066666Y-29566666D01*
X26019047Y-29709523D01*
X25923809Y-29804761D01*
X25780952Y-29852380D01*
X25685714Y-29852380D01*
X26495238Y-28947619D02*
X26542857Y-28900000D01*
X26638095Y-28852380D01*
X26876190Y-28852380D01*
X26971428Y-28900000D01*
X27019047Y-28947619D01*
X27066666Y-29042857D01*
X27066666Y-29138095D01*
X27019047Y-29280952D01*
X26447619Y-29852380D01*
X27066666Y-29852380D01*
%TO.C,J1*%
X63057142Y-18438095D02*
X63104761Y-18485714D01*
X63152380Y-18628571D01*
X63152380Y-18723809D01*
X63104761Y-18866666D01*
X63009523Y-18961904D01*
X62914285Y-19009523D01*
X62723809Y-19057142D01*
X62580952Y-19057142D01*
X62390476Y-19009523D01*
X62295238Y-18961904D01*
X62200000Y-18866666D01*
X62152380Y-18723809D01*
X62152380Y-18628571D01*
X62200000Y-18485714D01*
X62247619Y-18438095D01*
X63152380Y-17866666D02*
X63104761Y-17961904D01*
X63057142Y-18009523D01*
X62961904Y-18057142D01*
X62676190Y-18057142D01*
X62580952Y-18009523D01*
X62533333Y-17961904D01*
X62485714Y-17866666D01*
X62485714Y-17723809D01*
X62533333Y-17628571D01*
X62580952Y-17580952D01*
X62676190Y-17533333D01*
X62961904Y-17533333D01*
X63057142Y-17580952D01*
X63104761Y-17628571D01*
X63152380Y-17723809D01*
X63152380Y-17866666D01*
X62485714Y-17104761D02*
X63152380Y-17104761D01*
X62580952Y-17104761D02*
X62533333Y-17057142D01*
X62485714Y-16961904D01*
X62485714Y-16819047D01*
X62533333Y-16723809D01*
X62628571Y-16676190D01*
X63152380Y-16676190D01*
X62485714Y-16200000D02*
X63152380Y-16200000D01*
X62580952Y-16200000D02*
X62533333Y-16152380D01*
X62485714Y-16057142D01*
X62485714Y-15914285D01*
X62533333Y-15819047D01*
X62628571Y-15771428D01*
X63152380Y-15771428D01*
X63247619Y-15533333D02*
X63247619Y-14771428D01*
X62152380Y-14342857D02*
X62152380Y-14247619D01*
X62200000Y-14152380D01*
X62247619Y-14104761D01*
X62342857Y-14057142D01*
X62533333Y-14009523D01*
X62771428Y-14009523D01*
X62961904Y-14057142D01*
X63057142Y-14104761D01*
X63104761Y-14152380D01*
X63152380Y-14247619D01*
X63152380Y-14342857D01*
X63104761Y-14438095D01*
X63057142Y-14485714D01*
X62961904Y-14533333D01*
X62771428Y-14580952D01*
X62533333Y-14580952D01*
X62342857Y-14533333D01*
X62247619Y-14485714D01*
X62200000Y-14438095D01*
X62152380Y-14342857D01*
X63152380Y-13057142D02*
X63152380Y-13628571D01*
X63152380Y-13342857D02*
X62152380Y-13342857D01*
X62295238Y-13438095D01*
X62390476Y-13533333D01*
X62438095Y-13628571D01*
X63152380Y-12723809D02*
X62485714Y-12200000D01*
X62485714Y-12723809D02*
X63152380Y-12200000D01*
X62152380Y-11628571D02*
X62152380Y-11533333D01*
X62200000Y-11438095D01*
X62247619Y-11390476D01*
X62342857Y-11342857D01*
X62533333Y-11295238D01*
X62771428Y-11295238D01*
X62961904Y-11342857D01*
X63057142Y-11390476D01*
X63104761Y-11438095D01*
X63152380Y-11533333D01*
X63152380Y-11628571D01*
X63104761Y-11723809D01*
X63057142Y-11771428D01*
X62961904Y-11819047D01*
X62771428Y-11866666D01*
X62533333Y-11866666D01*
X62342857Y-11819047D01*
X62247619Y-11771428D01*
X62200000Y-11723809D01*
X62152380Y-11628571D01*
X62152380Y-10961904D02*
X62152380Y-10342857D01*
X62533333Y-10676190D01*
X62533333Y-10533333D01*
X62580952Y-10438095D01*
X62628571Y-10390476D01*
X62723809Y-10342857D01*
X62961904Y-10342857D01*
X63057142Y-10390476D01*
X63104761Y-10438095D01*
X63152380Y-10533333D01*
X63152380Y-10819047D01*
X63104761Y-10914285D01*
X63057142Y-10961904D01*
X62466666Y-21752380D02*
X62466666Y-22466666D01*
X62419047Y-22609523D01*
X62323809Y-22704761D01*
X62180952Y-22752380D01*
X62085714Y-22752380D01*
X63466666Y-22752380D02*
X62895238Y-22752380D01*
X63180952Y-22752380D02*
X63180952Y-21752380D01*
X63085714Y-21895238D01*
X62990476Y-21990476D01*
X62895238Y-22038095D01*
%TO.C,D1*%
X58352380Y-18509523D02*
X57876190Y-18842857D01*
X58352380Y-19080952D02*
X57352380Y-19080952D01*
X57352380Y-18700000D01*
X57400000Y-18604761D01*
X57447619Y-18557142D01*
X57542857Y-18509523D01*
X57685714Y-18509523D01*
X57780952Y-18557142D01*
X57828571Y-18604761D01*
X57876190Y-18700000D01*
X57876190Y-19080952D01*
X58304761Y-17700000D02*
X58352380Y-17795238D01*
X58352380Y-17985714D01*
X58304761Y-18080952D01*
X58209523Y-18128571D01*
X57828571Y-18128571D01*
X57733333Y-18080952D01*
X57685714Y-17985714D01*
X57685714Y-17795238D01*
X57733333Y-17700000D01*
X57828571Y-17652380D01*
X57923809Y-17652380D01*
X58019047Y-18128571D01*
X58352380Y-16795238D02*
X57352380Y-16795238D01*
X58304761Y-16795238D02*
X58352380Y-16890476D01*
X58352380Y-17080952D01*
X58304761Y-17176190D01*
X58257142Y-17223809D01*
X58161904Y-17271428D01*
X57876190Y-17271428D01*
X57780952Y-17223809D01*
X57733333Y-17176190D01*
X57685714Y-17080952D01*
X57685714Y-16890476D01*
X57733333Y-16795238D01*
X58352380Y-15080952D02*
X58352380Y-15557142D01*
X57352380Y-15557142D01*
X57828571Y-14747619D02*
X57828571Y-14414285D01*
X58352380Y-14271428D02*
X58352380Y-14747619D01*
X57352380Y-14747619D01*
X57352380Y-14271428D01*
X58352380Y-13842857D02*
X57352380Y-13842857D01*
X57352380Y-13604761D01*
X57400000Y-13461904D01*
X57495238Y-13366666D01*
X57590476Y-13319047D01*
X57780952Y-13271428D01*
X57923809Y-13271428D01*
X58114285Y-13319047D01*
X58209523Y-13366666D01*
X58304761Y-13461904D01*
X58352380Y-13604761D01*
X58352380Y-13842857D01*
D12*
X58080952Y-21595238D02*
X57680952Y-21595238D01*
X57680952Y-21500000D01*
X57700000Y-21442857D01*
X57738095Y-21404761D01*
X57776190Y-21385714D01*
X57852380Y-21366666D01*
X57909523Y-21366666D01*
X57985714Y-21385714D01*
X58023809Y-21404761D01*
X58061904Y-21442857D01*
X58080952Y-21500000D01*
X58080952Y-21595238D01*
X58080952Y-20985714D02*
X58080952Y-21214285D01*
X58080952Y-21100000D02*
X57680952Y-21100000D01*
X57738095Y-21138095D01*
X57776190Y-21176190D01*
X57795238Y-21214285D01*
%TO.C,R3*%
D11*
X48257142Y-32847619D02*
X48304761Y-32800000D01*
X48400000Y-32752380D01*
X48638095Y-32752380D01*
X48733333Y-32800000D01*
X48780952Y-32847619D01*
X48828571Y-32942857D01*
X48828571Y-33038095D01*
X48780952Y-33180952D01*
X48209523Y-33752380D01*
X48828571Y-33752380D01*
X49209523Y-32847619D02*
X49257142Y-32800000D01*
X49352380Y-32752380D01*
X49590476Y-32752380D01*
X49685714Y-32800000D01*
X49733333Y-32847619D01*
X49780952Y-32942857D01*
X49780952Y-33038095D01*
X49733333Y-33180952D01*
X49161904Y-33752380D01*
X49780952Y-33752380D01*
X50400000Y-32752380D02*
X50495238Y-32752380D01*
X50590476Y-32800000D01*
X50638095Y-32847619D01*
X50685714Y-32942857D01*
X50733333Y-33133333D01*
X50733333Y-33371428D01*
X50685714Y-33561904D01*
X50638095Y-33657142D01*
X50590476Y-33704761D01*
X50495238Y-33752380D01*
X50400000Y-33752380D01*
X50304761Y-33704761D01*
X50257142Y-33657142D01*
X50209523Y-33561904D01*
X50161904Y-33371428D01*
X50161904Y-33133333D01*
X50209523Y-32942857D01*
X50257142Y-32847619D01*
X50304761Y-32800000D01*
X50400000Y-32752380D01*
X51161904Y-33752380D02*
X51161904Y-32752380D01*
X51257142Y-33371428D02*
X51542857Y-33752380D01*
X51542857Y-33085714D02*
X51161904Y-33466666D01*
D12*
X49833333Y-31380952D02*
X49700000Y-31190476D01*
X49604761Y-31380952D02*
X49604761Y-30980952D01*
X49757142Y-30980952D01*
X49795238Y-31000000D01*
X49814285Y-31019047D01*
X49833333Y-31057142D01*
X49833333Y-31114285D01*
X49814285Y-31152380D01*
X49795238Y-31171428D01*
X49757142Y-31190476D01*
X49604761Y-31190476D01*
X49966666Y-30980952D02*
X50214285Y-30980952D01*
X50080952Y-31133333D01*
X50138095Y-31133333D01*
X50176190Y-31152380D01*
X50195238Y-31171428D01*
X50214285Y-31209523D01*
X50214285Y-31304761D01*
X50195238Y-31342857D01*
X50176190Y-31361904D01*
X50138095Y-31380952D01*
X50023809Y-31380952D01*
X49985714Y-31361904D01*
X49966666Y-31342857D01*
%TO.C,U2*%
D11*
X40866666Y-43076190D02*
X40866666Y-42600000D01*
X41152380Y-43171428D02*
X40152380Y-42838095D01*
X41152380Y-42504761D01*
X40152380Y-42314285D02*
X40152380Y-41742857D01*
X41152380Y-42028571D02*
X40152380Y-42028571D01*
X40485714Y-41552380D02*
X40485714Y-41171428D01*
X40152380Y-41409523D02*
X41009523Y-41409523D01*
X41104761Y-41361904D01*
X41152380Y-41266666D01*
X41152380Y-41171428D01*
X41152380Y-40838095D02*
X40485714Y-40838095D01*
X40152380Y-40838095D02*
X40200000Y-40885714D01*
X40247619Y-40838095D01*
X40200000Y-40790476D01*
X40152380Y-40838095D01*
X40247619Y-40838095D01*
X40485714Y-40361904D02*
X41152380Y-40361904D01*
X40580952Y-40361904D02*
X40533333Y-40314285D01*
X40485714Y-40219047D01*
X40485714Y-40076190D01*
X40533333Y-39980952D01*
X40628571Y-39933333D01*
X41152380Y-39933333D01*
X40485714Y-39552380D02*
X41152380Y-39314285D01*
X40485714Y-39076190D02*
X41152380Y-39314285D01*
X41390476Y-39409523D01*
X41438095Y-39457142D01*
X41485714Y-39552380D01*
X40247619Y-38742857D02*
X40200000Y-38695238D01*
X40152380Y-38600000D01*
X40152380Y-38361904D01*
X40200000Y-38266666D01*
X40247619Y-38219047D01*
X40342857Y-38171428D01*
X40438095Y-38171428D01*
X40580952Y-38219047D01*
X41152380Y-38790476D01*
X41152380Y-38171428D01*
X40152380Y-37552380D02*
X40152380Y-37457142D01*
X40200000Y-37361904D01*
X40247619Y-37314285D01*
X40342857Y-37266666D01*
X40533333Y-37219047D01*
X40771428Y-37219047D01*
X40961904Y-37266666D01*
X41057142Y-37314285D01*
X41104761Y-37361904D01*
X41152380Y-37457142D01*
X41152380Y-37552380D01*
X41104761Y-37647619D01*
X41057142Y-37695238D01*
X40961904Y-37742857D01*
X40771428Y-37790476D01*
X40533333Y-37790476D01*
X40342857Y-37742857D01*
X40247619Y-37695238D01*
X40200000Y-37647619D01*
X40152380Y-37552380D01*
X40247619Y-36838095D02*
X40200000Y-36790476D01*
X40152380Y-36695238D01*
X40152380Y-36457142D01*
X40200000Y-36361904D01*
X40247619Y-36314285D01*
X40342857Y-36266666D01*
X40438095Y-36266666D01*
X40580952Y-36314285D01*
X41152380Y-36885714D01*
X41152380Y-36266666D01*
X40771428Y-35838095D02*
X40771428Y-35076190D01*
X41104761Y-34647619D02*
X41152380Y-34504761D01*
X41152380Y-34266666D01*
X41104761Y-34171428D01*
X41057142Y-34123809D01*
X40961904Y-34076190D01*
X40866666Y-34076190D01*
X40771428Y-34123809D01*
X40723809Y-34171428D01*
X40676190Y-34266666D01*
X40628571Y-34457142D01*
X40580952Y-34552380D01*
X40533333Y-34600000D01*
X40438095Y-34647619D01*
X40342857Y-34647619D01*
X40247619Y-34600000D01*
X40200000Y-34552380D01*
X40152380Y-34457142D01*
X40152380Y-34219047D01*
X40200000Y-34076190D01*
X41104761Y-33695238D02*
X41152380Y-33552380D01*
X41152380Y-33314285D01*
X41104761Y-33219047D01*
X41057142Y-33171428D01*
X40961904Y-33123809D01*
X40866666Y-33123809D01*
X40771428Y-33171428D01*
X40723809Y-33219047D01*
X40676190Y-33314285D01*
X40628571Y-33504761D01*
X40580952Y-33600000D01*
X40533333Y-33647619D01*
X40438095Y-33695238D01*
X40342857Y-33695238D01*
X40247619Y-33647619D01*
X40200000Y-33600000D01*
X40152380Y-33504761D01*
X40152380Y-33266666D01*
X40200000Y-33123809D01*
X39953333Y-27413333D02*
X39953333Y-28206666D01*
X40000000Y-28300000D01*
X40046666Y-28346666D01*
X40140000Y-28393333D01*
X40326666Y-28393333D01*
X40420000Y-28346666D01*
X40466666Y-28300000D01*
X40513333Y-28206666D01*
X40513333Y-27413333D01*
X40933333Y-27506666D02*
X40980000Y-27460000D01*
X41073333Y-27413333D01*
X41306666Y-27413333D01*
X41400000Y-27460000D01*
X41446666Y-27506666D01*
X41493333Y-27600000D01*
X41493333Y-27693333D01*
X41446666Y-27833333D01*
X40886666Y-28393333D01*
X41493333Y-28393333D01*
%TO.C,J5*%
X32152380Y-40252380D02*
X32961904Y-40252380D01*
X33057142Y-40204761D01*
X33104761Y-40157142D01*
X33152380Y-40061904D01*
X33152380Y-39871428D01*
X33104761Y-39776190D01*
X33057142Y-39728571D01*
X32961904Y-39680952D01*
X32152380Y-39680952D01*
X33152380Y-39204761D02*
X32152380Y-39204761D01*
X32152380Y-38823809D01*
X32200000Y-38728571D01*
X32247619Y-38680952D01*
X32342857Y-38633333D01*
X32485714Y-38633333D01*
X32580952Y-38680952D01*
X32628571Y-38728571D01*
X32676190Y-38823809D01*
X32676190Y-39204761D01*
X33152380Y-38204761D02*
X32152380Y-38204761D01*
X32152380Y-37966666D01*
X32200000Y-37823809D01*
X32295238Y-37728571D01*
X32390476Y-37680952D01*
X32580952Y-37633333D01*
X32723809Y-37633333D01*
X32914285Y-37680952D01*
X33009523Y-37728571D01*
X33104761Y-37823809D01*
X33152380Y-37966666D01*
X33152380Y-38204761D01*
X33152380Y-37204761D02*
X32152380Y-37204761D01*
X33152380Y-35966666D02*
X32152380Y-35966666D01*
X32152380Y-35585714D01*
X32200000Y-35490476D01*
X32247619Y-35442857D01*
X32342857Y-35395238D01*
X32485714Y-35395238D01*
X32580952Y-35442857D01*
X32628571Y-35490476D01*
X32676190Y-35585714D01*
X32676190Y-35966666D01*
X33152380Y-34823809D02*
X33104761Y-34919047D01*
X33057142Y-34966666D01*
X32961904Y-35014285D01*
X32676190Y-35014285D01*
X32580952Y-34966666D01*
X32533333Y-34919047D01*
X32485714Y-34823809D01*
X32485714Y-34680952D01*
X32533333Y-34585714D01*
X32580952Y-34538095D01*
X32676190Y-34490476D01*
X32961904Y-34490476D01*
X33057142Y-34538095D01*
X33104761Y-34585714D01*
X33152380Y-34680952D01*
X33152380Y-34823809D01*
X33152380Y-34061904D02*
X32485714Y-34061904D01*
X32676190Y-34061904D02*
X32580952Y-34014285D01*
X32533333Y-33966666D01*
X32485714Y-33871428D01*
X32485714Y-33776190D01*
X32485714Y-33585714D02*
X32485714Y-33204761D01*
X32152380Y-33442857D02*
X33009523Y-33442857D01*
X33104761Y-33395238D01*
X33152380Y-33300000D01*
X33152380Y-33204761D01*
X32166666Y-29652380D02*
X32166666Y-30366666D01*
X32119047Y-30509523D01*
X32023809Y-30604761D01*
X31880952Y-30652380D01*
X31785714Y-30652380D01*
X33119047Y-29652380D02*
X32642857Y-29652380D01*
X32595238Y-30128571D01*
X32642857Y-30080952D01*
X32738095Y-30033333D01*
X32976190Y-30033333D01*
X33071428Y-30080952D01*
X33119047Y-30128571D01*
X33166666Y-30223809D01*
X33166666Y-30461904D01*
X33119047Y-30557142D01*
X33071428Y-30604761D01*
X32976190Y-30652380D01*
X32738095Y-30652380D01*
X32642857Y-30604761D01*
X32595238Y-30557142D01*
%TO.C,R7*%
X43514285Y-22785714D02*
X43514285Y-23452380D01*
X43276190Y-22404761D02*
X43038095Y-23119047D01*
X43657142Y-23119047D01*
X44609523Y-23452380D02*
X44276190Y-22976190D01*
X44038095Y-23452380D02*
X44038095Y-22452380D01*
X44419047Y-22452380D01*
X44514285Y-22500000D01*
X44561904Y-22547619D01*
X44609523Y-22642857D01*
X44609523Y-22785714D01*
X44561904Y-22880952D01*
X44514285Y-22928571D01*
X44419047Y-22976190D01*
X44038095Y-22976190D01*
X44942857Y-22452380D02*
X45609523Y-22452380D01*
X45180952Y-23452380D01*
X44173333Y-21952380D02*
X43840000Y-21476190D01*
X43601904Y-21952380D02*
X43601904Y-20952380D01*
X43982857Y-20952380D01*
X44078095Y-21000000D01*
X44125714Y-21047619D01*
X44173333Y-21142857D01*
X44173333Y-21285714D01*
X44125714Y-21380952D01*
X44078095Y-21428571D01*
X43982857Y-21476190D01*
X43601904Y-21476190D01*
X44506666Y-20952380D02*
X45173333Y-20952380D01*
X44744761Y-21952380D01*
%TO.C,H2*%
X20838095Y-31633333D02*
X20790476Y-31585714D01*
X20695238Y-31442857D01*
X20647619Y-31347619D01*
X20600000Y-31204761D01*
X20552380Y-30966666D01*
X20552380Y-30776190D01*
X20600000Y-30538095D01*
X20647619Y-30395238D01*
X20695238Y-30300000D01*
X20790476Y-30157142D01*
X20838095Y-30109523D01*
X21219047Y-30871428D02*
X21980952Y-30871428D01*
X22361904Y-31633333D02*
X22409523Y-31585714D01*
X22504761Y-31442857D01*
X22552380Y-31347619D01*
X22600000Y-31204761D01*
X22647619Y-30966666D01*
X22647619Y-30776190D01*
X22600000Y-30538095D01*
X22552380Y-30395238D01*
X22504761Y-30300000D01*
X22409523Y-30157142D01*
X22361904Y-30109523D01*
%TO.C,H1*%
X66438095Y-31633333D02*
X66390476Y-31585714D01*
X66295238Y-31442857D01*
X66247619Y-31347619D01*
X66200000Y-31204761D01*
X66152380Y-30966666D01*
X66152380Y-30776190D01*
X66200000Y-30538095D01*
X66247619Y-30395238D01*
X66295238Y-30300000D01*
X66390476Y-30157142D01*
X66438095Y-30109523D01*
X66819047Y-30871428D02*
X67580952Y-30871428D01*
X67200000Y-31252380D02*
X67200000Y-30490476D01*
X67961904Y-31633333D02*
X68009523Y-31585714D01*
X68104761Y-31442857D01*
X68152380Y-31347619D01*
X68200000Y-31204761D01*
X68247619Y-30966666D01*
X68247619Y-30776190D01*
X68200000Y-30538095D01*
X68152380Y-30395238D01*
X68104761Y-30300000D01*
X68009523Y-30157142D01*
X67961904Y-30109523D01*
%TO.C,U1*%
X46052380Y-40295238D02*
X46052380Y-39723809D01*
X47052380Y-40009523D02*
X46052380Y-40009523D01*
X47052380Y-38914285D02*
X47052380Y-39390476D01*
X46052380Y-39390476D01*
X46385714Y-38152380D02*
X47052380Y-38152380D01*
X46004761Y-38390476D02*
X46719047Y-38628571D01*
X46719047Y-38009523D01*
X46052380Y-37723809D02*
X46052380Y-37104761D01*
X46433333Y-37438095D01*
X46433333Y-37295238D01*
X46480952Y-37200000D01*
X46528571Y-37152380D01*
X46623809Y-37104761D01*
X46861904Y-37104761D01*
X46957142Y-37152380D01*
X47004761Y-37200000D01*
X47052380Y-37295238D01*
X47052380Y-37580952D01*
X47004761Y-37676190D01*
X46957142Y-37723809D01*
X47052380Y-36152380D02*
X47052380Y-36723809D01*
X47052380Y-36438095D02*
X46052380Y-36438095D01*
X46195238Y-36533333D01*
X46290476Y-36628571D01*
X46338095Y-36723809D01*
X47052380Y-35723809D02*
X46052380Y-35723809D01*
X46052380Y-35485714D01*
X46100000Y-35342857D01*
X46195238Y-35247619D01*
X46290476Y-35200000D01*
X46480952Y-35152380D01*
X46623809Y-35152380D01*
X46814285Y-35200000D01*
X46909523Y-35247619D01*
X47004761Y-35342857D01*
X47052380Y-35485714D01*
X47052380Y-35723809D01*
X46528571Y-34390476D02*
X46576190Y-34247619D01*
X46623809Y-34200000D01*
X46719047Y-34152380D01*
X46861904Y-34152380D01*
X46957142Y-34200000D01*
X47004761Y-34247619D01*
X47052380Y-34342857D01*
X47052380Y-34723809D01*
X46052380Y-34723809D01*
X46052380Y-34390476D01*
X46100000Y-34295238D01*
X46147619Y-34247619D01*
X46242857Y-34200000D01*
X46338095Y-34200000D01*
X46433333Y-34247619D01*
X46480952Y-34295238D01*
X46528571Y-34390476D01*
X46528571Y-34723809D01*
X46052380Y-33819047D02*
X46052380Y-33152380D01*
X47052380Y-33819047D01*
X47052380Y-33152380D01*
D13*
X46019047Y-29426190D02*
X46019047Y-29830952D01*
X46042857Y-29878571D01*
X46066666Y-29902380D01*
X46114285Y-29926190D01*
X46209523Y-29926190D01*
X46257142Y-29902380D01*
X46280952Y-29878571D01*
X46304761Y-29830952D01*
X46304761Y-29426190D01*
X46804761Y-29926190D02*
X46519047Y-29926190D01*
X46661904Y-29926190D02*
X46661904Y-29426190D01*
X46614285Y-29497619D01*
X46566666Y-29545238D01*
X46519047Y-29569047D01*
%TO.C,R13*%
D11*
X23147619Y-23142857D02*
X23100000Y-23095238D01*
X23052380Y-23000000D01*
X23052380Y-22761904D01*
X23100000Y-22666666D01*
X23147619Y-22619047D01*
X23242857Y-22571428D01*
X23338095Y-22571428D01*
X23480952Y-22619047D01*
X24052380Y-23190476D01*
X24052380Y-22571428D01*
X23052380Y-22238095D02*
X23052380Y-21571428D01*
X24052380Y-22000000D01*
X23052380Y-21000000D02*
X23052380Y-20904761D01*
X23100000Y-20809523D01*
X23147619Y-20761904D01*
X23242857Y-20714285D01*
X23433333Y-20666666D01*
X23671428Y-20666666D01*
X23861904Y-20714285D01*
X23957142Y-20761904D01*
X24004761Y-20809523D01*
X24052380Y-20904761D01*
X24052380Y-21000000D01*
X24004761Y-21095238D01*
X23957142Y-21142857D01*
X23861904Y-21190476D01*
X23671428Y-21238095D01*
X23433333Y-21238095D01*
X23242857Y-21190476D01*
X23147619Y-21142857D01*
X23100000Y-21095238D01*
X23052380Y-21000000D01*
X24052380Y-20238095D02*
X23052380Y-20238095D01*
X23671428Y-20142857D02*
X24052380Y-19857142D01*
X23385714Y-19857142D02*
X23766666Y-20238095D01*
D12*
X25542857Y-20980952D02*
X25409523Y-20790476D01*
X25314285Y-20980952D02*
X25314285Y-20580952D01*
X25466666Y-20580952D01*
X25504761Y-20600000D01*
X25523809Y-20619047D01*
X25542857Y-20657142D01*
X25542857Y-20714285D01*
X25523809Y-20752380D01*
X25504761Y-20771428D01*
X25466666Y-20790476D01*
X25314285Y-20790476D01*
X25923809Y-20980952D02*
X25695238Y-20980952D01*
X25809523Y-20980952D02*
X25809523Y-20580952D01*
X25771428Y-20638095D01*
X25733333Y-20676190D01*
X25695238Y-20695238D01*
X26057142Y-20580952D02*
X26304761Y-20580952D01*
X26171428Y-20733333D01*
X26228571Y-20733333D01*
X26266666Y-20752380D01*
X26285714Y-20771428D01*
X26304761Y-20809523D01*
X26304761Y-20904761D01*
X26285714Y-20942857D01*
X26266666Y-20961904D01*
X26228571Y-20980952D01*
X26114285Y-20980952D01*
X26076190Y-20961904D01*
X26057142Y-20942857D01*
%TO.C,R12*%
D11*
X21252380Y-22671428D02*
X21252380Y-23242857D01*
X21252380Y-22957142D02*
X20252380Y-22957142D01*
X20395238Y-23052380D01*
X20490476Y-23147619D01*
X20538095Y-23242857D01*
X20252380Y-21766666D02*
X20252380Y-22242857D01*
X20728571Y-22290476D01*
X20680952Y-22242857D01*
X20633333Y-22147619D01*
X20633333Y-21909523D01*
X20680952Y-21814285D01*
X20728571Y-21766666D01*
X20823809Y-21719047D01*
X21061904Y-21719047D01*
X21157142Y-21766666D01*
X21204761Y-21814285D01*
X21252380Y-21909523D01*
X21252380Y-22147619D01*
X21204761Y-22242857D01*
X21157142Y-22290476D01*
X20252380Y-21100000D02*
X20252380Y-21004761D01*
X20300000Y-20909523D01*
X20347619Y-20861904D01*
X20442857Y-20814285D01*
X20633333Y-20766666D01*
X20871428Y-20766666D01*
X21061904Y-20814285D01*
X21157142Y-20861904D01*
X21204761Y-20909523D01*
X21252380Y-21004761D01*
X21252380Y-21100000D01*
X21204761Y-21195238D01*
X21157142Y-21242857D01*
X21061904Y-21290476D01*
X20871428Y-21338095D01*
X20633333Y-21338095D01*
X20442857Y-21290476D01*
X20347619Y-21242857D01*
X20300000Y-21195238D01*
X20252380Y-21100000D01*
X21252380Y-20338095D02*
X20252380Y-20338095D01*
X20871428Y-20242857D02*
X21252380Y-19957142D01*
X20585714Y-19957142D02*
X20966666Y-20338095D01*
D12*
X22280952Y-21857142D02*
X22090476Y-21990476D01*
X22280952Y-22085714D02*
X21880952Y-22085714D01*
X21880952Y-21933333D01*
X21900000Y-21895238D01*
X21919047Y-21876190D01*
X21957142Y-21857142D01*
X22014285Y-21857142D01*
X22052380Y-21876190D01*
X22071428Y-21895238D01*
X22090476Y-21933333D01*
X22090476Y-22085714D01*
X22280952Y-21476190D02*
X22280952Y-21704761D01*
X22280952Y-21590476D02*
X21880952Y-21590476D01*
X21938095Y-21628571D01*
X21976190Y-21666666D01*
X21995238Y-21704761D01*
X21919047Y-21323809D02*
X21900000Y-21304761D01*
X21880952Y-21266666D01*
X21880952Y-21171428D01*
X21900000Y-21133333D01*
X21919047Y-21114285D01*
X21957142Y-21095238D01*
X21995238Y-21095238D01*
X22052380Y-21114285D01*
X22280952Y-21342857D01*
X22280952Y-21095238D01*
%TO.C,R11*%
D11*
X27547619Y-22842857D02*
X27500000Y-22795238D01*
X27452380Y-22700000D01*
X27452380Y-22461904D01*
X27500000Y-22366666D01*
X27547619Y-22319047D01*
X27642857Y-22271428D01*
X27738095Y-22271428D01*
X27880952Y-22319047D01*
X28452380Y-22890476D01*
X28452380Y-22271428D01*
X27547619Y-21890476D02*
X27500000Y-21842857D01*
X27452380Y-21747619D01*
X27452380Y-21509523D01*
X27500000Y-21414285D01*
X27547619Y-21366666D01*
X27642857Y-21319047D01*
X27738095Y-21319047D01*
X27880952Y-21366666D01*
X28452380Y-21938095D01*
X28452380Y-21319047D01*
X27452380Y-20700000D02*
X27452380Y-20604761D01*
X27500000Y-20509523D01*
X27547619Y-20461904D01*
X27642857Y-20414285D01*
X27833333Y-20366666D01*
X28071428Y-20366666D01*
X28261904Y-20414285D01*
X28357142Y-20461904D01*
X28404761Y-20509523D01*
X28452380Y-20604761D01*
X28452380Y-20700000D01*
X28404761Y-20795238D01*
X28357142Y-20842857D01*
X28261904Y-20890476D01*
X28071428Y-20938095D01*
X27833333Y-20938095D01*
X27642857Y-20890476D01*
X27547619Y-20842857D01*
X27500000Y-20795238D01*
X27452380Y-20700000D01*
X28452380Y-19938095D02*
X27452380Y-19938095D01*
X28071428Y-19842857D02*
X28452380Y-19557142D01*
X27785714Y-19557142D02*
X28166666Y-19938095D01*
D12*
X30042857Y-20980952D02*
X29909523Y-20790476D01*
X29814285Y-20980952D02*
X29814285Y-20580952D01*
X29966666Y-20580952D01*
X30004761Y-20600000D01*
X30023809Y-20619047D01*
X30042857Y-20657142D01*
X30042857Y-20714285D01*
X30023809Y-20752380D01*
X30004761Y-20771428D01*
X29966666Y-20790476D01*
X29814285Y-20790476D01*
X30423809Y-20980952D02*
X30195238Y-20980952D01*
X30309523Y-20980952D02*
X30309523Y-20580952D01*
X30271428Y-20638095D01*
X30233333Y-20676190D01*
X30195238Y-20695238D01*
X30804761Y-20980952D02*
X30576190Y-20980952D01*
X30690476Y-20980952D02*
X30690476Y-20580952D01*
X30652380Y-20638095D01*
X30614285Y-20676190D01*
X30576190Y-20695238D01*
%TO.C,R10*%
D11*
X30790476Y-26952380D02*
X31409523Y-26952380D01*
X31076190Y-27333333D01*
X31219047Y-27333333D01*
X31314285Y-27380952D01*
X31361904Y-27428571D01*
X31409523Y-27523809D01*
X31409523Y-27761904D01*
X31361904Y-27857142D01*
X31314285Y-27904761D01*
X31219047Y-27952380D01*
X30933333Y-27952380D01*
X30838095Y-27904761D01*
X30790476Y-27857142D01*
X31838095Y-27952380D02*
X31838095Y-26952380D01*
X32409523Y-27952380D02*
X31980952Y-27380952D01*
X32409523Y-26952380D02*
X31838095Y-27523809D01*
X32742857Y-26952380D02*
X33361904Y-26952380D01*
X33028571Y-27333333D01*
X33171428Y-27333333D01*
X33266666Y-27380952D01*
X33314285Y-27428571D01*
X33361904Y-27523809D01*
X33361904Y-27761904D01*
X33314285Y-27857142D01*
X33266666Y-27904761D01*
X33171428Y-27952380D01*
X32885714Y-27952380D01*
X32790476Y-27904761D01*
X32742857Y-27857142D01*
D12*
X31742857Y-26180952D02*
X31609523Y-25990476D01*
X31514285Y-26180952D02*
X31514285Y-25780952D01*
X31666666Y-25780952D01*
X31704761Y-25800000D01*
X31723809Y-25819047D01*
X31742857Y-25857142D01*
X31742857Y-25914285D01*
X31723809Y-25952380D01*
X31704761Y-25971428D01*
X31666666Y-25990476D01*
X31514285Y-25990476D01*
X32123809Y-26180952D02*
X31895238Y-26180952D01*
X32009523Y-26180952D02*
X32009523Y-25780952D01*
X31971428Y-25838095D01*
X31933333Y-25876190D01*
X31895238Y-25895238D01*
X32371428Y-25780952D02*
X32409523Y-25780952D01*
X32447619Y-25800000D01*
X32466666Y-25819047D01*
X32485714Y-25857142D01*
X32504761Y-25933333D01*
X32504761Y-26028571D01*
X32485714Y-26104761D01*
X32466666Y-26142857D01*
X32447619Y-26161904D01*
X32409523Y-26180952D01*
X32371428Y-26180952D01*
X32333333Y-26161904D01*
X32314285Y-26142857D01*
X32295238Y-26104761D01*
X32276190Y-26028571D01*
X32276190Y-25933333D01*
X32295238Y-25857142D01*
X32314285Y-25819047D01*
X32333333Y-25800000D01*
X32371428Y-25780952D01*
%TO.C,R9*%
D11*
X48257142Y-25417619D02*
X48304761Y-25370000D01*
X48400000Y-25322380D01*
X48638095Y-25322380D01*
X48733333Y-25370000D01*
X48780952Y-25417619D01*
X48828571Y-25512857D01*
X48828571Y-25608095D01*
X48780952Y-25750952D01*
X48209523Y-26322380D01*
X48828571Y-26322380D01*
X49209523Y-25417619D02*
X49257142Y-25370000D01*
X49352380Y-25322380D01*
X49590476Y-25322380D01*
X49685714Y-25370000D01*
X49733333Y-25417619D01*
X49780952Y-25512857D01*
X49780952Y-25608095D01*
X49733333Y-25750952D01*
X49161904Y-26322380D01*
X49780952Y-26322380D01*
X50400000Y-25322380D02*
X50495238Y-25322380D01*
X50590476Y-25370000D01*
X50638095Y-25417619D01*
X50685714Y-25512857D01*
X50733333Y-25703333D01*
X50733333Y-25941428D01*
X50685714Y-26131904D01*
X50638095Y-26227142D01*
X50590476Y-26274761D01*
X50495238Y-26322380D01*
X50400000Y-26322380D01*
X50304761Y-26274761D01*
X50257142Y-26227142D01*
X50209523Y-26131904D01*
X50161904Y-25941428D01*
X50161904Y-25703333D01*
X50209523Y-25512857D01*
X50257142Y-25417619D01*
X50304761Y-25370000D01*
X50400000Y-25322380D01*
X51161904Y-26322380D02*
X51161904Y-25322380D01*
X51257142Y-25941428D02*
X51542857Y-26322380D01*
X51542857Y-25655714D02*
X51161904Y-26036666D01*
D12*
X49833333Y-27480952D02*
X49700000Y-27290476D01*
X49604761Y-27480952D02*
X49604761Y-27080952D01*
X49757142Y-27080952D01*
X49795238Y-27100000D01*
X49814285Y-27119047D01*
X49833333Y-27157142D01*
X49833333Y-27214285D01*
X49814285Y-27252380D01*
X49795238Y-27271428D01*
X49757142Y-27290476D01*
X49604761Y-27290476D01*
X50023809Y-27480952D02*
X50100000Y-27480952D01*
X50138095Y-27461904D01*
X50157142Y-27442857D01*
X50195238Y-27385714D01*
X50214285Y-27309523D01*
X50214285Y-27157142D01*
X50195238Y-27119047D01*
X50176190Y-27100000D01*
X50138095Y-27080952D01*
X50061904Y-27080952D01*
X50023809Y-27100000D01*
X50004761Y-27119047D01*
X49985714Y-27157142D01*
X49985714Y-27252380D01*
X50004761Y-27290476D01*
X50023809Y-27309523D01*
X50061904Y-27328571D01*
X50138095Y-27328571D01*
X50176190Y-27309523D01*
X50195238Y-27290476D01*
X50214285Y-27252380D01*
%TO.C,R8*%
D11*
X53457142Y-24747619D02*
X53504761Y-24700000D01*
X53600000Y-24652380D01*
X53838095Y-24652380D01*
X53933333Y-24700000D01*
X53980952Y-24747619D01*
X54028571Y-24842857D01*
X54028571Y-24938095D01*
X53980952Y-25080952D01*
X53409523Y-25652380D01*
X54028571Y-25652380D01*
X54409523Y-24747619D02*
X54457142Y-24700000D01*
X54552380Y-24652380D01*
X54790476Y-24652380D01*
X54885714Y-24700000D01*
X54933333Y-24747619D01*
X54980952Y-24842857D01*
X54980952Y-24938095D01*
X54933333Y-25080952D01*
X54361904Y-25652380D01*
X54980952Y-25652380D01*
X55600000Y-24652380D02*
X55695238Y-24652380D01*
X55790476Y-24700000D01*
X55838095Y-24747619D01*
X55885714Y-24842857D01*
X55933333Y-25033333D01*
X55933333Y-25271428D01*
X55885714Y-25461904D01*
X55838095Y-25557142D01*
X55790476Y-25604761D01*
X55695238Y-25652380D01*
X55600000Y-25652380D01*
X55504761Y-25604761D01*
X55457142Y-25557142D01*
X55409523Y-25461904D01*
X55361904Y-25271428D01*
X55361904Y-25033333D01*
X55409523Y-24842857D01*
X55457142Y-24747619D01*
X55504761Y-24700000D01*
X55600000Y-24652380D01*
X56361904Y-25652380D02*
X56361904Y-24652380D01*
X56457142Y-25271428D02*
X56742857Y-25652380D01*
X56742857Y-24985714D02*
X56361904Y-25366666D01*
D12*
X55130952Y-27416666D02*
X54940476Y-27550000D01*
X55130952Y-27645238D02*
X54730952Y-27645238D01*
X54730952Y-27492857D01*
X54750000Y-27454761D01*
X54769047Y-27435714D01*
X54807142Y-27416666D01*
X54864285Y-27416666D01*
X54902380Y-27435714D01*
X54921428Y-27454761D01*
X54940476Y-27492857D01*
X54940476Y-27645238D01*
X54902380Y-27188095D02*
X54883333Y-27226190D01*
X54864285Y-27245238D01*
X54826190Y-27264285D01*
X54807142Y-27264285D01*
X54769047Y-27245238D01*
X54750000Y-27226190D01*
X54730952Y-27188095D01*
X54730952Y-27111904D01*
X54750000Y-27073809D01*
X54769047Y-27054761D01*
X54807142Y-27035714D01*
X54826190Y-27035714D01*
X54864285Y-27054761D01*
X54883333Y-27073809D01*
X54902380Y-27111904D01*
X54902380Y-27188095D01*
X54921428Y-27226190D01*
X54940476Y-27245238D01*
X54978571Y-27264285D01*
X55054761Y-27264285D01*
X55092857Y-27245238D01*
X55111904Y-27226190D01*
X55130952Y-27188095D01*
X55130952Y-27111904D01*
X55111904Y-27073809D01*
X55092857Y-27054761D01*
X55054761Y-27035714D01*
X54978571Y-27035714D01*
X54940476Y-27054761D01*
X54921428Y-27073809D01*
X54902380Y-27111904D01*
%TO.C,R6*%
D11*
X59628571Y-28982380D02*
X59057142Y-28982380D01*
X59342857Y-28982380D02*
X59342857Y-27982380D01*
X59247619Y-28125238D01*
X59152380Y-28220476D01*
X59057142Y-28268095D01*
X60533333Y-27982380D02*
X60057142Y-27982380D01*
X60009523Y-28458571D01*
X60057142Y-28410952D01*
X60152380Y-28363333D01*
X60390476Y-28363333D01*
X60485714Y-28410952D01*
X60533333Y-28458571D01*
X60580952Y-28553809D01*
X60580952Y-28791904D01*
X60533333Y-28887142D01*
X60485714Y-28934761D01*
X60390476Y-28982380D01*
X60152380Y-28982380D01*
X60057142Y-28934761D01*
X60009523Y-28887142D01*
X61200000Y-27982380D02*
X61295238Y-27982380D01*
X61390476Y-28030000D01*
X61438095Y-28077619D01*
X61485714Y-28172857D01*
X61533333Y-28363333D01*
X61533333Y-28601428D01*
X61485714Y-28791904D01*
X61438095Y-28887142D01*
X61390476Y-28934761D01*
X61295238Y-28982380D01*
X61200000Y-28982380D01*
X61104761Y-28934761D01*
X61057142Y-28887142D01*
X61009523Y-28791904D01*
X60961904Y-28601428D01*
X60961904Y-28363333D01*
X61009523Y-28172857D01*
X61057142Y-28077619D01*
X61104761Y-28030000D01*
X61200000Y-27982380D01*
X61961904Y-28982380D02*
X61961904Y-27982380D01*
X62057142Y-28601428D02*
X62342857Y-28982380D01*
X62342857Y-28315714D02*
X61961904Y-28696666D01*
D12*
X60633333Y-27280952D02*
X60500000Y-27090476D01*
X60404761Y-27280952D02*
X60404761Y-26880952D01*
X60557142Y-26880952D01*
X60595238Y-26900000D01*
X60614285Y-26919047D01*
X60633333Y-26957142D01*
X60633333Y-27014285D01*
X60614285Y-27052380D01*
X60595238Y-27071428D01*
X60557142Y-27090476D01*
X60404761Y-27090476D01*
X60976190Y-26880952D02*
X60900000Y-26880952D01*
X60861904Y-26900000D01*
X60842857Y-26919047D01*
X60804761Y-26976190D01*
X60785714Y-27052380D01*
X60785714Y-27204761D01*
X60804761Y-27242857D01*
X60823809Y-27261904D01*
X60861904Y-27280952D01*
X60938095Y-27280952D01*
X60976190Y-27261904D01*
X60995238Y-27242857D01*
X61014285Y-27204761D01*
X61014285Y-27109523D01*
X60995238Y-27071428D01*
X60976190Y-27052380D01*
X60938095Y-27033333D01*
X60861904Y-27033333D01*
X60823809Y-27052380D01*
X60804761Y-27071428D01*
X60785714Y-27109523D01*
%TO.C,R5*%
D11*
X53290476Y-23152380D02*
X53909523Y-23152380D01*
X53576190Y-23533333D01*
X53719047Y-23533333D01*
X53814285Y-23580952D01*
X53861904Y-23628571D01*
X53909523Y-23723809D01*
X53909523Y-23961904D01*
X53861904Y-24057142D01*
X53814285Y-24104761D01*
X53719047Y-24152380D01*
X53433333Y-24152380D01*
X53338095Y-24104761D01*
X53290476Y-24057142D01*
X54338095Y-24152380D02*
X54338095Y-23152380D01*
X54909523Y-24152380D02*
X54480952Y-23580952D01*
X54909523Y-23152380D02*
X54338095Y-23723809D01*
X55242857Y-23152380D02*
X55861904Y-23152380D01*
X55528571Y-23533333D01*
X55671428Y-23533333D01*
X55766666Y-23580952D01*
X55814285Y-23628571D01*
X55861904Y-23723809D01*
X55861904Y-23961904D01*
X55814285Y-24057142D01*
X55766666Y-24104761D01*
X55671428Y-24152380D01*
X55385714Y-24152380D01*
X55290476Y-24104761D01*
X55242857Y-24057142D01*
D12*
X57445833Y-24080952D02*
X57312500Y-23890476D01*
X57217261Y-24080952D02*
X57217261Y-23680952D01*
X57369642Y-23680952D01*
X57407738Y-23700000D01*
X57426785Y-23719047D01*
X57445833Y-23757142D01*
X57445833Y-23814285D01*
X57426785Y-23852380D01*
X57407738Y-23871428D01*
X57369642Y-23890476D01*
X57217261Y-23890476D01*
X57807738Y-23680952D02*
X57617261Y-23680952D01*
X57598214Y-23871428D01*
X57617261Y-23852380D01*
X57655357Y-23833333D01*
X57750595Y-23833333D01*
X57788690Y-23852380D01*
X57807738Y-23871428D01*
X57826785Y-23909523D01*
X57826785Y-24004761D01*
X57807738Y-24042857D01*
X57788690Y-24061904D01*
X57750595Y-24080952D01*
X57655357Y-24080952D01*
X57617261Y-24061904D01*
X57598214Y-24042857D01*
%TO.C,R4*%
D11*
X48590476Y-27952380D02*
X49209523Y-27952380D01*
X48876190Y-28333333D01*
X49019047Y-28333333D01*
X49114285Y-28380952D01*
X49161904Y-28428571D01*
X49209523Y-28523809D01*
X49209523Y-28761904D01*
X49161904Y-28857142D01*
X49114285Y-28904761D01*
X49019047Y-28952380D01*
X48733333Y-28952380D01*
X48638095Y-28904761D01*
X48590476Y-28857142D01*
X49638095Y-28952380D02*
X49638095Y-27952380D01*
X50209523Y-28952380D02*
X49780952Y-28380952D01*
X50209523Y-27952380D02*
X49638095Y-28523809D01*
X50542857Y-27952380D02*
X51161904Y-27952380D01*
X50828571Y-28333333D01*
X50971428Y-28333333D01*
X51066666Y-28380952D01*
X51114285Y-28428571D01*
X51161904Y-28523809D01*
X51161904Y-28761904D01*
X51114285Y-28857142D01*
X51066666Y-28904761D01*
X50971428Y-28952380D01*
X50685714Y-28952380D01*
X50590476Y-28904761D01*
X50542857Y-28857142D01*
D12*
X49833333Y-29880952D02*
X49700000Y-29690476D01*
X49604761Y-29880952D02*
X49604761Y-29480952D01*
X49757142Y-29480952D01*
X49795238Y-29500000D01*
X49814285Y-29519047D01*
X49833333Y-29557142D01*
X49833333Y-29614285D01*
X49814285Y-29652380D01*
X49795238Y-29671428D01*
X49757142Y-29690476D01*
X49604761Y-29690476D01*
X50176190Y-29614285D02*
X50176190Y-29880952D01*
X50080952Y-29461904D02*
X49985714Y-29747619D01*
X50233333Y-29747619D01*
%TO.C,R2*%
D11*
X45709523Y-27952380D02*
X45138095Y-27952380D01*
X45423809Y-27952380D02*
X45423809Y-26952380D01*
X45328571Y-27095238D01*
X45233333Y-27190476D01*
X45138095Y-27238095D01*
X46328571Y-26952380D02*
X46423809Y-26952380D01*
X46519047Y-27000000D01*
X46566666Y-27047619D01*
X46614285Y-27142857D01*
X46661904Y-27333333D01*
X46661904Y-27571428D01*
X46614285Y-27761904D01*
X46566666Y-27857142D01*
X46519047Y-27904761D01*
X46423809Y-27952380D01*
X46328571Y-27952380D01*
X46233333Y-27904761D01*
X46185714Y-27857142D01*
X46138095Y-27761904D01*
X46090476Y-27571428D01*
X46090476Y-27333333D01*
X46138095Y-27142857D01*
X46185714Y-27047619D01*
X46233333Y-27000000D01*
X46328571Y-26952380D01*
X47661904Y-27952380D02*
X47328571Y-27476190D01*
X47090476Y-27952380D02*
X47090476Y-26952380D01*
X47471428Y-26952380D01*
X47566666Y-27000000D01*
X47614285Y-27047619D01*
X47661904Y-27142857D01*
X47661904Y-27285714D01*
X47614285Y-27380952D01*
X47566666Y-27428571D01*
X47471428Y-27476190D01*
X47090476Y-27476190D01*
D12*
X46333333Y-26180952D02*
X46200000Y-25990476D01*
X46104761Y-26180952D02*
X46104761Y-25780952D01*
X46257142Y-25780952D01*
X46295238Y-25800000D01*
X46314285Y-25819047D01*
X46333333Y-25857142D01*
X46333333Y-25914285D01*
X46314285Y-25952380D01*
X46295238Y-25971428D01*
X46257142Y-25990476D01*
X46104761Y-25990476D01*
X46485714Y-25819047D02*
X46504761Y-25800000D01*
X46542857Y-25780952D01*
X46638095Y-25780952D01*
X46676190Y-25800000D01*
X46695238Y-25819047D01*
X46714285Y-25857142D01*
X46714285Y-25895238D01*
X46695238Y-25952380D01*
X46466666Y-26180952D01*
X46714285Y-26180952D01*
%TO.C,R1*%
D11*
X58728571Y-31752380D02*
X58157142Y-31752380D01*
X58442857Y-31752380D02*
X58442857Y-30752380D01*
X58347619Y-30895238D01*
X58252380Y-30990476D01*
X58157142Y-31038095D01*
X59633333Y-30752380D02*
X59157142Y-30752380D01*
X59109523Y-31228571D01*
X59157142Y-31180952D01*
X59252380Y-31133333D01*
X59490476Y-31133333D01*
X59585714Y-31180952D01*
X59633333Y-31228571D01*
X59680952Y-31323809D01*
X59680952Y-31561904D01*
X59633333Y-31657142D01*
X59585714Y-31704761D01*
X59490476Y-31752380D01*
X59252380Y-31752380D01*
X59157142Y-31704761D01*
X59109523Y-31657142D01*
X60300000Y-30752380D02*
X60395238Y-30752380D01*
X60490476Y-30800000D01*
X60538095Y-30847619D01*
X60585714Y-30942857D01*
X60633333Y-31133333D01*
X60633333Y-31371428D01*
X60585714Y-31561904D01*
X60538095Y-31657142D01*
X60490476Y-31704761D01*
X60395238Y-31752380D01*
X60300000Y-31752380D01*
X60204761Y-31704761D01*
X60157142Y-31657142D01*
X60109523Y-31561904D01*
X60061904Y-31371428D01*
X60061904Y-31133333D01*
X60109523Y-30942857D01*
X60157142Y-30847619D01*
X60204761Y-30800000D01*
X60300000Y-30752380D01*
X61061904Y-31752380D02*
X61061904Y-30752380D01*
X61157142Y-31371428D02*
X61442857Y-31752380D01*
X61442857Y-31085714D02*
X61061904Y-31466666D01*
D12*
X56333333Y-31380952D02*
X56200000Y-31190476D01*
X56104761Y-31380952D02*
X56104761Y-30980952D01*
X56257142Y-30980952D01*
X56295238Y-31000000D01*
X56314285Y-31019047D01*
X56333333Y-31057142D01*
X56333333Y-31114285D01*
X56314285Y-31152380D01*
X56295238Y-31171428D01*
X56257142Y-31190476D01*
X56104761Y-31190476D01*
X56714285Y-31380952D02*
X56485714Y-31380952D01*
X56600000Y-31380952D02*
X56600000Y-30980952D01*
X56561904Y-31038095D01*
X56523809Y-31076190D01*
X56485714Y-31095238D01*
%TO.C,Q3*%
D11*
X26652380Y-19090476D02*
X25652380Y-19090476D01*
X26366666Y-18757142D01*
X25652380Y-18423809D01*
X26652380Y-18423809D01*
X26652380Y-17947619D02*
X25652380Y-17947619D01*
X26366666Y-17614285D01*
X25652380Y-17280952D01*
X26652380Y-17280952D01*
X26128571Y-16471428D02*
X26176190Y-16328571D01*
X26223809Y-16280952D01*
X26319047Y-16233333D01*
X26461904Y-16233333D01*
X26557142Y-16280952D01*
X26604761Y-16328571D01*
X26652380Y-16423809D01*
X26652380Y-16804761D01*
X25652380Y-16804761D01*
X25652380Y-16471428D01*
X25700000Y-16376190D01*
X25747619Y-16328571D01*
X25842857Y-16280952D01*
X25938095Y-16280952D01*
X26033333Y-16328571D01*
X26080952Y-16376190D01*
X26128571Y-16471428D01*
X26128571Y-16804761D01*
X25652380Y-15947619D02*
X25652380Y-15376190D01*
X26652380Y-15661904D02*
X25652380Y-15661904D01*
X25652380Y-15138095D02*
X25652380Y-14519047D01*
X26033333Y-14852380D01*
X26033333Y-14709523D01*
X26080952Y-14614285D01*
X26128571Y-14566666D01*
X26223809Y-14519047D01*
X26461904Y-14519047D01*
X26557142Y-14566666D01*
X26604761Y-14614285D01*
X26652380Y-14709523D01*
X26652380Y-14995238D01*
X26604761Y-15090476D01*
X26557142Y-15138095D01*
X26652380Y-14042857D02*
X26652380Y-13852380D01*
X26604761Y-13757142D01*
X26557142Y-13709523D01*
X26414285Y-13614285D01*
X26223809Y-13566666D01*
X25842857Y-13566666D01*
X25747619Y-13614285D01*
X25700000Y-13661904D01*
X25652380Y-13757142D01*
X25652380Y-13947619D01*
X25700000Y-14042857D01*
X25747619Y-14090476D01*
X25842857Y-14138095D01*
X26080952Y-14138095D01*
X26176190Y-14090476D01*
X26223809Y-14042857D01*
X26271428Y-13947619D01*
X26271428Y-13757142D01*
X26223809Y-13661904D01*
X26176190Y-13614285D01*
X26080952Y-13566666D01*
X25652380Y-12947619D02*
X25652380Y-12852380D01*
X25700000Y-12757142D01*
X25747619Y-12709523D01*
X25842857Y-12661904D01*
X26033333Y-12614285D01*
X26271428Y-12614285D01*
X26461904Y-12661904D01*
X26557142Y-12709523D01*
X26604761Y-12757142D01*
X26652380Y-12852380D01*
X26652380Y-12947619D01*
X26604761Y-13042857D01*
X26557142Y-13090476D01*
X26461904Y-13138095D01*
X26271428Y-13185714D01*
X26033333Y-13185714D01*
X25842857Y-13138095D01*
X25747619Y-13090476D01*
X25700000Y-13042857D01*
X25652380Y-12947619D01*
X25985714Y-11757142D02*
X26652380Y-11757142D01*
X25604761Y-11995238D02*
X26319047Y-12233333D01*
X26319047Y-11614285D01*
D13*
X26173809Y-23547619D02*
X26150000Y-23595238D01*
X26102380Y-23642857D01*
X26030952Y-23714285D01*
X26007142Y-23761904D01*
X26007142Y-23809523D01*
X26126190Y-23785714D02*
X26102380Y-23833333D01*
X26054761Y-23880952D01*
X25959523Y-23904761D01*
X25792857Y-23904761D01*
X25697619Y-23880952D01*
X25650000Y-23833333D01*
X25626190Y-23785714D01*
X25626190Y-23690476D01*
X25650000Y-23642857D01*
X25697619Y-23595238D01*
X25792857Y-23571428D01*
X25959523Y-23571428D01*
X26054761Y-23595238D01*
X26102380Y-23642857D01*
X26126190Y-23690476D01*
X26126190Y-23785714D01*
X25626190Y-23404761D02*
X25626190Y-23095238D01*
X25816666Y-23261904D01*
X25816666Y-23190476D01*
X25840476Y-23142857D01*
X25864285Y-23119047D01*
X25911904Y-23095238D01*
X26030952Y-23095238D01*
X26078571Y-23119047D01*
X26102380Y-23142857D01*
X26126190Y-23190476D01*
X26126190Y-23333333D01*
X26102380Y-23380952D01*
X26078571Y-23404761D01*
%TO.C,Q2*%
D11*
X30604761Y-19128571D02*
X30652380Y-18985714D01*
X30652380Y-18747619D01*
X30604761Y-18652380D01*
X30557142Y-18604761D01*
X30461904Y-18557142D01*
X30366666Y-18557142D01*
X30271428Y-18604761D01*
X30223809Y-18652380D01*
X30176190Y-18747619D01*
X30128571Y-18938095D01*
X30080952Y-19033333D01*
X30033333Y-19080952D01*
X29938095Y-19128571D01*
X29842857Y-19128571D01*
X29747619Y-19080952D01*
X29700000Y-19033333D01*
X29652380Y-18938095D01*
X29652380Y-18700000D01*
X29700000Y-18557142D01*
X30652380Y-18128571D02*
X29652380Y-18128571D01*
X29652380Y-17747619D02*
X29652380Y-17128571D01*
X30033333Y-17461904D01*
X30033333Y-17319047D01*
X30080952Y-17223809D01*
X30128571Y-17176190D01*
X30223809Y-17128571D01*
X30461904Y-17128571D01*
X30557142Y-17176190D01*
X30604761Y-17223809D01*
X30652380Y-17319047D01*
X30652380Y-17604761D01*
X30604761Y-17700000D01*
X30557142Y-17747619D01*
X29985714Y-16271428D02*
X30652380Y-16271428D01*
X29604761Y-16509523D02*
X30319047Y-16747619D01*
X30319047Y-16128571D01*
X29652380Y-15557142D02*
X29652380Y-15461904D01*
X29700000Y-15366666D01*
X29747619Y-15319047D01*
X29842857Y-15271428D01*
X30033333Y-15223809D01*
X30271428Y-15223809D01*
X30461904Y-15271428D01*
X30557142Y-15319047D01*
X30604761Y-15366666D01*
X30652380Y-15461904D01*
X30652380Y-15557142D01*
X30604761Y-15652380D01*
X30557142Y-15700000D01*
X30461904Y-15747619D01*
X30271428Y-15795238D01*
X30033333Y-15795238D01*
X29842857Y-15747619D01*
X29747619Y-15700000D01*
X29700000Y-15652380D01*
X29652380Y-15557142D01*
X29747619Y-14842857D02*
X29700000Y-14795238D01*
X29652380Y-14700000D01*
X29652380Y-14461904D01*
X29700000Y-14366666D01*
X29747619Y-14319047D01*
X29842857Y-14271428D01*
X29938095Y-14271428D01*
X30080952Y-14319047D01*
X30652380Y-14890476D01*
X30652380Y-14271428D01*
X30271428Y-13842857D02*
X30271428Y-13080952D01*
X29652380Y-12747619D02*
X29652380Y-12176190D01*
X30652380Y-12461904D02*
X29652380Y-12461904D01*
X30652380Y-11842857D02*
X29652380Y-11842857D01*
X29652380Y-11461904D01*
X29700000Y-11366666D01*
X29747619Y-11319047D01*
X29842857Y-11271428D01*
X29985714Y-11271428D01*
X30080952Y-11319047D01*
X30128571Y-11366666D01*
X30176190Y-11461904D01*
X30176190Y-11842857D01*
D13*
X30573809Y-23547619D02*
X30550000Y-23595238D01*
X30502380Y-23642857D01*
X30430952Y-23714285D01*
X30407142Y-23761904D01*
X30407142Y-23809523D01*
X30526190Y-23785714D02*
X30502380Y-23833333D01*
X30454761Y-23880952D01*
X30359523Y-23904761D01*
X30192857Y-23904761D01*
X30097619Y-23880952D01*
X30050000Y-23833333D01*
X30026190Y-23785714D01*
X30026190Y-23690476D01*
X30050000Y-23642857D01*
X30097619Y-23595238D01*
X30192857Y-23571428D01*
X30359523Y-23571428D01*
X30454761Y-23595238D01*
X30502380Y-23642857D01*
X30526190Y-23690476D01*
X30526190Y-23785714D01*
X30073809Y-23380952D02*
X30050000Y-23357142D01*
X30026190Y-23309523D01*
X30026190Y-23190476D01*
X30050000Y-23142857D01*
X30073809Y-23119047D01*
X30121428Y-23095238D01*
X30169047Y-23095238D01*
X30240476Y-23119047D01*
X30526190Y-23404761D01*
X30526190Y-23095238D01*
%TO.C,Q1*%
D11*
X58052380Y-40790476D02*
X57052380Y-40790476D01*
X57766666Y-40457142D01*
X57052380Y-40123809D01*
X58052380Y-40123809D01*
X58052380Y-39647619D02*
X57052380Y-39647619D01*
X57766666Y-39314285D01*
X57052380Y-38980952D01*
X58052380Y-38980952D01*
X58052380Y-38504761D02*
X57052380Y-38504761D01*
X57052380Y-38266666D01*
X57100000Y-38123809D01*
X57195238Y-38028571D01*
X57290476Y-37980952D01*
X57480952Y-37933333D01*
X57623809Y-37933333D01*
X57814285Y-37980952D01*
X57909523Y-38028571D01*
X58004761Y-38123809D01*
X58052380Y-38266666D01*
X58052380Y-38504761D01*
X57052380Y-37647619D02*
X57052380Y-37076190D01*
X58052380Y-37361904D02*
X57052380Y-37361904D01*
X57052380Y-36838095D02*
X57052380Y-36219047D01*
X57433333Y-36552380D01*
X57433333Y-36409523D01*
X57480952Y-36314285D01*
X57528571Y-36266666D01*
X57623809Y-36219047D01*
X57861904Y-36219047D01*
X57957142Y-36266666D01*
X58004761Y-36314285D01*
X58052380Y-36409523D01*
X58052380Y-36695238D01*
X58004761Y-36790476D01*
X57957142Y-36838095D01*
X58052380Y-35742857D02*
X58052380Y-35552380D01*
X58004761Y-35457142D01*
X57957142Y-35409523D01*
X57814285Y-35314285D01*
X57623809Y-35266666D01*
X57242857Y-35266666D01*
X57147619Y-35314285D01*
X57100000Y-35361904D01*
X57052380Y-35457142D01*
X57052380Y-35647619D01*
X57100000Y-35742857D01*
X57147619Y-35790476D01*
X57242857Y-35838095D01*
X57480952Y-35838095D01*
X57576190Y-35790476D01*
X57623809Y-35742857D01*
X57671428Y-35647619D01*
X57671428Y-35457142D01*
X57623809Y-35361904D01*
X57576190Y-35314285D01*
X57480952Y-35266666D01*
X57385714Y-34409523D02*
X58052380Y-34409523D01*
X57004761Y-34647619D02*
X57719047Y-34885714D01*
X57719047Y-34266666D01*
X57052380Y-33457142D02*
X57052380Y-33647619D01*
X57100000Y-33742857D01*
X57147619Y-33790476D01*
X57290476Y-33885714D01*
X57480952Y-33933333D01*
X57861904Y-33933333D01*
X57957142Y-33885714D01*
X58004761Y-33838095D01*
X58052380Y-33742857D01*
X58052380Y-33552380D01*
X58004761Y-33457142D01*
X57957142Y-33409523D01*
X57861904Y-33361904D01*
X57623809Y-33361904D01*
X57528571Y-33409523D01*
X57480952Y-33457142D01*
X57433333Y-33552380D01*
X57433333Y-33742857D01*
X57480952Y-33838095D01*
X57528571Y-33885714D01*
X57623809Y-33933333D01*
D13*
X57402380Y-27723809D02*
X57354761Y-27700000D01*
X57307142Y-27652380D01*
X57235714Y-27580952D01*
X57188095Y-27557142D01*
X57140476Y-27557142D01*
X57164285Y-27676190D02*
X57116666Y-27652380D01*
X57069047Y-27604761D01*
X57045238Y-27509523D01*
X57045238Y-27342857D01*
X57069047Y-27247619D01*
X57116666Y-27200000D01*
X57164285Y-27176190D01*
X57259523Y-27176190D01*
X57307142Y-27200000D01*
X57354761Y-27247619D01*
X57378571Y-27342857D01*
X57378571Y-27509523D01*
X57354761Y-27604761D01*
X57307142Y-27652380D01*
X57259523Y-27676190D01*
X57164285Y-27676190D01*
X57854761Y-27676190D02*
X57569047Y-27676190D01*
X57711904Y-27676190D02*
X57711904Y-27176190D01*
X57664285Y-27247619D01*
X57616666Y-27295238D01*
X57569047Y-27319047D01*
%TO.C,D2*%
D11*
X53428571Y-38509523D02*
X53476190Y-38366666D01*
X53523809Y-38319047D01*
X53619047Y-38271428D01*
X53761904Y-38271428D01*
X53857142Y-38319047D01*
X53904761Y-38366666D01*
X53952380Y-38461904D01*
X53952380Y-38842857D01*
X52952380Y-38842857D01*
X52952380Y-38509523D01*
X53000000Y-38414285D01*
X53047619Y-38366666D01*
X53142857Y-38319047D01*
X53238095Y-38319047D01*
X53333333Y-38366666D01*
X53380952Y-38414285D01*
X53428571Y-38509523D01*
X53428571Y-38842857D01*
X53666666Y-37890476D02*
X53666666Y-37414285D01*
X53952380Y-37985714D02*
X52952380Y-37652380D01*
X53952380Y-37319047D01*
X52952380Y-37128571D02*
X53952380Y-36795238D01*
X52952380Y-36461904D01*
X53952380Y-36080952D02*
X53952380Y-35890476D01*
X53904761Y-35795238D01*
X53857142Y-35747619D01*
X53714285Y-35652380D01*
X53523809Y-35604761D01*
X53142857Y-35604761D01*
X53047619Y-35652380D01*
X53000000Y-35700000D01*
X52952380Y-35795238D01*
X52952380Y-35985714D01*
X53000000Y-36080952D01*
X53047619Y-36128571D01*
X53142857Y-36176190D01*
X53380952Y-36176190D01*
X53476190Y-36128571D01*
X53523809Y-36080952D01*
X53571428Y-35985714D01*
X53571428Y-35795238D01*
X53523809Y-35700000D01*
X53476190Y-35652380D01*
X53380952Y-35604761D01*
X53952380Y-35128571D02*
X53952380Y-34938095D01*
X53904761Y-34842857D01*
X53857142Y-34795238D01*
X53714285Y-34700000D01*
X53523809Y-34652380D01*
X53142857Y-34652380D01*
X53047619Y-34700000D01*
X53000000Y-34747619D01*
X52952380Y-34842857D01*
X52952380Y-35033333D01*
X53000000Y-35128571D01*
X53047619Y-35176190D01*
X53142857Y-35223809D01*
X53380952Y-35223809D01*
X53476190Y-35176190D01*
X53523809Y-35128571D01*
X53571428Y-35033333D01*
X53571428Y-34842857D01*
X53523809Y-34747619D01*
X53476190Y-34700000D01*
X53380952Y-34652380D01*
X52952380Y-34319047D02*
X53952380Y-34080952D01*
X53238095Y-33890476D01*
X53952380Y-33700000D01*
X52952380Y-33461904D01*
D13*
X52430952Y-27826190D02*
X52430952Y-27326190D01*
X52550000Y-27326190D01*
X52621428Y-27350000D01*
X52669047Y-27397619D01*
X52692857Y-27445238D01*
X52716666Y-27540476D01*
X52716666Y-27611904D01*
X52692857Y-27707142D01*
X52669047Y-27754761D01*
X52621428Y-27802380D01*
X52550000Y-27826190D01*
X52430952Y-27826190D01*
X52907142Y-27373809D02*
X52930952Y-27350000D01*
X52978571Y-27326190D01*
X53097619Y-27326190D01*
X53145238Y-27350000D01*
X53169047Y-27373809D01*
X53192857Y-27421428D01*
X53192857Y-27469047D01*
X53169047Y-27540476D01*
X52883333Y-27826190D01*
X53192857Y-27826190D01*
%TO.C,C1*%
D11*
X35133333Y-27952380D02*
X34561904Y-27952380D01*
X34847619Y-27952380D02*
X34847619Y-26952380D01*
X34752380Y-27095238D01*
X34657142Y-27190476D01*
X34561904Y-27238095D01*
X35990476Y-27285714D02*
X35990476Y-27952380D01*
X35561904Y-27285714D02*
X35561904Y-27809523D01*
X35609523Y-27904761D01*
X35704761Y-27952380D01*
X35847619Y-27952380D01*
X35942857Y-27904761D01*
X35990476Y-27857142D01*
D12*
X35233333Y-26142857D02*
X35214285Y-26161904D01*
X35157142Y-26180952D01*
X35119047Y-26180952D01*
X35061904Y-26161904D01*
X35023809Y-26123809D01*
X35004761Y-26085714D01*
X34985714Y-26009523D01*
X34985714Y-25952380D01*
X35004761Y-25876190D01*
X35023809Y-25838095D01*
X35061904Y-25800000D01*
X35119047Y-25780952D01*
X35157142Y-25780952D01*
X35214285Y-25800000D01*
X35233333Y-25819047D01*
X35614285Y-26180952D02*
X35385714Y-26180952D01*
X35500000Y-26180952D02*
X35500000Y-25780952D01*
X35461904Y-25838095D01*
X35423809Y-25876190D01*
X35385714Y-25895238D01*
%TD*%
M02*
