%TF.GenerationSoftware,KiCad,Pcbnew,(5.1.10-1-10_14)*%
%TF.CreationDate,2023-04-11T22:44:58+12:00*%
%TF.ProjectId,BMSladder,424d536c-6164-4646-9572-2e6b69636164,rev?*%
%TF.SameCoordinates,Original*%
%TF.FileFunction,Other,User*%
%FSLAX46Y46*%
G04 Gerber Fmt 4.6, Leading zero omitted, Abs format (unit mm)*
G04 Created by KiCad (PCBNEW (5.1.10-1-10_14)) date 2023-04-11 22:44:58*
%MOMM*%
%LPD*%
G01*
G04 APERTURE LIST*
%ADD10C,0.050000*%
G04 APERTURE END LIST*
D10*
%TO.C,J2*%
X23200000Y-25420000D02*
X23200000Y-31980000D01*
X23200000Y-31980000D02*
X30000000Y-31980000D01*
X30000000Y-31980000D02*
X30000000Y-25420000D01*
X30000000Y-25420000D02*
X23200000Y-25420000D01*
%TO.C,J1*%
X66100000Y-26080000D02*
X66100000Y-19520000D01*
X66100000Y-19520000D02*
X59300000Y-19520000D01*
X59300000Y-19520000D02*
X59300000Y-26080000D01*
X59300000Y-26080000D02*
X66100000Y-26080000D01*
%TO.C,D1*%
X58630000Y-22780000D02*
X57170000Y-22780000D01*
X57170000Y-22780000D02*
X57170000Y-19820000D01*
X57170000Y-19820000D02*
X58630000Y-19820000D01*
X58630000Y-19820000D02*
X58630000Y-22780000D01*
%TO.C,R3*%
X51380000Y-30470000D02*
X51380000Y-31930000D01*
X51380000Y-31930000D02*
X48420000Y-31930000D01*
X48420000Y-31930000D02*
X48420000Y-30470000D01*
X48420000Y-30470000D02*
X51380000Y-30470000D01*
%TO.C,U2*%
X37000000Y-25250000D02*
X37000000Y-30650000D01*
X37000000Y-30650000D02*
X44400000Y-30650000D01*
X44400000Y-30650000D02*
X44400000Y-25250000D01*
X44400000Y-25250000D02*
X37000000Y-25250000D01*
%TO.C,J5*%
X30050000Y-27950000D02*
X30050000Y-32400000D01*
X34900000Y-27950000D02*
X30050000Y-27950000D01*
X34900000Y-32400000D02*
X34900000Y-27950000D01*
X30050000Y-32400000D02*
X34900000Y-32400000D01*
%TO.C,R7*%
X55950000Y-24750000D02*
X55950000Y-18250000D01*
X55950000Y-18250000D02*
X32730000Y-18250000D01*
X32730000Y-18250000D02*
X32730000Y-24750000D01*
X32730000Y-24750000D02*
X55950000Y-24750000D01*
%TO.C,U1*%
X44650000Y-31400000D02*
X44650000Y-28000000D01*
X44650000Y-28000000D02*
X48150000Y-28000000D01*
X48150000Y-28000000D02*
X48150000Y-31400000D01*
X48150000Y-31400000D02*
X44650000Y-31400000D01*
%TO.C,R13*%
X24320000Y-21530000D02*
X24320000Y-20070000D01*
X24320000Y-20070000D02*
X27280000Y-20070000D01*
X27280000Y-20070000D02*
X27280000Y-21530000D01*
X27280000Y-21530000D02*
X24320000Y-21530000D01*
%TO.C,R12*%
X22830000Y-23080000D02*
X21370000Y-23080000D01*
X21370000Y-23080000D02*
X21370000Y-20120000D01*
X21370000Y-20120000D02*
X22830000Y-20120000D01*
X22830000Y-20120000D02*
X22830000Y-23080000D01*
%TO.C,R11*%
X31780000Y-20070000D02*
X31780000Y-21530000D01*
X31780000Y-21530000D02*
X28820000Y-21530000D01*
X28820000Y-21530000D02*
X28820000Y-20070000D01*
X28820000Y-20070000D02*
X31780000Y-20070000D01*
%TO.C,R10*%
X33480000Y-25270000D02*
X33480000Y-26730000D01*
X33480000Y-26730000D02*
X30520000Y-26730000D01*
X30520000Y-26730000D02*
X30520000Y-25270000D01*
X30520000Y-25270000D02*
X33480000Y-25270000D01*
%TO.C,R9*%
X51380000Y-26570000D02*
X51380000Y-28030000D01*
X51380000Y-28030000D02*
X48420000Y-28030000D01*
X48420000Y-28030000D02*
X48420000Y-26570000D01*
X48420000Y-26570000D02*
X51380000Y-26570000D01*
%TO.C,R8*%
X54220000Y-25870000D02*
X55680000Y-25870000D01*
X55680000Y-25870000D02*
X55680000Y-28830000D01*
X55680000Y-28830000D02*
X54220000Y-28830000D01*
X54220000Y-28830000D02*
X54220000Y-25870000D01*
%TO.C,R6*%
X59220000Y-27830000D02*
X59220000Y-26370000D01*
X59220000Y-26370000D02*
X62180000Y-26370000D01*
X62180000Y-26370000D02*
X62180000Y-27830000D01*
X62180000Y-27830000D02*
X59220000Y-27830000D01*
%TO.C,R5*%
X56032500Y-24630000D02*
X56032500Y-23170000D01*
X56032500Y-23170000D02*
X58992500Y-23170000D01*
X58992500Y-23170000D02*
X58992500Y-24630000D01*
X58992500Y-24630000D02*
X56032500Y-24630000D01*
%TO.C,R4*%
X48420000Y-30430000D02*
X48420000Y-28970000D01*
X48420000Y-28970000D02*
X51380000Y-28970000D01*
X51380000Y-28970000D02*
X51380000Y-30430000D01*
X51380000Y-30430000D02*
X48420000Y-30430000D01*
%TO.C,R2*%
X47880000Y-25270000D02*
X47880000Y-26730000D01*
X47880000Y-26730000D02*
X44920000Y-26730000D01*
X44920000Y-26730000D02*
X44920000Y-25270000D01*
X44920000Y-25270000D02*
X47880000Y-25270000D01*
%TO.C,R1*%
X57880000Y-30470000D02*
X57880000Y-31930000D01*
X57880000Y-31930000D02*
X54920000Y-31930000D01*
X54920000Y-31930000D02*
X54920000Y-30470000D01*
X54920000Y-30470000D02*
X57880000Y-30470000D01*
%TO.C,Q3*%
X24200000Y-21750000D02*
X27600000Y-21750000D01*
X27600000Y-21750000D02*
X27600000Y-25250000D01*
X27600000Y-25250000D02*
X24200000Y-25250000D01*
X24200000Y-25250000D02*
X24200000Y-21750000D01*
%TO.C,Q2*%
X28600000Y-21750000D02*
X32000000Y-21750000D01*
X32000000Y-21750000D02*
X32000000Y-25250000D01*
X32000000Y-25250000D02*
X28600000Y-25250000D01*
X28600000Y-25250000D02*
X28600000Y-21750000D01*
%TO.C,Q1*%
X56050000Y-29050000D02*
X58850000Y-29050000D01*
X58850000Y-25850000D02*
X56050000Y-25850000D01*
X58850000Y-25850000D02*
X58850000Y-29050000D01*
X56050000Y-25850000D02*
X56050000Y-29050000D01*
%TO.C,D2*%
X54100000Y-25900000D02*
X54100000Y-29300000D01*
X51500000Y-25900000D02*
X54100000Y-25900000D01*
X51500000Y-29300000D02*
X51500000Y-25900000D01*
X54100000Y-29300000D02*
X51500000Y-29300000D01*
%TO.C,C1*%
X36780000Y-25270000D02*
X36780000Y-26730000D01*
X36780000Y-26730000D02*
X33820000Y-26730000D01*
X33820000Y-26730000D02*
X33820000Y-25270000D01*
X33820000Y-25270000D02*
X36780000Y-25270000D01*
%TD*%
M02*
