M48
; DRILL file {KiCad (5.1.10-1-10_14)} date Tuesday, April 11, 2023 at 10:45:11 PM
; FORMAT={-:-/ absolute / metric / decimal}
; #@! TF.CreationDate,2023-04-11T22:45:11+12:00
; #@! TF.GenerationSoftware,Kicad,Pcbnew,(5.1.10-1-10_14)
; #@! TF.FileFunction,Plated,1,2,PTH
FMAT,2
METRIC
T1C0.400
T2C0.650
T3C0.750
T4C1.000
T5C1.200
%
G90
G05
T1
X23.7Y-22.4
X28.1Y-23.566
X28.1Y-22.8
X28.1Y-24.4
X34.45Y-27.15
X34.5Y-24.8
X35.1Y-30.9
X40.089Y-26.186
X41.5Y-26.2
X48.4Y-25.625
X52.1Y-29.6
X53.5Y-29.6
X56.1Y-29.55
T2
X31.2Y-29.53
X31.2Y-30.8
X32.47Y-29.53
X32.47Y-30.8
X33.74Y-29.53
X33.74Y-30.8
T3
X25.7Y-28.8
X27.7Y-28.8
X61.6Y-22.7
X63.6Y-22.7
T5
X33.5Y-21.5
X55.5Y-21.5
T4
G00X22.0Y-24.5
M15
G01X22.0Y-27.5
M16
G05
G00X67.0Y-24.5
M15
G01X67.0Y-27.5
M16
G05
T0
M30
