M48
; DRILL file {KiCad (5.1.10-1-10_14)} date Tuesday, November 16, 2021 at 09:19:22 PM
; FORMAT={-:-/ absolute / metric / decimal}
; #@! TF.CreationDate,2021-11-16T21:19:22+13:00
; #@! TF.GenerationSoftware,Kicad,Pcbnew,(5.1.10-1-10_14)
; #@! TF.FileFunction,Plated,1,2,PTH
FMAT,2
METRIC
T1C0.400
T2C0.650
T3C0.750
T4C0.900
T5C1.000
T6C1.200
%
G90
G05
T1
X30.65Y-26.7
X30.65Y-24.8
X30.65Y-25.75
X33.5Y-29.2
X38.5Y-25.85
X39.85Y-27.15
X40.84Y-30.745
X45.502Y-26.198
X46.75Y-26.2
X54.7Y-24.5
X57.5Y-29.1
X58.9Y-29.1
X61.5Y-29.35
X63.7Y-23.7
T2
X36.75Y-29.45
X36.75Y-30.72
X38.02Y-29.45
X38.02Y-30.72
X39.29Y-29.45
X39.29Y-30.72
T3
X25.6Y-24.2
X25.6Y-27.8
X27.6Y-24.2
X27.6Y-27.8
T4
X64.5Y-21.5
X64.5Y-30.5
X67.55Y-21.5
T5
X24.8Y-30.6
T6
X33.5Y-21.5
X55.5Y-21.5
T5
G00X22.0Y-24.5
M15
G01X22.0Y-27.5
M16
G05
G00X67.0Y-24.5
M15
G01X67.0Y-27.5
M16
G05
T0
M30
