%TF.GenerationSoftware,KiCad,Pcbnew,(5.1.10-1-10_14)*%
%TF.CreationDate,2021-11-16T21:19:30+13:00*%
%TF.ProjectId,BMSladder,424d536c-6164-4646-9572-2e6b69636164,rev?*%
%TF.SameCoordinates,Original*%
%TF.FileFunction,Copper,L1,Top*%
%TF.FilePolarity,Positive*%
%FSLAX46Y46*%
G04 Gerber Fmt 4.6, Leading zero omitted, Abs format (unit mm)*
G04 Created by KiCad (PCBNEW (5.1.10-1-10_14)) date 2021-11-16 21:19:30*
%MOMM*%
%LPD*%
G01*
G04 APERTURE LIST*
%TA.AperFunction,ComponentPad*%
%ADD10C,1.800000*%
%TD*%
%TA.AperFunction,ComponentPad*%
%ADD11O,1.200000X1.750000*%
%TD*%
%TA.AperFunction,ComponentPad*%
%ADD12O,1.000000X1.000000*%
%TD*%
%TA.AperFunction,ComponentPad*%
%ADD13R,1.000000X1.000000*%
%TD*%
%TA.AperFunction,ComponentPad*%
%ADD14O,2.400000X2.400000*%
%TD*%
%TA.AperFunction,ComponentPad*%
%ADD15C,2.400000*%
%TD*%
%TA.AperFunction,ComponentPad*%
%ADD16C,2.000000*%
%TD*%
%TA.AperFunction,ComponentPad*%
%ADD17O,2.500000X5.000000*%
%TD*%
%TA.AperFunction,SMDPad,CuDef*%
%ADD18R,0.800000X0.900000*%
%TD*%
%TA.AperFunction,SMDPad,CuDef*%
%ADD19R,0.900000X0.800000*%
%TD*%
%TA.AperFunction,SMDPad,CuDef*%
%ADD20R,0.400000X0.650000*%
%TD*%
%TA.AperFunction,SMDPad,CuDef*%
%ADD21R,0.450000X0.700000*%
%TD*%
%TA.AperFunction,ViaPad*%
%ADD22C,0.800000*%
%TD*%
%TA.AperFunction,Conductor*%
%ADD23C,0.300000*%
%TD*%
%TA.AperFunction,Conductor*%
%ADD24C,0.250000*%
%TD*%
%TA.AperFunction,Conductor*%
%ADD25C,0.800000*%
%TD*%
G04 APERTURE END LIST*
D10*
%TO.P,J7,1*%
%TO.N,Net-(D1-Pad2)*%
X67550000Y-21500000D03*
%TD*%
D11*
%TO.P,J6,2*%
%TO.N,Net-(J3-Pad2)*%
X27600000Y-24200000D03*
%TO.P,J6,1*%
%TO.N,Net-(J3-Pad1)*%
%TA.AperFunction,ComponentPad*%
G36*
G01*
X25000000Y-24825001D02*
X25000000Y-23574999D01*
G75*
G02*
X25249999Y-23325000I249999J0D01*
G01*
X25950001Y-23325000D01*
G75*
G02*
X26200000Y-23574999I0J-249999D01*
G01*
X26200000Y-24825001D01*
G75*
G02*
X25950001Y-25075000I-249999J0D01*
G01*
X25249999Y-25075000D01*
G75*
G02*
X25000000Y-24825001I0J249999D01*
G01*
G37*
%TD.AperFunction*%
%TD*%
%TO.P,J3,2*%
%TO.N,Net-(J3-Pad2)*%
X25600000Y-27800000D03*
%TO.P,J3,1*%
%TO.N,Net-(J3-Pad1)*%
%TA.AperFunction,ComponentPad*%
G36*
G01*
X28200000Y-27174999D02*
X28200000Y-28425001D01*
G75*
G02*
X27950001Y-28675000I-249999J0D01*
G01*
X27249999Y-28675000D01*
G75*
G02*
X27000000Y-28425001I0J249999D01*
G01*
X27000000Y-27174999D01*
G75*
G02*
X27249999Y-26925000I249999J0D01*
G01*
X27950001Y-26925000D01*
G75*
G02*
X28200000Y-27174999I0J-249999D01*
G01*
G37*
%TD.AperFunction*%
%TD*%
D10*
%TO.P,J1,1*%
%TO.N,Net-(J1-Pad1)*%
X64500000Y-21500000D03*
%TD*%
%TO.P,R3,2*%
%TO.N,/RX*%
%TA.AperFunction,SMDPad,CuDef*%
G36*
G01*
X54950000Y-30743750D02*
X54950000Y-31256250D01*
G75*
G02*
X54731250Y-31475000I-218750J0D01*
G01*
X54293750Y-31475000D01*
G75*
G02*
X54075000Y-31256250I0J218750D01*
G01*
X54075000Y-30743750D01*
G75*
G02*
X54293750Y-30525000I218750J0D01*
G01*
X54731250Y-30525000D01*
G75*
G02*
X54950000Y-30743750I0J-218750D01*
G01*
G37*
%TD.AperFunction*%
%TO.P,R3,1*%
%TO.N,Net-(D1-Pad2)*%
%TA.AperFunction,SMDPad,CuDef*%
G36*
G01*
X56525000Y-30743750D02*
X56525000Y-31256250D01*
G75*
G02*
X56306250Y-31475000I-218750J0D01*
G01*
X55868750Y-31475000D01*
G75*
G02*
X55650000Y-31256250I0J218750D01*
G01*
X55650000Y-30743750D01*
G75*
G02*
X55868750Y-30525000I218750J0D01*
G01*
X56306250Y-30525000D01*
G75*
G02*
X56525000Y-30743750I0J-218750D01*
G01*
G37*
%TD.AperFunction*%
%TD*%
%TO.P,U2,8*%
%TO.N,GND*%
%TA.AperFunction,SMDPad,CuDef*%
G36*
G01*
X47550000Y-26195000D02*
X47550000Y-25895000D01*
G75*
G02*
X47700000Y-25745000I150000J0D01*
G01*
X49350000Y-25745000D01*
G75*
G02*
X49500000Y-25895000I0J-150000D01*
G01*
X49500000Y-26195000D01*
G75*
G02*
X49350000Y-26345000I-150000J0D01*
G01*
X47700000Y-26345000D01*
G75*
G02*
X47550000Y-26195000I0J150000D01*
G01*
G37*
%TD.AperFunction*%
%TO.P,U2,7*%
%TO.N,/BAL*%
%TA.AperFunction,SMDPad,CuDef*%
G36*
G01*
X47550000Y-27465000D02*
X47550000Y-27165000D01*
G75*
G02*
X47700000Y-27015000I150000J0D01*
G01*
X49350000Y-27015000D01*
G75*
G02*
X49500000Y-27165000I0J-150000D01*
G01*
X49500000Y-27465000D01*
G75*
G02*
X49350000Y-27615000I-150000J0D01*
G01*
X47700000Y-27615000D01*
G75*
G02*
X47550000Y-27465000I0J150000D01*
G01*
G37*
%TD.AperFunction*%
%TO.P,U2,6*%
%TO.N,/FAULT_UPDI*%
%TA.AperFunction,SMDPad,CuDef*%
G36*
G01*
X47550000Y-28735000D02*
X47550000Y-28435000D01*
G75*
G02*
X47700000Y-28285000I150000J0D01*
G01*
X49350000Y-28285000D01*
G75*
G02*
X49500000Y-28435000I0J-150000D01*
G01*
X49500000Y-28735000D01*
G75*
G02*
X49350000Y-28885000I-150000J0D01*
G01*
X47700000Y-28885000D01*
G75*
G02*
X47550000Y-28735000I0J150000D01*
G01*
G37*
%TD.AperFunction*%
%TO.P,U2,5*%
%TO.N,/~EN*%
%TA.AperFunction,SMDPad,CuDef*%
G36*
G01*
X47550000Y-30005000D02*
X47550000Y-29705000D01*
G75*
G02*
X47700000Y-29555000I150000J0D01*
G01*
X49350000Y-29555000D01*
G75*
G02*
X49500000Y-29705000I0J-150000D01*
G01*
X49500000Y-30005000D01*
G75*
G02*
X49350000Y-30155000I-150000J0D01*
G01*
X47700000Y-30155000D01*
G75*
G02*
X47550000Y-30005000I0J150000D01*
G01*
G37*
%TD.AperFunction*%
%TO.P,U2,4*%
%TO.N,/2V5*%
%TA.AperFunction,SMDPad,CuDef*%
G36*
G01*
X42600000Y-30005000D02*
X42600000Y-29705000D01*
G75*
G02*
X42750000Y-29555000I150000J0D01*
G01*
X44400000Y-29555000D01*
G75*
G02*
X44550000Y-29705000I0J-150000D01*
G01*
X44550000Y-30005000D01*
G75*
G02*
X44400000Y-30155000I-150000J0D01*
G01*
X42750000Y-30155000D01*
G75*
G02*
X42600000Y-30005000I0J150000D01*
G01*
G37*
%TD.AperFunction*%
%TO.P,U2,3*%
%TO.N,/RX*%
%TA.AperFunction,SMDPad,CuDef*%
G36*
G01*
X42600000Y-28735000D02*
X42600000Y-28435000D01*
G75*
G02*
X42750000Y-28285000I150000J0D01*
G01*
X44400000Y-28285000D01*
G75*
G02*
X44550000Y-28435000I0J-150000D01*
G01*
X44550000Y-28735000D01*
G75*
G02*
X44400000Y-28885000I-150000J0D01*
G01*
X42750000Y-28885000D01*
G75*
G02*
X42600000Y-28735000I0J150000D01*
G01*
G37*
%TD.AperFunction*%
%TO.P,U2,2*%
%TO.N,/TX*%
%TA.AperFunction,SMDPad,CuDef*%
G36*
G01*
X42600000Y-27465000D02*
X42600000Y-27165000D01*
G75*
G02*
X42750000Y-27015000I150000J0D01*
G01*
X44400000Y-27015000D01*
G75*
G02*
X44550000Y-27165000I0J-150000D01*
G01*
X44550000Y-27465000D01*
G75*
G02*
X44400000Y-27615000I-150000J0D01*
G01*
X42750000Y-27615000D01*
G75*
G02*
X42600000Y-27465000I0J150000D01*
G01*
G37*
%TD.AperFunction*%
%TO.P,U2,1*%
%TO.N,/VCC*%
%TA.AperFunction,SMDPad,CuDef*%
G36*
G01*
X42600000Y-26195000D02*
X42600000Y-25895000D01*
G75*
G02*
X42750000Y-25745000I150000J0D01*
G01*
X44400000Y-25745000D01*
G75*
G02*
X44550000Y-25895000I0J-150000D01*
G01*
X44550000Y-26195000D01*
G75*
G02*
X44400000Y-26345000I-150000J0D01*
G01*
X42750000Y-26345000D01*
G75*
G02*
X42600000Y-26195000I0J150000D01*
G01*
G37*
%TD.AperFunction*%
%TD*%
D12*
%TO.P,J5,6*%
%TO.N,GND*%
X39290000Y-29450000D03*
%TO.P,J5,5*%
%TO.N,Net-(J5-Pad5)*%
X39290000Y-30720000D03*
%TO.P,J5,4*%
%TO.N,/TX*%
X38020000Y-29450000D03*
%TO.P,J5,3*%
%TO.N,/RX*%
X38020000Y-30720000D03*
%TO.P,J5,2*%
%TO.N,/VCC*%
X36750000Y-29450000D03*
D13*
%TO.P,J5,1*%
%TO.N,/FAULT_UPDI*%
X36750000Y-30720000D03*
%TD*%
D14*
%TO.P,R7,2*%
%TO.N,Net-(Q2-Pad3)*%
X33500000Y-21500000D03*
D15*
%TO.P,R7,1*%
%TO.N,Net-(D1-Pad2)*%
X55500000Y-21500000D03*
%TD*%
D16*
%TO.P,J4,1*%
%TO.N,Net-(J4-Pad1)*%
X24800000Y-30600000D03*
%TD*%
D17*
%TO.P,H2,1*%
%TO.N,GND*%
X22000000Y-26000000D03*
%TD*%
%TO.P,H1,1*%
%TO.N,Net-(D1-Pad2)*%
X67000000Y-26000000D03*
%TD*%
D18*
%TO.P,U1,3*%
%TO.N,/~EN*%
X51800000Y-28700000D03*
%TO.P,U1,2*%
%TO.N,/2V5*%
X52750000Y-30700000D03*
%TO.P,U1,1*%
X50850000Y-30700000D03*
%TD*%
%TO.P,R13,2*%
%TO.N,Net-(J4-Pad1)*%
%TA.AperFunction,SMDPad,CuDef*%
G36*
G01*
X21743750Y-30850000D02*
X22256250Y-30850000D01*
G75*
G02*
X22475000Y-31068750I0J-218750D01*
G01*
X22475000Y-31506250D01*
G75*
G02*
X22256250Y-31725000I-218750J0D01*
G01*
X21743750Y-31725000D01*
G75*
G02*
X21525000Y-31506250I0J218750D01*
G01*
X21525000Y-31068750D01*
G75*
G02*
X21743750Y-30850000I218750J0D01*
G01*
G37*
%TD.AperFunction*%
%TO.P,R13,1*%
%TO.N,GND*%
%TA.AperFunction,SMDPad,CuDef*%
G36*
G01*
X21743750Y-29275000D02*
X22256250Y-29275000D01*
G75*
G02*
X22475000Y-29493750I0J-218750D01*
G01*
X22475000Y-29931250D01*
G75*
G02*
X22256250Y-30150000I-218750J0D01*
G01*
X21743750Y-30150000D01*
G75*
G02*
X21525000Y-29931250I0J218750D01*
G01*
X21525000Y-29493750D01*
G75*
G02*
X21743750Y-29275000I218750J0D01*
G01*
G37*
%TD.AperFunction*%
%TD*%
%TO.P,R12,2*%
%TO.N,GND*%
%TA.AperFunction,SMDPad,CuDef*%
G36*
G01*
X31056250Y-29600000D02*
X30543750Y-29600000D01*
G75*
G02*
X30325000Y-29381250I0J218750D01*
G01*
X30325000Y-28943750D01*
G75*
G02*
X30543750Y-28725000I218750J0D01*
G01*
X31056250Y-28725000D01*
G75*
G02*
X31275000Y-28943750I0J-218750D01*
G01*
X31275000Y-29381250D01*
G75*
G02*
X31056250Y-29600000I-218750J0D01*
G01*
G37*
%TD.AperFunction*%
%TO.P,R12,1*%
%TO.N,Net-(J3-Pad1)*%
%TA.AperFunction,SMDPad,CuDef*%
G36*
G01*
X31056250Y-31175000D02*
X30543750Y-31175000D01*
G75*
G02*
X30325000Y-30956250I0J218750D01*
G01*
X30325000Y-30518750D01*
G75*
G02*
X30543750Y-30300000I218750J0D01*
G01*
X31056250Y-30300000D01*
G75*
G02*
X31275000Y-30518750I0J-218750D01*
G01*
X31275000Y-30956250D01*
G75*
G02*
X31056250Y-31175000I-218750J0D01*
G01*
G37*
%TD.AperFunction*%
%TD*%
%TO.P,R11,2*%
%TO.N,GND*%
%TA.AperFunction,SMDPad,CuDef*%
G36*
G01*
X32150000Y-27243750D02*
X32150000Y-27756250D01*
G75*
G02*
X31931250Y-27975000I-218750J0D01*
G01*
X31493750Y-27975000D01*
G75*
G02*
X31275000Y-27756250I0J218750D01*
G01*
X31275000Y-27243750D01*
G75*
G02*
X31493750Y-27025000I218750J0D01*
G01*
X31931250Y-27025000D01*
G75*
G02*
X32150000Y-27243750I0J-218750D01*
G01*
G37*
%TD.AperFunction*%
%TO.P,R11,1*%
%TO.N,Net-(Q2-Pad1)*%
%TA.AperFunction,SMDPad,CuDef*%
G36*
G01*
X33725000Y-27243750D02*
X33725000Y-27756250D01*
G75*
G02*
X33506250Y-27975000I-218750J0D01*
G01*
X33068750Y-27975000D01*
G75*
G02*
X32850000Y-27756250I0J218750D01*
G01*
X32850000Y-27243750D01*
G75*
G02*
X33068750Y-27025000I218750J0D01*
G01*
X33506250Y-27025000D01*
G75*
G02*
X33725000Y-27243750I0J-218750D01*
G01*
G37*
%TD.AperFunction*%
%TD*%
%TO.P,R10,2*%
%TO.N,Net-(Q2-Pad1)*%
%TA.AperFunction,SMDPad,CuDef*%
G36*
G01*
X36050000Y-25643750D02*
X36050000Y-26156250D01*
G75*
G02*
X35831250Y-26375000I-218750J0D01*
G01*
X35393750Y-26375000D01*
G75*
G02*
X35175000Y-26156250I0J218750D01*
G01*
X35175000Y-25643750D01*
G75*
G02*
X35393750Y-25425000I218750J0D01*
G01*
X35831250Y-25425000D01*
G75*
G02*
X36050000Y-25643750I0J-218750D01*
G01*
G37*
%TD.AperFunction*%
%TO.P,R10,1*%
%TO.N,/BAL*%
%TA.AperFunction,SMDPad,CuDef*%
G36*
G01*
X37625000Y-25643750D02*
X37625000Y-26156250D01*
G75*
G02*
X37406250Y-26375000I-218750J0D01*
G01*
X36968750Y-26375000D01*
G75*
G02*
X36750000Y-26156250I0J218750D01*
G01*
X36750000Y-25643750D01*
G75*
G02*
X36968750Y-25425000I218750J0D01*
G01*
X37406250Y-25425000D01*
G75*
G02*
X37625000Y-25643750I0J-218750D01*
G01*
G37*
%TD.AperFunction*%
%TD*%
%TO.P,R9,2*%
%TO.N,/FAULT_UPDI*%
%TA.AperFunction,SMDPad,CuDef*%
G36*
G01*
X54950000Y-26643750D02*
X54950000Y-27156250D01*
G75*
G02*
X54731250Y-27375000I-218750J0D01*
G01*
X54293750Y-27375000D01*
G75*
G02*
X54075000Y-27156250I0J218750D01*
G01*
X54075000Y-26643750D01*
G75*
G02*
X54293750Y-26425000I218750J0D01*
G01*
X54731250Y-26425000D01*
G75*
G02*
X54950000Y-26643750I0J-218750D01*
G01*
G37*
%TD.AperFunction*%
%TO.P,R9,1*%
%TO.N,Net-(D2-Pad3)*%
%TA.AperFunction,SMDPad,CuDef*%
G36*
G01*
X56525000Y-26643750D02*
X56525000Y-27156250D01*
G75*
G02*
X56306250Y-27375000I-218750J0D01*
G01*
X55868750Y-27375000D01*
G75*
G02*
X55650000Y-27156250I0J218750D01*
G01*
X55650000Y-26643750D01*
G75*
G02*
X55868750Y-26425000I218750J0D01*
G01*
X56306250Y-26425000D01*
G75*
G02*
X56525000Y-26643750I0J-218750D01*
G01*
G37*
%TD.AperFunction*%
%TD*%
%TO.P,R8,2*%
%TO.N,Net-(Q1-Pad2)*%
%TA.AperFunction,SMDPad,CuDef*%
G36*
G01*
X60093750Y-27500000D02*
X60606250Y-27500000D01*
G75*
G02*
X60825000Y-27718750I0J-218750D01*
G01*
X60825000Y-28156250D01*
G75*
G02*
X60606250Y-28375000I-218750J0D01*
G01*
X60093750Y-28375000D01*
G75*
G02*
X59875000Y-28156250I0J218750D01*
G01*
X59875000Y-27718750D01*
G75*
G02*
X60093750Y-27500000I218750J0D01*
G01*
G37*
%TD.AperFunction*%
%TO.P,R8,1*%
%TO.N,Net-(D2-Pad3)*%
%TA.AperFunction,SMDPad,CuDef*%
G36*
G01*
X60093750Y-25925000D02*
X60606250Y-25925000D01*
G75*
G02*
X60825000Y-26143750I0J-218750D01*
G01*
X60825000Y-26581250D01*
G75*
G02*
X60606250Y-26800000I-218750J0D01*
G01*
X60093750Y-26800000D01*
G75*
G02*
X59875000Y-26581250I0J218750D01*
G01*
X59875000Y-26143750D01*
G75*
G02*
X60093750Y-25925000I218750J0D01*
G01*
G37*
%TD.AperFunction*%
%TD*%
%TO.P,R6,2*%
%TO.N,Net-(J1-Pad1)*%
%TA.AperFunction,SMDPad,CuDef*%
G36*
G01*
X60450000Y-22356250D02*
X60450000Y-21843750D01*
G75*
G02*
X60668750Y-21625000I218750J0D01*
G01*
X61106250Y-21625000D01*
G75*
G02*
X61325000Y-21843750I0J-218750D01*
G01*
X61325000Y-22356250D01*
G75*
G02*
X61106250Y-22575000I-218750J0D01*
G01*
X60668750Y-22575000D01*
G75*
G02*
X60450000Y-22356250I0J218750D01*
G01*
G37*
%TD.AperFunction*%
%TO.P,R6,1*%
%TO.N,/TX*%
%TA.AperFunction,SMDPad,CuDef*%
G36*
G01*
X58875000Y-22356250D02*
X58875000Y-21843750D01*
G75*
G02*
X59093750Y-21625000I218750J0D01*
G01*
X59531250Y-21625000D01*
G75*
G02*
X59750000Y-21843750I0J-218750D01*
G01*
X59750000Y-22356250D01*
G75*
G02*
X59531250Y-22575000I-218750J0D01*
G01*
X59093750Y-22575000D01*
G75*
G02*
X58875000Y-22356250I0J218750D01*
G01*
G37*
%TD.AperFunction*%
%TD*%
%TO.P,R5,2*%
%TO.N,Net-(D1-Pad1)*%
%TA.AperFunction,SMDPad,CuDef*%
G36*
G01*
X58900000Y-23956250D02*
X58900000Y-23443750D01*
G75*
G02*
X59118750Y-23225000I218750J0D01*
G01*
X59556250Y-23225000D01*
G75*
G02*
X59775000Y-23443750I0J-218750D01*
G01*
X59775000Y-23956250D01*
G75*
G02*
X59556250Y-24175000I-218750J0D01*
G01*
X59118750Y-24175000D01*
G75*
G02*
X58900000Y-23956250I0J218750D01*
G01*
G37*
%TD.AperFunction*%
%TO.P,R5,1*%
%TO.N,/TX*%
%TA.AperFunction,SMDPad,CuDef*%
G36*
G01*
X57325000Y-23956250D02*
X57325000Y-23443750D01*
G75*
G02*
X57543750Y-23225000I218750J0D01*
G01*
X57981250Y-23225000D01*
G75*
G02*
X58200000Y-23443750I0J-218750D01*
G01*
X58200000Y-23956250D01*
G75*
G02*
X57981250Y-24175000I-218750J0D01*
G01*
X57543750Y-24175000D01*
G75*
G02*
X57325000Y-23956250I0J218750D01*
G01*
G37*
%TD.AperFunction*%
%TD*%
%TO.P,R4,2*%
%TO.N,Net-(D1-Pad2)*%
%TA.AperFunction,SMDPad,CuDef*%
G36*
G01*
X55650000Y-29756250D02*
X55650000Y-29243750D01*
G75*
G02*
X55868750Y-29025000I218750J0D01*
G01*
X56306250Y-29025000D01*
G75*
G02*
X56525000Y-29243750I0J-218750D01*
G01*
X56525000Y-29756250D01*
G75*
G02*
X56306250Y-29975000I-218750J0D01*
G01*
X55868750Y-29975000D01*
G75*
G02*
X55650000Y-29756250I0J218750D01*
G01*
G37*
%TD.AperFunction*%
%TO.P,R4,1*%
%TO.N,/2V5*%
%TA.AperFunction,SMDPad,CuDef*%
G36*
G01*
X54075000Y-29756250D02*
X54075000Y-29243750D01*
G75*
G02*
X54293750Y-29025000I218750J0D01*
G01*
X54731250Y-29025000D01*
G75*
G02*
X54950000Y-29243750I0J-218750D01*
G01*
X54950000Y-29756250D01*
G75*
G02*
X54731250Y-29975000I-218750J0D01*
G01*
X54293750Y-29975000D01*
G75*
G02*
X54075000Y-29756250I0J218750D01*
G01*
G37*
%TD.AperFunction*%
%TD*%
%TO.P,R2,2*%
%TO.N,/VCC*%
%TA.AperFunction,SMDPad,CuDef*%
G36*
G01*
X51150000Y-25743750D02*
X51150000Y-26256250D01*
G75*
G02*
X50931250Y-26475000I-218750J0D01*
G01*
X50493750Y-26475000D01*
G75*
G02*
X50275000Y-26256250I0J218750D01*
G01*
X50275000Y-25743750D01*
G75*
G02*
X50493750Y-25525000I218750J0D01*
G01*
X50931250Y-25525000D01*
G75*
G02*
X51150000Y-25743750I0J-218750D01*
G01*
G37*
%TD.AperFunction*%
%TO.P,R2,1*%
%TO.N,Net-(D1-Pad2)*%
%TA.AperFunction,SMDPad,CuDef*%
G36*
G01*
X52725000Y-25743750D02*
X52725000Y-26256250D01*
G75*
G02*
X52506250Y-26475000I-218750J0D01*
G01*
X52068750Y-26475000D01*
G75*
G02*
X51850000Y-26256250I0J218750D01*
G01*
X51850000Y-25743750D01*
G75*
G02*
X52068750Y-25525000I218750J0D01*
G01*
X52506250Y-25525000D01*
G75*
G02*
X52725000Y-25743750I0J-218750D01*
G01*
G37*
%TD.AperFunction*%
%TD*%
%TO.P,R1,2*%
%TO.N,Net-(D1-Pad2)*%
%TA.AperFunction,SMDPad,CuDef*%
G36*
G01*
X59350000Y-30743750D02*
X59350000Y-31256250D01*
G75*
G02*
X59131250Y-31475000I-218750J0D01*
G01*
X58693750Y-31475000D01*
G75*
G02*
X58475000Y-31256250I0J218750D01*
G01*
X58475000Y-30743750D01*
G75*
G02*
X58693750Y-30525000I218750J0D01*
G01*
X59131250Y-30525000D01*
G75*
G02*
X59350000Y-30743750I0J-218750D01*
G01*
G37*
%TD.AperFunction*%
%TO.P,R1,1*%
%TO.N,Net-(J3-Pad2)*%
%TA.AperFunction,SMDPad,CuDef*%
G36*
G01*
X60925000Y-30743750D02*
X60925000Y-31256250D01*
G75*
G02*
X60706250Y-31475000I-218750J0D01*
G01*
X60268750Y-31475000D01*
G75*
G02*
X60050000Y-31256250I0J218750D01*
G01*
X60050000Y-30743750D01*
G75*
G02*
X60268750Y-30525000I218750J0D01*
G01*
X60706250Y-30525000D01*
G75*
G02*
X60925000Y-30743750I0J-218750D01*
G01*
G37*
%TD.AperFunction*%
%TD*%
D19*
%TO.P,Q3,3*%
%TO.N,/RX*%
X34300000Y-30300000D03*
%TO.P,Q3,2*%
%TO.N,Net-(J3-Pad1)*%
X32300000Y-31250000D03*
%TO.P,Q3,1*%
%TO.N,GND*%
X32300000Y-29350000D03*
%TD*%
%TO.P,Q2,3*%
%TO.N,Net-(Q2-Pad3)*%
X33900000Y-24800000D03*
%TO.P,Q2,2*%
%TO.N,GND*%
X31900000Y-25750000D03*
%TO.P,Q2,1*%
%TO.N,Net-(Q2-Pad1)*%
X31900000Y-23850000D03*
%TD*%
D20*
%TO.P,Q1,6*%
%TO.N,Net-(J2-Pad1)*%
X63500000Y-28200000D03*
%TO.P,Q1,4*%
%TO.N,Net-(D1-Pad2)*%
X62200000Y-28200000D03*
%TO.P,Q1,2*%
%TO.N,Net-(Q1-Pad2)*%
X62850000Y-26300000D03*
%TO.P,Q1,5*%
%TO.N,Net-(J3-Pad2)*%
X62850000Y-28200000D03*
%TO.P,Q1,3*%
%TO.N,Net-(Q1-Pad2)*%
X62200000Y-26300000D03*
%TO.P,Q1,1*%
%TO.N,Net-(D2-Pad3)*%
X63500000Y-26300000D03*
%TD*%
D10*
%TO.P,J2,1*%
%TO.N,Net-(J2-Pad1)*%
X64500000Y-30500000D03*
%TD*%
D21*
%TO.P,D2,3*%
%TO.N,Net-(D2-Pad3)*%
X58200000Y-25900000D03*
%TO.P,D2,2*%
%TO.N,Net-(D1-Pad2)*%
X58850000Y-27900000D03*
%TO.P,D2,1*%
%TO.N,GND*%
X57550000Y-27900000D03*
%TD*%
%TO.P,D1,2*%
%TO.N,Net-(D1-Pad2)*%
%TA.AperFunction,SMDPad,CuDef*%
G36*
G01*
X62100000Y-23956250D02*
X62100000Y-23443750D01*
G75*
G02*
X62318750Y-23225000I218750J0D01*
G01*
X62756250Y-23225000D01*
G75*
G02*
X62975000Y-23443750I0J-218750D01*
G01*
X62975000Y-23956250D01*
G75*
G02*
X62756250Y-24175000I-218750J0D01*
G01*
X62318750Y-24175000D01*
G75*
G02*
X62100000Y-23956250I0J218750D01*
G01*
G37*
%TD.AperFunction*%
%TO.P,D1,1*%
%TO.N,Net-(D1-Pad1)*%
%TA.AperFunction,SMDPad,CuDef*%
G36*
G01*
X60525000Y-23956250D02*
X60525000Y-23443750D01*
G75*
G02*
X60743750Y-23225000I218750J0D01*
G01*
X61181250Y-23225000D01*
G75*
G02*
X61400000Y-23443750I0J-218750D01*
G01*
X61400000Y-23956250D01*
G75*
G02*
X61181250Y-24175000I-218750J0D01*
G01*
X60743750Y-24175000D01*
G75*
G02*
X60525000Y-23956250I0J218750D01*
G01*
G37*
%TD.AperFunction*%
%TD*%
%TO.P,C1,2*%
%TO.N,GND*%
%TA.AperFunction,SMDPad,CuDef*%
G36*
G01*
X40300000Y-25693750D02*
X40300000Y-26206250D01*
G75*
G02*
X40081250Y-26425000I-218750J0D01*
G01*
X39643750Y-26425000D01*
G75*
G02*
X39425000Y-26206250I0J218750D01*
G01*
X39425000Y-25693750D01*
G75*
G02*
X39643750Y-25475000I218750J0D01*
G01*
X40081250Y-25475000D01*
G75*
G02*
X40300000Y-25693750I0J-218750D01*
G01*
G37*
%TD.AperFunction*%
%TO.P,C1,1*%
%TO.N,/VCC*%
%TA.AperFunction,SMDPad,CuDef*%
G36*
G01*
X41875000Y-25693750D02*
X41875000Y-26206250D01*
G75*
G02*
X41656250Y-26425000I-218750J0D01*
G01*
X41218750Y-26425000D01*
G75*
G02*
X41000000Y-26206250I0J218750D01*
G01*
X41000000Y-25693750D01*
G75*
G02*
X41218750Y-25475000I218750J0D01*
G01*
X41656250Y-25475000D01*
G75*
G02*
X41875000Y-25693750I0J-218750D01*
G01*
G37*
%TD.AperFunction*%
%TD*%
D22*
%TO.N,GND*%
X39850000Y-27150000D03*
X57500000Y-29100000D03*
X46750000Y-26200010D03*
X33500000Y-29200006D03*
X30650035Y-25749987D03*
X30650035Y-24799963D03*
X30650000Y-26700000D03*
%TO.N,Net-(D1-Pad2)*%
X54700000Y-24499990D03*
X58900000Y-29100000D03*
X61500000Y-29350000D03*
X63700000Y-23700000D03*
%TO.N,/BAL*%
X45501730Y-26198270D03*
X38500000Y-25850000D03*
%TO.N,/FAULT_UPDI*%
X40840012Y-30744678D03*
%TD*%
D23*
%TO.N,*%
X64100000Y-26000000D02*
X65300000Y-26000000D01*
X64700000Y-25400000D02*
X64700000Y-26600000D01*
D24*
%TO.N,GND*%
X39862500Y-27137500D02*
X39850000Y-27150000D01*
X39862500Y-25950000D02*
X39862500Y-27137500D01*
X57550000Y-29050000D02*
X57500000Y-29100000D01*
X57550000Y-27900000D02*
X57550000Y-29050000D01*
X48525000Y-26045000D02*
X46905010Y-26045000D01*
X46905010Y-26045000D02*
X46750000Y-26200010D01*
X33350006Y-29350000D02*
X33500000Y-29200006D01*
X32300000Y-29350000D02*
X33350006Y-29350000D01*
X32112500Y-29162500D02*
X32300000Y-29350000D01*
X30800000Y-29162500D02*
X32112500Y-29162500D01*
X22000000Y-29712500D02*
X22000000Y-26000000D01*
X31712500Y-25937500D02*
X31900000Y-25750000D01*
X31712500Y-27500000D02*
X31712500Y-25937500D01*
D25*
X31900000Y-25750000D02*
X30650048Y-25750000D01*
X30650048Y-25750000D02*
X30650035Y-25749987D01*
X30650035Y-24799963D02*
X30650035Y-25749987D01*
X30650035Y-25749987D02*
X30650035Y-26699965D01*
X30650035Y-26699965D02*
X30650000Y-26700000D01*
D24*
%TO.N,/VCC*%
X41532500Y-26045000D02*
X41437500Y-25950000D01*
X43575000Y-26045000D02*
X41532500Y-26045000D01*
X41437500Y-26662500D02*
X41437500Y-25950000D01*
X40000000Y-28100000D02*
X41437500Y-26662500D01*
X38180000Y-28100000D02*
X40000000Y-28100000D01*
X36750000Y-29530000D02*
X38180000Y-28100000D01*
X50712500Y-25912500D02*
X50712500Y-26000000D01*
X50200000Y-25400000D02*
X50712500Y-25912500D01*
X43750000Y-25400000D02*
X50200000Y-25400000D01*
X43575000Y-25575000D02*
X43750000Y-25400000D01*
X43575000Y-26045000D02*
X43575000Y-25575000D01*
%TO.N,Net-(D1-Pad2)*%
X66750000Y-26000000D02*
X67000000Y-26000000D01*
X52287500Y-26000000D02*
X53199990Y-26000000D01*
X53199990Y-26000000D02*
X54700000Y-24499990D01*
X58850000Y-29050000D02*
X58900000Y-29100000D01*
X58850000Y-27900000D02*
X58850000Y-29050000D01*
X56087500Y-29500000D02*
X56826998Y-29500000D01*
X56826998Y-29500000D02*
X57151999Y-29825001D01*
X57200000Y-29873002D02*
X57151999Y-29825001D01*
X56800000Y-31000000D02*
X57200000Y-30600000D01*
X57200000Y-30600000D02*
X57200000Y-29873002D01*
X56087500Y-31000000D02*
X56800000Y-31000000D01*
X62200000Y-28650000D02*
X61500000Y-29350000D01*
X62200000Y-28200000D02*
X62200000Y-28650000D01*
X58900000Y-29825001D02*
X58900000Y-29100000D01*
X57151999Y-29825001D02*
X58900000Y-29825001D01*
X58912500Y-29837501D02*
X58900000Y-29825001D01*
X58912500Y-31000000D02*
X58912500Y-29837501D01*
X62537500Y-23700000D02*
X63700000Y-23700000D01*
%TO.N,Net-(D1-Pad1)*%
X59337500Y-23700000D02*
X60962500Y-23700000D01*
%TO.N,Net-(D2-Pad3)*%
X63500000Y-25550000D02*
X63050000Y-25100000D01*
X63050000Y-25100000D02*
X60350000Y-25100000D01*
X63500000Y-26300000D02*
X63500000Y-25550000D01*
X58800000Y-25900000D02*
X58200000Y-25900000D01*
X59600000Y-25100000D02*
X58800000Y-25900000D01*
X60350000Y-25100000D02*
X59600000Y-25100000D01*
X60350000Y-26362500D02*
X60350000Y-25100000D01*
X57087500Y-25900000D02*
X56087500Y-26900000D01*
X58200000Y-25900000D02*
X57087500Y-25900000D01*
%TO.N,Net-(J1-Pad1)*%
X60887500Y-22150000D02*
X60937500Y-22100000D01*
X62900000Y-21500000D02*
X62300000Y-22100000D01*
X64500000Y-21500000D02*
X62900000Y-21500000D01*
X60937500Y-22100000D02*
X62300000Y-22100000D01*
%TO.N,Net-(J2-Pad1)*%
X63500000Y-29500000D02*
X63500000Y-28200000D01*
X64500000Y-30500000D02*
X63500000Y-29500000D01*
%TO.N,Net-(J3-Pad2)*%
X60487500Y-31000000D02*
X61000000Y-31000000D01*
X61350000Y-31000000D02*
X61000000Y-31000000D01*
X61350000Y-30700000D02*
X61350000Y-31000000D01*
X62850000Y-29200000D02*
X61350000Y-30700000D01*
X62850000Y-28200000D02*
X62850000Y-29200000D01*
X28800000Y-32100000D02*
X25600000Y-28900000D01*
X60850000Y-32100000D02*
X28800000Y-32100000D01*
X25600000Y-28900000D02*
X25600000Y-27800000D01*
X61350000Y-31600000D02*
X60850000Y-32100000D01*
X61350000Y-31000000D02*
X61350000Y-31600000D01*
X27600000Y-24200000D02*
X26300000Y-22900000D01*
X25111810Y-22900000D02*
X24674990Y-23336820D01*
X26300000Y-22900000D02*
X25111810Y-22900000D01*
X25600000Y-25988190D02*
X25600000Y-27800000D01*
X24674990Y-25063180D02*
X25600000Y-25988190D01*
X24674990Y-23336820D02*
X24674990Y-25063180D01*
%TO.N,Net-(J3-Pad1)*%
X32300000Y-31250000D02*
X31950000Y-31600000D01*
X31950000Y-31600000D02*
X30800000Y-31600000D01*
X30800000Y-31600000D02*
X30800000Y-30737500D01*
X25600000Y-24500000D02*
X25600000Y-24200000D01*
X27600000Y-29400000D02*
X27600000Y-26500000D01*
X29800000Y-31600000D02*
X27600000Y-29400000D01*
X27600000Y-26500000D02*
X25600000Y-24500000D01*
X30800000Y-31600000D02*
X29800000Y-31600000D01*
%TO.N,Net-(J4-Pad1)*%
X22000000Y-31287500D02*
X22712500Y-31287500D01*
X23400000Y-30600000D02*
X24800000Y-30600000D01*
X22712500Y-31287500D02*
X23400000Y-30600000D01*
%TO.N,/RX*%
X38020000Y-31620000D02*
X38025001Y-31625001D01*
X38020000Y-30800000D02*
X38020000Y-31620000D01*
X42415000Y-28585000D02*
X43575000Y-28585000D01*
X42100000Y-28900000D02*
X42415000Y-28585000D01*
X38025001Y-31625001D02*
X41774999Y-31625001D01*
X54512500Y-31000000D02*
X54337499Y-31175001D01*
X53887499Y-31625001D02*
X54512500Y-31000000D01*
X42125001Y-31625001D02*
X53887499Y-31625001D01*
X42100000Y-31600000D02*
X42125001Y-31625001D01*
X42100000Y-28900000D02*
X42100000Y-31600000D01*
X41774999Y-31625001D02*
X42125001Y-31625001D01*
X34300000Y-30300000D02*
X34300000Y-30900000D01*
X35025001Y-31625001D02*
X38025001Y-31625001D01*
X34300000Y-30900000D02*
X35025001Y-31625001D01*
%TO.N,/TX*%
X38925000Y-28625000D02*
X38020000Y-29530000D01*
X40675000Y-28625000D02*
X38925000Y-28625000D01*
X41985000Y-27315000D02*
X40675000Y-28625000D01*
X43575000Y-27315000D02*
X41985000Y-27315000D01*
X58000000Y-22100000D02*
X56900000Y-23200000D01*
X59312500Y-22100000D02*
X58000000Y-22100000D01*
X57762500Y-23700000D02*
X56900000Y-23700000D01*
X56900000Y-23200000D02*
X56900000Y-23700000D01*
X53021753Y-26978247D02*
X50896753Y-26978247D01*
X54500000Y-25500000D02*
X53021753Y-26978247D01*
X45715000Y-27315000D02*
X43575000Y-27315000D01*
X55200000Y-25500000D02*
X54500000Y-25500000D01*
X46350000Y-27950000D02*
X45715000Y-27315000D01*
X50896753Y-26978247D02*
X49925000Y-27950000D01*
X56900000Y-23800000D02*
X55200000Y-25500000D01*
X49925000Y-27950000D02*
X46350000Y-27950000D01*
X56900000Y-23700000D02*
X56900000Y-23800000D01*
%TO.N,Net-(Q1-Pad2)*%
X62850000Y-26300000D02*
X62850000Y-25700000D01*
X62850000Y-25700000D02*
X62750000Y-25600000D01*
X62750000Y-25600000D02*
X62200000Y-25600000D01*
X62200000Y-25600000D02*
X62200000Y-26300000D01*
X61062500Y-27937500D02*
X60350000Y-27937500D01*
X61400000Y-27600000D02*
X61062500Y-27937500D01*
X61400000Y-25950000D02*
X61400000Y-27600000D01*
X61750000Y-25600000D02*
X61400000Y-25950000D01*
X62200000Y-25600000D02*
X61750000Y-25600000D01*
D25*
%TO.N,Net-(Q2-Pad3)*%
X33500000Y-23400000D02*
X33500000Y-21500000D01*
X33900000Y-23800000D02*
X33500000Y-23400000D01*
X33900000Y-24800000D02*
X33900000Y-23800000D01*
D24*
%TO.N,Net-(Q2-Pad1)*%
X31650000Y-24050000D02*
X31700000Y-24100000D01*
X31700000Y-24100000D02*
X32012500Y-24100000D01*
X31650000Y-23650000D02*
X31650000Y-24050000D01*
X33287500Y-27500000D02*
X33287500Y-25912500D01*
X33300000Y-25900000D02*
X35612500Y-25900000D01*
X33287500Y-25912500D02*
X33300000Y-25900000D01*
X32800000Y-24750000D02*
X31900000Y-23850000D01*
X33287500Y-25787500D02*
X32800000Y-25300000D01*
X32800000Y-25300000D02*
X32800000Y-24750000D01*
X33287500Y-25912500D02*
X33287500Y-25787500D01*
%TO.N,/2V5*%
X44795000Y-29855000D02*
X43575000Y-29855000D01*
X46700000Y-30700000D02*
X45855000Y-29855000D01*
X52700000Y-30700000D02*
X46700000Y-30700000D01*
X45855000Y-29855000D02*
X44795000Y-29855000D01*
X53900000Y-29500000D02*
X52700000Y-30700000D01*
X54512500Y-29500000D02*
X53900000Y-29500000D01*
%TO.N,/BAL*%
X48525000Y-27315000D02*
X46618460Y-27315000D01*
X46618460Y-27315000D02*
X45501730Y-26198270D01*
X37237500Y-25850000D02*
X37187500Y-25900000D01*
X38500000Y-25850000D02*
X37237500Y-25850000D01*
%TO.N,/~EN*%
X50645000Y-29855000D02*
X51800000Y-28700000D01*
X48525000Y-29855000D02*
X50645000Y-29855000D01*
%TO.N,/FAULT_UPDI*%
X46865000Y-28585000D02*
X48525000Y-28585000D01*
X42140010Y-27959990D02*
X45409990Y-27959990D01*
X40840012Y-29259988D02*
X42140010Y-27959990D01*
X46035000Y-28585000D02*
X46865000Y-28585000D01*
X45409990Y-27959990D02*
X46035000Y-28585000D01*
X40840012Y-30744678D02*
X40840012Y-29259988D01*
X50215000Y-28585000D02*
X48525000Y-28585000D01*
X53300000Y-27500000D02*
X51300000Y-27500000D01*
X53900000Y-26900000D02*
X53300000Y-27500000D01*
X51300000Y-27500000D02*
X50215000Y-28585000D01*
X54512500Y-26900000D02*
X53900000Y-26900000D01*
%TD*%
M02*
