%TF.GenerationSoftware,KiCad,Pcbnew,(5.1.10-1-10_14)*%
%TF.CreationDate,2021-11-16T21:19:30+13:00*%
%TF.ProjectId,BMSladder,424d536c-6164-4646-9572-2e6b69636164,rev?*%
%TF.SameCoordinates,Original*%
%TF.FileFunction,Soldermask,Top*%
%TF.FilePolarity,Negative*%
%FSLAX46Y46*%
G04 Gerber Fmt 4.6, Leading zero omitted, Abs format (unit mm)*
G04 Created by KiCad (PCBNEW (5.1.10-1-10_14)) date 2021-11-16 21:19:30*
%MOMM*%
%LPD*%
G01*
G04 APERTURE LIST*
%ADD10C,0.300000*%
%ADD11C,1.800000*%
%ADD12O,1.200000X1.750000*%
%ADD13O,1.000000X1.000000*%
%ADD14R,1.000000X1.000000*%
%ADD15O,2.400000X2.400000*%
%ADD16C,2.400000*%
%ADD17C,2.000000*%
%ADD18O,2.500000X5.000000*%
%ADD19R,0.800000X0.900000*%
%ADD20R,0.900000X0.800000*%
%ADD21R,0.400000X0.650000*%
%ADD22R,0.450000X0.700000*%
%ADD23C,0.800000*%
G04 APERTURE END LIST*
D10*
X64700000Y-25400000D02*
X64700000Y-26600000D01*
X64100000Y-26000000D02*
X65300000Y-26000000D01*
D11*
%TO.C,J7*%
X67550000Y-21500000D03*
%TD*%
D12*
%TO.C,J6*%
X27600000Y-24200000D03*
G36*
G01*
X25000000Y-24825001D02*
X25000000Y-23574999D01*
G75*
G02*
X25249999Y-23325000I249999J0D01*
G01*
X25950001Y-23325000D01*
G75*
G02*
X26200000Y-23574999I0J-249999D01*
G01*
X26200000Y-24825001D01*
G75*
G02*
X25950001Y-25075000I-249999J0D01*
G01*
X25249999Y-25075000D01*
G75*
G02*
X25000000Y-24825001I0J249999D01*
G01*
G37*
%TD*%
%TO.C,J3*%
X25600000Y-27800000D03*
G36*
G01*
X28200000Y-27174999D02*
X28200000Y-28425001D01*
G75*
G02*
X27950001Y-28675000I-249999J0D01*
G01*
X27249999Y-28675000D01*
G75*
G02*
X27000000Y-28425001I0J249999D01*
G01*
X27000000Y-27174999D01*
G75*
G02*
X27249999Y-26925000I249999J0D01*
G01*
X27950001Y-26925000D01*
G75*
G02*
X28200000Y-27174999I0J-249999D01*
G01*
G37*
%TD*%
D11*
%TO.C,J1*%
X64500000Y-21500000D03*
%TD*%
%TO.C,R3*%
G36*
G01*
X54950000Y-30743750D02*
X54950000Y-31256250D01*
G75*
G02*
X54731250Y-31475000I-218750J0D01*
G01*
X54293750Y-31475000D01*
G75*
G02*
X54075000Y-31256250I0J218750D01*
G01*
X54075000Y-30743750D01*
G75*
G02*
X54293750Y-30525000I218750J0D01*
G01*
X54731250Y-30525000D01*
G75*
G02*
X54950000Y-30743750I0J-218750D01*
G01*
G37*
G36*
G01*
X56525000Y-30743750D02*
X56525000Y-31256250D01*
G75*
G02*
X56306250Y-31475000I-218750J0D01*
G01*
X55868750Y-31475000D01*
G75*
G02*
X55650000Y-31256250I0J218750D01*
G01*
X55650000Y-30743750D01*
G75*
G02*
X55868750Y-30525000I218750J0D01*
G01*
X56306250Y-30525000D01*
G75*
G02*
X56525000Y-30743750I0J-218750D01*
G01*
G37*
%TD*%
%TO.C,U2*%
G36*
G01*
X47550000Y-26195000D02*
X47550000Y-25895000D01*
G75*
G02*
X47700000Y-25745000I150000J0D01*
G01*
X49350000Y-25745000D01*
G75*
G02*
X49500000Y-25895000I0J-150000D01*
G01*
X49500000Y-26195000D01*
G75*
G02*
X49350000Y-26345000I-150000J0D01*
G01*
X47700000Y-26345000D01*
G75*
G02*
X47550000Y-26195000I0J150000D01*
G01*
G37*
G36*
G01*
X47550000Y-27465000D02*
X47550000Y-27165000D01*
G75*
G02*
X47700000Y-27015000I150000J0D01*
G01*
X49350000Y-27015000D01*
G75*
G02*
X49500000Y-27165000I0J-150000D01*
G01*
X49500000Y-27465000D01*
G75*
G02*
X49350000Y-27615000I-150000J0D01*
G01*
X47700000Y-27615000D01*
G75*
G02*
X47550000Y-27465000I0J150000D01*
G01*
G37*
G36*
G01*
X47550000Y-28735000D02*
X47550000Y-28435000D01*
G75*
G02*
X47700000Y-28285000I150000J0D01*
G01*
X49350000Y-28285000D01*
G75*
G02*
X49500000Y-28435000I0J-150000D01*
G01*
X49500000Y-28735000D01*
G75*
G02*
X49350000Y-28885000I-150000J0D01*
G01*
X47700000Y-28885000D01*
G75*
G02*
X47550000Y-28735000I0J150000D01*
G01*
G37*
G36*
G01*
X47550000Y-30005000D02*
X47550000Y-29705000D01*
G75*
G02*
X47700000Y-29555000I150000J0D01*
G01*
X49350000Y-29555000D01*
G75*
G02*
X49500000Y-29705000I0J-150000D01*
G01*
X49500000Y-30005000D01*
G75*
G02*
X49350000Y-30155000I-150000J0D01*
G01*
X47700000Y-30155000D01*
G75*
G02*
X47550000Y-30005000I0J150000D01*
G01*
G37*
G36*
G01*
X42600000Y-30005000D02*
X42600000Y-29705000D01*
G75*
G02*
X42750000Y-29555000I150000J0D01*
G01*
X44400000Y-29555000D01*
G75*
G02*
X44550000Y-29705000I0J-150000D01*
G01*
X44550000Y-30005000D01*
G75*
G02*
X44400000Y-30155000I-150000J0D01*
G01*
X42750000Y-30155000D01*
G75*
G02*
X42600000Y-30005000I0J150000D01*
G01*
G37*
G36*
G01*
X42600000Y-28735000D02*
X42600000Y-28435000D01*
G75*
G02*
X42750000Y-28285000I150000J0D01*
G01*
X44400000Y-28285000D01*
G75*
G02*
X44550000Y-28435000I0J-150000D01*
G01*
X44550000Y-28735000D01*
G75*
G02*
X44400000Y-28885000I-150000J0D01*
G01*
X42750000Y-28885000D01*
G75*
G02*
X42600000Y-28735000I0J150000D01*
G01*
G37*
G36*
G01*
X42600000Y-27465000D02*
X42600000Y-27165000D01*
G75*
G02*
X42750000Y-27015000I150000J0D01*
G01*
X44400000Y-27015000D01*
G75*
G02*
X44550000Y-27165000I0J-150000D01*
G01*
X44550000Y-27465000D01*
G75*
G02*
X44400000Y-27615000I-150000J0D01*
G01*
X42750000Y-27615000D01*
G75*
G02*
X42600000Y-27465000I0J150000D01*
G01*
G37*
G36*
G01*
X42600000Y-26195000D02*
X42600000Y-25895000D01*
G75*
G02*
X42750000Y-25745000I150000J0D01*
G01*
X44400000Y-25745000D01*
G75*
G02*
X44550000Y-25895000I0J-150000D01*
G01*
X44550000Y-26195000D01*
G75*
G02*
X44400000Y-26345000I-150000J0D01*
G01*
X42750000Y-26345000D01*
G75*
G02*
X42600000Y-26195000I0J150000D01*
G01*
G37*
%TD*%
D13*
%TO.C,J5*%
X39290000Y-29450000D03*
X39290000Y-30720000D03*
X38020000Y-29450000D03*
X38020000Y-30720000D03*
X36750000Y-29450000D03*
D14*
X36750000Y-30720000D03*
%TD*%
D15*
%TO.C,R7*%
X33500000Y-21500000D03*
D16*
X55500000Y-21500000D03*
%TD*%
D17*
%TO.C,J4*%
X24800000Y-30600000D03*
%TD*%
D18*
%TO.C,H2*%
X22000000Y-26000000D03*
%TD*%
%TO.C,H1*%
X67000000Y-26000000D03*
%TD*%
D19*
%TO.C,U1*%
X51800000Y-28700000D03*
X52750000Y-30700000D03*
X50850000Y-30700000D03*
%TD*%
%TO.C,R13*%
G36*
G01*
X21743750Y-30850000D02*
X22256250Y-30850000D01*
G75*
G02*
X22475000Y-31068750I0J-218750D01*
G01*
X22475000Y-31506250D01*
G75*
G02*
X22256250Y-31725000I-218750J0D01*
G01*
X21743750Y-31725000D01*
G75*
G02*
X21525000Y-31506250I0J218750D01*
G01*
X21525000Y-31068750D01*
G75*
G02*
X21743750Y-30850000I218750J0D01*
G01*
G37*
G36*
G01*
X21743750Y-29275000D02*
X22256250Y-29275000D01*
G75*
G02*
X22475000Y-29493750I0J-218750D01*
G01*
X22475000Y-29931250D01*
G75*
G02*
X22256250Y-30150000I-218750J0D01*
G01*
X21743750Y-30150000D01*
G75*
G02*
X21525000Y-29931250I0J218750D01*
G01*
X21525000Y-29493750D01*
G75*
G02*
X21743750Y-29275000I218750J0D01*
G01*
G37*
%TD*%
%TO.C,R12*%
G36*
G01*
X31056250Y-29600000D02*
X30543750Y-29600000D01*
G75*
G02*
X30325000Y-29381250I0J218750D01*
G01*
X30325000Y-28943750D01*
G75*
G02*
X30543750Y-28725000I218750J0D01*
G01*
X31056250Y-28725000D01*
G75*
G02*
X31275000Y-28943750I0J-218750D01*
G01*
X31275000Y-29381250D01*
G75*
G02*
X31056250Y-29600000I-218750J0D01*
G01*
G37*
G36*
G01*
X31056250Y-31175000D02*
X30543750Y-31175000D01*
G75*
G02*
X30325000Y-30956250I0J218750D01*
G01*
X30325000Y-30518750D01*
G75*
G02*
X30543750Y-30300000I218750J0D01*
G01*
X31056250Y-30300000D01*
G75*
G02*
X31275000Y-30518750I0J-218750D01*
G01*
X31275000Y-30956250D01*
G75*
G02*
X31056250Y-31175000I-218750J0D01*
G01*
G37*
%TD*%
%TO.C,R11*%
G36*
G01*
X32150000Y-27243750D02*
X32150000Y-27756250D01*
G75*
G02*
X31931250Y-27975000I-218750J0D01*
G01*
X31493750Y-27975000D01*
G75*
G02*
X31275000Y-27756250I0J218750D01*
G01*
X31275000Y-27243750D01*
G75*
G02*
X31493750Y-27025000I218750J0D01*
G01*
X31931250Y-27025000D01*
G75*
G02*
X32150000Y-27243750I0J-218750D01*
G01*
G37*
G36*
G01*
X33725000Y-27243750D02*
X33725000Y-27756250D01*
G75*
G02*
X33506250Y-27975000I-218750J0D01*
G01*
X33068750Y-27975000D01*
G75*
G02*
X32850000Y-27756250I0J218750D01*
G01*
X32850000Y-27243750D01*
G75*
G02*
X33068750Y-27025000I218750J0D01*
G01*
X33506250Y-27025000D01*
G75*
G02*
X33725000Y-27243750I0J-218750D01*
G01*
G37*
%TD*%
%TO.C,R10*%
G36*
G01*
X36050000Y-25643750D02*
X36050000Y-26156250D01*
G75*
G02*
X35831250Y-26375000I-218750J0D01*
G01*
X35393750Y-26375000D01*
G75*
G02*
X35175000Y-26156250I0J218750D01*
G01*
X35175000Y-25643750D01*
G75*
G02*
X35393750Y-25425000I218750J0D01*
G01*
X35831250Y-25425000D01*
G75*
G02*
X36050000Y-25643750I0J-218750D01*
G01*
G37*
G36*
G01*
X37625000Y-25643750D02*
X37625000Y-26156250D01*
G75*
G02*
X37406250Y-26375000I-218750J0D01*
G01*
X36968750Y-26375000D01*
G75*
G02*
X36750000Y-26156250I0J218750D01*
G01*
X36750000Y-25643750D01*
G75*
G02*
X36968750Y-25425000I218750J0D01*
G01*
X37406250Y-25425000D01*
G75*
G02*
X37625000Y-25643750I0J-218750D01*
G01*
G37*
%TD*%
%TO.C,R9*%
G36*
G01*
X54950000Y-26643750D02*
X54950000Y-27156250D01*
G75*
G02*
X54731250Y-27375000I-218750J0D01*
G01*
X54293750Y-27375000D01*
G75*
G02*
X54075000Y-27156250I0J218750D01*
G01*
X54075000Y-26643750D01*
G75*
G02*
X54293750Y-26425000I218750J0D01*
G01*
X54731250Y-26425000D01*
G75*
G02*
X54950000Y-26643750I0J-218750D01*
G01*
G37*
G36*
G01*
X56525000Y-26643750D02*
X56525000Y-27156250D01*
G75*
G02*
X56306250Y-27375000I-218750J0D01*
G01*
X55868750Y-27375000D01*
G75*
G02*
X55650000Y-27156250I0J218750D01*
G01*
X55650000Y-26643750D01*
G75*
G02*
X55868750Y-26425000I218750J0D01*
G01*
X56306250Y-26425000D01*
G75*
G02*
X56525000Y-26643750I0J-218750D01*
G01*
G37*
%TD*%
%TO.C,R8*%
G36*
G01*
X60093750Y-27500000D02*
X60606250Y-27500000D01*
G75*
G02*
X60825000Y-27718750I0J-218750D01*
G01*
X60825000Y-28156250D01*
G75*
G02*
X60606250Y-28375000I-218750J0D01*
G01*
X60093750Y-28375000D01*
G75*
G02*
X59875000Y-28156250I0J218750D01*
G01*
X59875000Y-27718750D01*
G75*
G02*
X60093750Y-27500000I218750J0D01*
G01*
G37*
G36*
G01*
X60093750Y-25925000D02*
X60606250Y-25925000D01*
G75*
G02*
X60825000Y-26143750I0J-218750D01*
G01*
X60825000Y-26581250D01*
G75*
G02*
X60606250Y-26800000I-218750J0D01*
G01*
X60093750Y-26800000D01*
G75*
G02*
X59875000Y-26581250I0J218750D01*
G01*
X59875000Y-26143750D01*
G75*
G02*
X60093750Y-25925000I218750J0D01*
G01*
G37*
%TD*%
%TO.C,R6*%
G36*
G01*
X60450000Y-22356250D02*
X60450000Y-21843750D01*
G75*
G02*
X60668750Y-21625000I218750J0D01*
G01*
X61106250Y-21625000D01*
G75*
G02*
X61325000Y-21843750I0J-218750D01*
G01*
X61325000Y-22356250D01*
G75*
G02*
X61106250Y-22575000I-218750J0D01*
G01*
X60668750Y-22575000D01*
G75*
G02*
X60450000Y-22356250I0J218750D01*
G01*
G37*
G36*
G01*
X58875000Y-22356250D02*
X58875000Y-21843750D01*
G75*
G02*
X59093750Y-21625000I218750J0D01*
G01*
X59531250Y-21625000D01*
G75*
G02*
X59750000Y-21843750I0J-218750D01*
G01*
X59750000Y-22356250D01*
G75*
G02*
X59531250Y-22575000I-218750J0D01*
G01*
X59093750Y-22575000D01*
G75*
G02*
X58875000Y-22356250I0J218750D01*
G01*
G37*
%TD*%
%TO.C,R5*%
G36*
G01*
X58900000Y-23956250D02*
X58900000Y-23443750D01*
G75*
G02*
X59118750Y-23225000I218750J0D01*
G01*
X59556250Y-23225000D01*
G75*
G02*
X59775000Y-23443750I0J-218750D01*
G01*
X59775000Y-23956250D01*
G75*
G02*
X59556250Y-24175000I-218750J0D01*
G01*
X59118750Y-24175000D01*
G75*
G02*
X58900000Y-23956250I0J218750D01*
G01*
G37*
G36*
G01*
X57325000Y-23956250D02*
X57325000Y-23443750D01*
G75*
G02*
X57543750Y-23225000I218750J0D01*
G01*
X57981250Y-23225000D01*
G75*
G02*
X58200000Y-23443750I0J-218750D01*
G01*
X58200000Y-23956250D01*
G75*
G02*
X57981250Y-24175000I-218750J0D01*
G01*
X57543750Y-24175000D01*
G75*
G02*
X57325000Y-23956250I0J218750D01*
G01*
G37*
%TD*%
%TO.C,R4*%
G36*
G01*
X55650000Y-29756250D02*
X55650000Y-29243750D01*
G75*
G02*
X55868750Y-29025000I218750J0D01*
G01*
X56306250Y-29025000D01*
G75*
G02*
X56525000Y-29243750I0J-218750D01*
G01*
X56525000Y-29756250D01*
G75*
G02*
X56306250Y-29975000I-218750J0D01*
G01*
X55868750Y-29975000D01*
G75*
G02*
X55650000Y-29756250I0J218750D01*
G01*
G37*
G36*
G01*
X54075000Y-29756250D02*
X54075000Y-29243750D01*
G75*
G02*
X54293750Y-29025000I218750J0D01*
G01*
X54731250Y-29025000D01*
G75*
G02*
X54950000Y-29243750I0J-218750D01*
G01*
X54950000Y-29756250D01*
G75*
G02*
X54731250Y-29975000I-218750J0D01*
G01*
X54293750Y-29975000D01*
G75*
G02*
X54075000Y-29756250I0J218750D01*
G01*
G37*
%TD*%
%TO.C,R2*%
G36*
G01*
X51150000Y-25743750D02*
X51150000Y-26256250D01*
G75*
G02*
X50931250Y-26475000I-218750J0D01*
G01*
X50493750Y-26475000D01*
G75*
G02*
X50275000Y-26256250I0J218750D01*
G01*
X50275000Y-25743750D01*
G75*
G02*
X50493750Y-25525000I218750J0D01*
G01*
X50931250Y-25525000D01*
G75*
G02*
X51150000Y-25743750I0J-218750D01*
G01*
G37*
G36*
G01*
X52725000Y-25743750D02*
X52725000Y-26256250D01*
G75*
G02*
X52506250Y-26475000I-218750J0D01*
G01*
X52068750Y-26475000D01*
G75*
G02*
X51850000Y-26256250I0J218750D01*
G01*
X51850000Y-25743750D01*
G75*
G02*
X52068750Y-25525000I218750J0D01*
G01*
X52506250Y-25525000D01*
G75*
G02*
X52725000Y-25743750I0J-218750D01*
G01*
G37*
%TD*%
%TO.C,R1*%
G36*
G01*
X59350000Y-30743750D02*
X59350000Y-31256250D01*
G75*
G02*
X59131250Y-31475000I-218750J0D01*
G01*
X58693750Y-31475000D01*
G75*
G02*
X58475000Y-31256250I0J218750D01*
G01*
X58475000Y-30743750D01*
G75*
G02*
X58693750Y-30525000I218750J0D01*
G01*
X59131250Y-30525000D01*
G75*
G02*
X59350000Y-30743750I0J-218750D01*
G01*
G37*
G36*
G01*
X60925000Y-30743750D02*
X60925000Y-31256250D01*
G75*
G02*
X60706250Y-31475000I-218750J0D01*
G01*
X60268750Y-31475000D01*
G75*
G02*
X60050000Y-31256250I0J218750D01*
G01*
X60050000Y-30743750D01*
G75*
G02*
X60268750Y-30525000I218750J0D01*
G01*
X60706250Y-30525000D01*
G75*
G02*
X60925000Y-30743750I0J-218750D01*
G01*
G37*
%TD*%
D20*
%TO.C,Q3*%
X34300000Y-30300000D03*
X32300000Y-31250000D03*
X32300000Y-29350000D03*
%TD*%
%TO.C,Q2*%
X33900000Y-24800000D03*
X31900000Y-25750000D03*
X31900000Y-23850000D03*
%TD*%
D21*
%TO.C,Q1*%
X63500000Y-28200000D03*
X62200000Y-28200000D03*
X62850000Y-26300000D03*
X62850000Y-28200000D03*
X62200000Y-26300000D03*
X63500000Y-26300000D03*
%TD*%
D11*
%TO.C,J2*%
X64500000Y-30500000D03*
%TD*%
D22*
%TO.C,D2*%
X58200000Y-25900000D03*
X58850000Y-27900000D03*
X57550000Y-27900000D03*
%TD*%
%TO.C,D1*%
G36*
G01*
X62100000Y-23956250D02*
X62100000Y-23443750D01*
G75*
G02*
X62318750Y-23225000I218750J0D01*
G01*
X62756250Y-23225000D01*
G75*
G02*
X62975000Y-23443750I0J-218750D01*
G01*
X62975000Y-23956250D01*
G75*
G02*
X62756250Y-24175000I-218750J0D01*
G01*
X62318750Y-24175000D01*
G75*
G02*
X62100000Y-23956250I0J218750D01*
G01*
G37*
G36*
G01*
X60525000Y-23956250D02*
X60525000Y-23443750D01*
G75*
G02*
X60743750Y-23225000I218750J0D01*
G01*
X61181250Y-23225000D01*
G75*
G02*
X61400000Y-23443750I0J-218750D01*
G01*
X61400000Y-23956250D01*
G75*
G02*
X61181250Y-24175000I-218750J0D01*
G01*
X60743750Y-24175000D01*
G75*
G02*
X60525000Y-23956250I0J218750D01*
G01*
G37*
%TD*%
%TO.C,C1*%
G36*
G01*
X40300000Y-25693750D02*
X40300000Y-26206250D01*
G75*
G02*
X40081250Y-26425000I-218750J0D01*
G01*
X39643750Y-26425000D01*
G75*
G02*
X39425000Y-26206250I0J218750D01*
G01*
X39425000Y-25693750D01*
G75*
G02*
X39643750Y-25475000I218750J0D01*
G01*
X40081250Y-25475000D01*
G75*
G02*
X40300000Y-25693750I0J-218750D01*
G01*
G37*
G36*
G01*
X41875000Y-25693750D02*
X41875000Y-26206250D01*
G75*
G02*
X41656250Y-26425000I-218750J0D01*
G01*
X41218750Y-26425000D01*
G75*
G02*
X41000000Y-26206250I0J218750D01*
G01*
X41000000Y-25693750D01*
G75*
G02*
X41218750Y-25475000I218750J0D01*
G01*
X41656250Y-25475000D01*
G75*
G02*
X41875000Y-25693750I0J-218750D01*
G01*
G37*
%TD*%
D23*
X39850000Y-27150000D03*
X57500000Y-29100000D03*
X46750000Y-26200010D03*
X33500000Y-29200006D03*
X30650035Y-25749987D03*
X30650035Y-24799963D03*
X30650000Y-26700000D03*
X54700000Y-24499990D03*
X58900000Y-29100000D03*
X61500000Y-29350000D03*
X63700000Y-23700000D03*
X45501730Y-26198270D03*
X38500000Y-25850000D03*
X40840012Y-30744678D03*
M02*
