%TF.GenerationSoftware,KiCad,Pcbnew,(5.1.10-1-10_14)*%
%TF.CreationDate,2021-11-16T21:19:30+13:00*%
%TF.ProjectId,BMSladder,424d536c-6164-4646-9572-2e6b69636164,rev?*%
%TF.SameCoordinates,Original*%
%TF.FileFunction,Legend,Top*%
%TF.FilePolarity,Positive*%
%FSLAX46Y46*%
G04 Gerber Fmt 4.6, Leading zero omitted, Abs format (unit mm)*
G04 Created by KiCad (PCBNEW (5.1.10-1-10_14)) date 2021-11-16 21:19:30*
%MOMM*%
%LPD*%
G01*
G04 APERTURE LIST*
%ADD10C,0.120000*%
%ADD11C,0.150000*%
%ADD12C,0.300000*%
%ADD13C,1.800000*%
%ADD14O,1.200000X1.750000*%
%ADD15O,1.000000X1.000000*%
%ADD16R,1.000000X1.000000*%
%ADD17O,2.400000X2.400000*%
%ADD18C,2.400000*%
%ADD19C,2.000000*%
%ADD20O,2.500000X5.000000*%
%ADD21R,0.800000X0.900000*%
%ADD22R,0.900000X0.800000*%
%ADD23R,0.400000X0.650000*%
%ADD24R,0.450000X0.700000*%
%ADD25C,0.800000*%
G04 APERTURE END LIST*
D10*
%TO.C,J7*%
X66250000Y-20400000D02*
X66250000Y-22100000D01*
X66250000Y-22100000D02*
X66250000Y-22600000D01*
X66250000Y-22600000D02*
X68850000Y-22600000D01*
X68850000Y-22600000D02*
X68850000Y-20400000D01*
X68850000Y-20400000D02*
X66250000Y-20400000D01*
%TO.C,J6*%
X28260000Y-24450000D02*
X29600000Y-24450000D01*
X23600000Y-32450000D02*
X29600000Y-32450000D01*
X26260000Y-24450000D02*
X26940000Y-24450000D01*
X24940000Y-24450000D02*
X23600000Y-24450000D01*
X29600000Y-32450000D02*
X29600000Y-24450000D01*
X23600000Y-24450000D02*
X23600000Y-32450000D01*
%TO.C,J3*%
X24940000Y-27550000D02*
X23600000Y-27550000D01*
X29600000Y-19550000D02*
X23600000Y-19550000D01*
X26940000Y-27550000D02*
X26260000Y-27550000D01*
X28260000Y-27550000D02*
X29600000Y-27550000D01*
X23600000Y-19550000D02*
X23600000Y-27550000D01*
X29600000Y-27550000D02*
X29600000Y-19550000D01*
%TO.C,J1*%
X65800000Y-20400000D02*
X63200000Y-20400000D01*
X65800000Y-22600000D02*
X65800000Y-20400000D01*
X63200000Y-22600000D02*
X65800000Y-22600000D01*
X63200000Y-22100000D02*
X63200000Y-22600000D01*
X63200000Y-20400000D02*
X63200000Y-22100000D01*
%TO.C,R3*%
X55462779Y-30490000D02*
X55137221Y-30490000D01*
X55462779Y-31510000D02*
X55137221Y-31510000D01*
%TO.C,U2*%
X46050000Y-25390000D02*
X42600000Y-25390000D01*
X46050000Y-25390000D02*
X48000000Y-25390000D01*
X46050000Y-30510000D02*
X44100000Y-30510000D01*
X46050000Y-30510000D02*
X48000000Y-30510000D01*
%TO.C,J5*%
X39985000Y-31850000D02*
X39985000Y-31027530D01*
X39985000Y-29142470D02*
X39985000Y-28320000D01*
X39985000Y-30412470D02*
X39985000Y-29757530D01*
X37510000Y-31850000D02*
X39985000Y-31850000D01*
X36055000Y-28320000D02*
X39985000Y-28320000D01*
X37510000Y-31850000D02*
X37510000Y-31283471D01*
X37510000Y-30156529D02*
X37510000Y-30013471D01*
X37456529Y-29960000D02*
X37313471Y-29960000D01*
X36186529Y-29960000D02*
X36055000Y-29960000D01*
X36055000Y-29960000D02*
X36055000Y-29757530D01*
X36055000Y-29142470D02*
X36055000Y-28320000D01*
X36750000Y-31850000D02*
X35990000Y-31850000D01*
X35990000Y-31850000D02*
X35990000Y-30720000D01*
%TO.C,R7*%
X35620000Y-21500000D02*
X35720000Y-21500000D01*
X53060000Y-21500000D02*
X52960000Y-21500000D01*
X35720000Y-24620000D02*
X52960000Y-24620000D01*
X35720000Y-18380000D02*
X35720000Y-24620000D01*
X52960000Y-18380000D02*
X35720000Y-18380000D01*
X52960000Y-24620000D02*
X52960000Y-18380000D01*
%TO.C,J4*%
X26051000Y-30600000D02*
G75*
G03*
X26051000Y-30600000I-1251000J0D01*
G01*
%TO.C,U1*%
X53380000Y-28940000D02*
X53380000Y-30400000D01*
X50220000Y-28940000D02*
X50220000Y-31100000D01*
X50220000Y-28940000D02*
X51150000Y-28940000D01*
X53380000Y-28940000D02*
X52450000Y-28940000D01*
%TO.C,R13*%
X21490000Y-30337221D02*
X21490000Y-30662779D01*
X22510000Y-30337221D02*
X22510000Y-30662779D01*
%TO.C,R12*%
X31310000Y-30112779D02*
X31310000Y-29787221D01*
X30290000Y-30112779D02*
X30290000Y-29787221D01*
%TO.C,R11*%
X32662779Y-26990000D02*
X32337221Y-26990000D01*
X32662779Y-28010000D02*
X32337221Y-28010000D01*
%TO.C,R10*%
X36562779Y-25390000D02*
X36237221Y-25390000D01*
X36562779Y-26410000D02*
X36237221Y-26410000D01*
%TO.C,R9*%
X55462779Y-26390000D02*
X55137221Y-26390000D01*
X55462779Y-27410000D02*
X55137221Y-27410000D01*
%TO.C,R8*%
X59840000Y-26987221D02*
X59840000Y-27312779D01*
X60860000Y-26987221D02*
X60860000Y-27312779D01*
%TO.C,R6*%
X59937221Y-22610000D02*
X60262779Y-22610000D01*
X59937221Y-21590000D02*
X60262779Y-21590000D01*
%TO.C,R5*%
X58387221Y-24210000D02*
X58712779Y-24210000D01*
X58387221Y-23190000D02*
X58712779Y-23190000D01*
%TO.C,R4*%
X55137221Y-30010000D02*
X55462779Y-30010000D01*
X55137221Y-28990000D02*
X55462779Y-28990000D01*
%TO.C,R2*%
X51662779Y-25490000D02*
X51337221Y-25490000D01*
X51662779Y-26510000D02*
X51337221Y-26510000D01*
%TO.C,R1*%
X59862779Y-30490000D02*
X59537221Y-30490000D01*
X59862779Y-31510000D02*
X59537221Y-31510000D01*
%TO.C,Q3*%
X34060000Y-31880000D02*
X32600000Y-31880000D01*
X34060000Y-28720000D02*
X31900000Y-28720000D01*
X34060000Y-28720000D02*
X34060000Y-29650000D01*
X34060000Y-31880000D02*
X34060000Y-30950000D01*
%TO.C,Q2*%
X33660000Y-26380000D02*
X32200000Y-26380000D01*
X33660000Y-23220000D02*
X31500000Y-23220000D01*
X33660000Y-23220000D02*
X33660000Y-24150000D01*
X33660000Y-26380000D02*
X33660000Y-25450000D01*
%TO.C,Q1*%
X61690000Y-26550000D02*
X61690000Y-27950000D01*
X64010000Y-27950000D02*
X64010000Y-26050000D01*
%TO.C,J2*%
X65800000Y-29400000D02*
X63200000Y-29400000D01*
X65800000Y-31600000D02*
X65800000Y-29400000D01*
X63200000Y-31600000D02*
X65800000Y-31600000D01*
X63200000Y-31100000D02*
X63200000Y-31600000D01*
X63200000Y-29400000D02*
X63200000Y-31100000D01*
%TO.C,D2*%
X59360000Y-27580000D02*
X59360000Y-26170000D01*
X57040000Y-26170000D02*
X57040000Y-28200000D01*
X57040000Y-26170000D02*
X57700000Y-26170000D01*
X58700000Y-26170000D02*
X59360000Y-26170000D01*
%TO.C,D1*%
X60265000Y-24435000D02*
X62550000Y-24435000D01*
X60265000Y-22965000D02*
X60265000Y-24435000D01*
X62550000Y-22965000D02*
X60265000Y-22965000D01*
%TO.C,C1*%
X40812779Y-25440000D02*
X40487221Y-25440000D01*
X40812779Y-26460000D02*
X40487221Y-26460000D01*
%TO.C,J7*%
D11*
X67216666Y-22902380D02*
X67216666Y-23616666D01*
X67169047Y-23759523D01*
X67073809Y-23854761D01*
X66930952Y-23902380D01*
X66835714Y-23902380D01*
X67597619Y-22902380D02*
X68264285Y-22902380D01*
X67835714Y-23902380D01*
%TO.C,J6*%
X26266666Y-20752380D02*
X26266666Y-21466666D01*
X26219047Y-21609523D01*
X26123809Y-21704761D01*
X25980952Y-21752380D01*
X25885714Y-21752380D01*
X27171428Y-20752380D02*
X26980952Y-20752380D01*
X26885714Y-20800000D01*
X26838095Y-20847619D01*
X26742857Y-20990476D01*
X26695238Y-21180952D01*
X26695238Y-21561904D01*
X26742857Y-21657142D01*
X26790476Y-21704761D01*
X26885714Y-21752380D01*
X27076190Y-21752380D01*
X27171428Y-21704761D01*
X27219047Y-21657142D01*
X27266666Y-21561904D01*
X27266666Y-21323809D01*
X27219047Y-21228571D01*
X27171428Y-21180952D01*
X27076190Y-21133333D01*
X26885714Y-21133333D01*
X26790476Y-21180952D01*
X26742857Y-21228571D01*
X26695238Y-21323809D01*
%TO.C,J3*%
X26816666Y-29152380D02*
X26816666Y-29866666D01*
X26769047Y-30009523D01*
X26673809Y-30104761D01*
X26530952Y-30152380D01*
X26435714Y-30152380D01*
X27197619Y-29152380D02*
X27816666Y-29152380D01*
X27483333Y-29533333D01*
X27626190Y-29533333D01*
X27721428Y-29580952D01*
X27769047Y-29628571D01*
X27816666Y-29723809D01*
X27816666Y-29961904D01*
X27769047Y-30057142D01*
X27721428Y-30104761D01*
X27626190Y-30152380D01*
X27340476Y-30152380D01*
X27245238Y-30104761D01*
X27197619Y-30057142D01*
%TO.C,J1*%
X64566666Y-23002380D02*
X64566666Y-23716666D01*
X64519047Y-23859523D01*
X64423809Y-23954761D01*
X64280952Y-24002380D01*
X64185714Y-24002380D01*
X65566666Y-24002380D02*
X64995238Y-24002380D01*
X65280952Y-24002380D02*
X65280952Y-23002380D01*
X65185714Y-23145238D01*
X65090476Y-23240476D01*
X64995238Y-23288095D01*
%TO.C,R3*%
X57333333Y-31952380D02*
X57000000Y-31476190D01*
X56761904Y-31952380D02*
X56761904Y-30952380D01*
X57142857Y-30952380D01*
X57238095Y-31000000D01*
X57285714Y-31047619D01*
X57333333Y-31142857D01*
X57333333Y-31285714D01*
X57285714Y-31380952D01*
X57238095Y-31428571D01*
X57142857Y-31476190D01*
X56761904Y-31476190D01*
X57666666Y-30952380D02*
X58285714Y-30952380D01*
X57952380Y-31333333D01*
X58095238Y-31333333D01*
X58190476Y-31380952D01*
X58238095Y-31428571D01*
X58285714Y-31523809D01*
X58285714Y-31761904D01*
X58238095Y-31857142D01*
X58190476Y-31904761D01*
X58095238Y-31952380D01*
X57809523Y-31952380D01*
X57714285Y-31904761D01*
X57666666Y-31857142D01*
%TO.C,U2*%
X45288095Y-27952380D02*
X45288095Y-28761904D01*
X45335714Y-28857142D01*
X45383333Y-28904761D01*
X45478571Y-28952380D01*
X45669047Y-28952380D01*
X45764285Y-28904761D01*
X45811904Y-28857142D01*
X45859523Y-28761904D01*
X45859523Y-27952380D01*
X46288095Y-28047619D02*
X46335714Y-28000000D01*
X46430952Y-27952380D01*
X46669047Y-27952380D01*
X46764285Y-28000000D01*
X46811904Y-28047619D01*
X46859523Y-28142857D01*
X46859523Y-28238095D01*
X46811904Y-28380952D01*
X46240476Y-28952380D01*
X46859523Y-28952380D01*
%TO.C,J5*%
X41066666Y-28852380D02*
X41066666Y-29566666D01*
X41019047Y-29709523D01*
X40923809Y-29804761D01*
X40780952Y-29852380D01*
X40685714Y-29852380D01*
X42019047Y-28852380D02*
X41542857Y-28852380D01*
X41495238Y-29328571D01*
X41542857Y-29280952D01*
X41638095Y-29233333D01*
X41876190Y-29233333D01*
X41971428Y-29280952D01*
X42019047Y-29328571D01*
X42066666Y-29423809D01*
X42066666Y-29661904D01*
X42019047Y-29757142D01*
X41971428Y-29804761D01*
X41876190Y-29852380D01*
X41638095Y-29852380D01*
X41542857Y-29804761D01*
X41495238Y-29757142D01*
%TO.C,R7*%
X31033333Y-20952380D02*
X30700000Y-20476190D01*
X30461904Y-20952380D02*
X30461904Y-19952380D01*
X30842857Y-19952380D01*
X30938095Y-20000000D01*
X30985714Y-20047619D01*
X31033333Y-20142857D01*
X31033333Y-20285714D01*
X30985714Y-20380952D01*
X30938095Y-20428571D01*
X30842857Y-20476190D01*
X30461904Y-20476190D01*
X31366666Y-19952380D02*
X32033333Y-19952380D01*
X31604761Y-20952380D01*
%TO.C,J4*%
X26416666Y-31202380D02*
X26416666Y-31916666D01*
X26369047Y-32059523D01*
X26273809Y-32154761D01*
X26130952Y-32202380D01*
X26035714Y-32202380D01*
X27321428Y-31535714D02*
X27321428Y-32202380D01*
X27083333Y-31154761D02*
X26845238Y-31869047D01*
X27464285Y-31869047D01*
%TO.C,U1*%
X48538095Y-30952380D02*
X48538095Y-31761904D01*
X48585714Y-31857142D01*
X48633333Y-31904761D01*
X48728571Y-31952380D01*
X48919047Y-31952380D01*
X49014285Y-31904761D01*
X49061904Y-31857142D01*
X49109523Y-31761904D01*
X49109523Y-30952380D01*
X50109523Y-31952380D02*
X49538095Y-31952380D01*
X49823809Y-31952380D02*
X49823809Y-30952380D01*
X49728571Y-31095238D01*
X49633333Y-31190476D01*
X49538095Y-31238095D01*
%TO.C,R13*%
X21152380Y-31142857D02*
X20676190Y-31476190D01*
X21152380Y-31714285D02*
X20152380Y-31714285D01*
X20152380Y-31333333D01*
X20200000Y-31238095D01*
X20247619Y-31190476D01*
X20342857Y-31142857D01*
X20485714Y-31142857D01*
X20580952Y-31190476D01*
X20628571Y-31238095D01*
X20676190Y-31333333D01*
X20676190Y-31714285D01*
X21152380Y-30190476D02*
X21152380Y-30761904D01*
X21152380Y-30476190D02*
X20152380Y-30476190D01*
X20295238Y-30571428D01*
X20390476Y-30666666D01*
X20438095Y-30761904D01*
X20152380Y-29857142D02*
X20152380Y-29238095D01*
X20533333Y-29571428D01*
X20533333Y-29428571D01*
X20580952Y-29333333D01*
X20628571Y-29285714D01*
X20723809Y-29238095D01*
X20961904Y-29238095D01*
X21057142Y-29285714D01*
X21104761Y-29333333D01*
X21152380Y-29428571D01*
X21152380Y-29714285D01*
X21104761Y-29809523D01*
X21057142Y-29857142D01*
%TO.C,R12*%
X29652380Y-30542857D02*
X29176190Y-30876190D01*
X29652380Y-31114285D02*
X28652380Y-31114285D01*
X28652380Y-30733333D01*
X28700000Y-30638095D01*
X28747619Y-30590476D01*
X28842857Y-30542857D01*
X28985714Y-30542857D01*
X29080952Y-30590476D01*
X29128571Y-30638095D01*
X29176190Y-30733333D01*
X29176190Y-31114285D01*
X29652380Y-29590476D02*
X29652380Y-30161904D01*
X29652380Y-29876190D02*
X28652380Y-29876190D01*
X28795238Y-29971428D01*
X28890476Y-30066666D01*
X28938095Y-30161904D01*
X28747619Y-29209523D02*
X28700000Y-29161904D01*
X28652380Y-29066666D01*
X28652380Y-28828571D01*
X28700000Y-28733333D01*
X28747619Y-28685714D01*
X28842857Y-28638095D01*
X28938095Y-28638095D01*
X29080952Y-28685714D01*
X29652380Y-29257142D01*
X29652380Y-28638095D01*
%TO.C,R11*%
X34607142Y-28002380D02*
X34273809Y-27526190D01*
X34035714Y-28002380D02*
X34035714Y-27002380D01*
X34416666Y-27002380D01*
X34511904Y-27050000D01*
X34559523Y-27097619D01*
X34607142Y-27192857D01*
X34607142Y-27335714D01*
X34559523Y-27430952D01*
X34511904Y-27478571D01*
X34416666Y-27526190D01*
X34035714Y-27526190D01*
X35559523Y-28002380D02*
X34988095Y-28002380D01*
X35273809Y-28002380D02*
X35273809Y-27002380D01*
X35178571Y-27145238D01*
X35083333Y-27240476D01*
X34988095Y-27288095D01*
X36511904Y-28002380D02*
X35940476Y-28002380D01*
X36226190Y-28002380D02*
X36226190Y-27002380D01*
X36130952Y-27145238D01*
X36035714Y-27240476D01*
X35940476Y-27288095D01*
%TO.C,R10*%
X37307142Y-27702380D02*
X36973809Y-27226190D01*
X36735714Y-27702380D02*
X36735714Y-26702380D01*
X37116666Y-26702380D01*
X37211904Y-26750000D01*
X37259523Y-26797619D01*
X37307142Y-26892857D01*
X37307142Y-27035714D01*
X37259523Y-27130952D01*
X37211904Y-27178571D01*
X37116666Y-27226190D01*
X36735714Y-27226190D01*
X38259523Y-27702380D02*
X37688095Y-27702380D01*
X37973809Y-27702380D02*
X37973809Y-26702380D01*
X37878571Y-26845238D01*
X37783333Y-26940476D01*
X37688095Y-26988095D01*
X38878571Y-26702380D02*
X38973809Y-26702380D01*
X39069047Y-26750000D01*
X39116666Y-26797619D01*
X39164285Y-26892857D01*
X39211904Y-27083333D01*
X39211904Y-27321428D01*
X39164285Y-27511904D01*
X39116666Y-27607142D01*
X39069047Y-27654761D01*
X38973809Y-27702380D01*
X38878571Y-27702380D01*
X38783333Y-27654761D01*
X38735714Y-27607142D01*
X38688095Y-27511904D01*
X38640476Y-27321428D01*
X38640476Y-27083333D01*
X38688095Y-26892857D01*
X38735714Y-26797619D01*
X38783333Y-26750000D01*
X38878571Y-26702380D01*
%TO.C,R9*%
X55233333Y-26052380D02*
X54900000Y-25576190D01*
X54661904Y-26052380D02*
X54661904Y-25052380D01*
X55042857Y-25052380D01*
X55138095Y-25100000D01*
X55185714Y-25147619D01*
X55233333Y-25242857D01*
X55233333Y-25385714D01*
X55185714Y-25480952D01*
X55138095Y-25528571D01*
X55042857Y-25576190D01*
X54661904Y-25576190D01*
X55709523Y-26052380D02*
X55900000Y-26052380D01*
X55995238Y-26004761D01*
X56042857Y-25957142D01*
X56138095Y-25814285D01*
X56185714Y-25623809D01*
X56185714Y-25242857D01*
X56138095Y-25147619D01*
X56090476Y-25100000D01*
X55995238Y-25052380D01*
X55804761Y-25052380D01*
X55709523Y-25100000D01*
X55661904Y-25147619D01*
X55614285Y-25242857D01*
X55614285Y-25480952D01*
X55661904Y-25576190D01*
X55709523Y-25623809D01*
X55804761Y-25671428D01*
X55995238Y-25671428D01*
X56090476Y-25623809D01*
X56138095Y-25576190D01*
X56185714Y-25480952D01*
%TO.C,R8*%
X59833333Y-29952380D02*
X59500000Y-29476190D01*
X59261904Y-29952380D02*
X59261904Y-28952380D01*
X59642857Y-28952380D01*
X59738095Y-29000000D01*
X59785714Y-29047619D01*
X59833333Y-29142857D01*
X59833333Y-29285714D01*
X59785714Y-29380952D01*
X59738095Y-29428571D01*
X59642857Y-29476190D01*
X59261904Y-29476190D01*
X60404761Y-29380952D02*
X60309523Y-29333333D01*
X60261904Y-29285714D01*
X60214285Y-29190476D01*
X60214285Y-29142857D01*
X60261904Y-29047619D01*
X60309523Y-29000000D01*
X60404761Y-28952380D01*
X60595238Y-28952380D01*
X60690476Y-29000000D01*
X60738095Y-29047619D01*
X60785714Y-29142857D01*
X60785714Y-29190476D01*
X60738095Y-29285714D01*
X60690476Y-29333333D01*
X60595238Y-29380952D01*
X60404761Y-29380952D01*
X60309523Y-29428571D01*
X60261904Y-29476190D01*
X60214285Y-29571428D01*
X60214285Y-29761904D01*
X60261904Y-29857142D01*
X60309523Y-29904761D01*
X60404761Y-29952380D01*
X60595238Y-29952380D01*
X60690476Y-29904761D01*
X60738095Y-29857142D01*
X60785714Y-29761904D01*
X60785714Y-29571428D01*
X60738095Y-29476190D01*
X60690476Y-29428571D01*
X60595238Y-29380952D01*
%TO.C,R6*%
X59933333Y-21122380D02*
X59600000Y-20646190D01*
X59361904Y-21122380D02*
X59361904Y-20122380D01*
X59742857Y-20122380D01*
X59838095Y-20170000D01*
X59885714Y-20217619D01*
X59933333Y-20312857D01*
X59933333Y-20455714D01*
X59885714Y-20550952D01*
X59838095Y-20598571D01*
X59742857Y-20646190D01*
X59361904Y-20646190D01*
X60790476Y-20122380D02*
X60600000Y-20122380D01*
X60504761Y-20170000D01*
X60457142Y-20217619D01*
X60361904Y-20360476D01*
X60314285Y-20550952D01*
X60314285Y-20931904D01*
X60361904Y-21027142D01*
X60409523Y-21074761D01*
X60504761Y-21122380D01*
X60695238Y-21122380D01*
X60790476Y-21074761D01*
X60838095Y-21027142D01*
X60885714Y-20931904D01*
X60885714Y-20693809D01*
X60838095Y-20598571D01*
X60790476Y-20550952D01*
X60695238Y-20503333D01*
X60504761Y-20503333D01*
X60409523Y-20550952D01*
X60361904Y-20598571D01*
X60314285Y-20693809D01*
%TO.C,R5*%
X57333333Y-22722380D02*
X57000000Y-22246190D01*
X56761904Y-22722380D02*
X56761904Y-21722380D01*
X57142857Y-21722380D01*
X57238095Y-21770000D01*
X57285714Y-21817619D01*
X57333333Y-21912857D01*
X57333333Y-22055714D01*
X57285714Y-22150952D01*
X57238095Y-22198571D01*
X57142857Y-22246190D01*
X56761904Y-22246190D01*
X58238095Y-21722380D02*
X57761904Y-21722380D01*
X57714285Y-22198571D01*
X57761904Y-22150952D01*
X57857142Y-22103333D01*
X58095238Y-22103333D01*
X58190476Y-22150952D01*
X58238095Y-22198571D01*
X58285714Y-22293809D01*
X58285714Y-22531904D01*
X58238095Y-22627142D01*
X58190476Y-22674761D01*
X58095238Y-22722380D01*
X57857142Y-22722380D01*
X57761904Y-22674761D01*
X57714285Y-22627142D01*
%TO.C,R4*%
X55133333Y-28852380D02*
X54800000Y-28376190D01*
X54561904Y-28852380D02*
X54561904Y-27852380D01*
X54942857Y-27852380D01*
X55038095Y-27900000D01*
X55085714Y-27947619D01*
X55133333Y-28042857D01*
X55133333Y-28185714D01*
X55085714Y-28280952D01*
X55038095Y-28328571D01*
X54942857Y-28376190D01*
X54561904Y-28376190D01*
X55990476Y-28185714D02*
X55990476Y-28852380D01*
X55752380Y-27804761D02*
X55514285Y-28519047D01*
X56133333Y-28519047D01*
%TO.C,R2*%
X51333333Y-27882380D02*
X51000000Y-27406190D01*
X50761904Y-27882380D02*
X50761904Y-26882380D01*
X51142857Y-26882380D01*
X51238095Y-26930000D01*
X51285714Y-26977619D01*
X51333333Y-27072857D01*
X51333333Y-27215714D01*
X51285714Y-27310952D01*
X51238095Y-27358571D01*
X51142857Y-27406190D01*
X50761904Y-27406190D01*
X51714285Y-26977619D02*
X51761904Y-26930000D01*
X51857142Y-26882380D01*
X52095238Y-26882380D01*
X52190476Y-26930000D01*
X52238095Y-26977619D01*
X52285714Y-27072857D01*
X52285714Y-27168095D01*
X52238095Y-27310952D01*
X51666666Y-27882380D01*
X52285714Y-27882380D01*
%TO.C,R1*%
X61833333Y-31952380D02*
X61500000Y-31476190D01*
X61261904Y-31952380D02*
X61261904Y-30952380D01*
X61642857Y-30952380D01*
X61738095Y-31000000D01*
X61785714Y-31047619D01*
X61833333Y-31142857D01*
X61833333Y-31285714D01*
X61785714Y-31380952D01*
X61738095Y-31428571D01*
X61642857Y-31476190D01*
X61261904Y-31476190D01*
X62785714Y-31952380D02*
X62214285Y-31952380D01*
X62500000Y-31952380D02*
X62500000Y-30952380D01*
X62404761Y-31095238D01*
X62309523Y-31190476D01*
X62214285Y-31238095D01*
%TO.C,Q3*%
X34904761Y-32047619D02*
X34809523Y-32000000D01*
X34714285Y-31904761D01*
X34571428Y-31761904D01*
X34476190Y-31714285D01*
X34380952Y-31714285D01*
X34428571Y-31952380D02*
X34333333Y-31904761D01*
X34238095Y-31809523D01*
X34190476Y-31619047D01*
X34190476Y-31285714D01*
X34238095Y-31095238D01*
X34333333Y-31000000D01*
X34428571Y-30952380D01*
X34619047Y-30952380D01*
X34714285Y-31000000D01*
X34809523Y-31095238D01*
X34857142Y-31285714D01*
X34857142Y-31619047D01*
X34809523Y-31809523D01*
X34714285Y-31904761D01*
X34619047Y-31952380D01*
X34428571Y-31952380D01*
X35190476Y-30952380D02*
X35809523Y-30952380D01*
X35476190Y-31333333D01*
X35619047Y-31333333D01*
X35714285Y-31380952D01*
X35761904Y-31428571D01*
X35809523Y-31523809D01*
X35809523Y-31761904D01*
X35761904Y-31857142D01*
X35714285Y-31904761D01*
X35619047Y-31952380D01*
X35333333Y-31952380D01*
X35238095Y-31904761D01*
X35190476Y-31857142D01*
%TO.C,Q2*%
X31054761Y-22947619D02*
X30959523Y-22900000D01*
X30864285Y-22804761D01*
X30721428Y-22661904D01*
X30626190Y-22614285D01*
X30530952Y-22614285D01*
X30578571Y-22852380D02*
X30483333Y-22804761D01*
X30388095Y-22709523D01*
X30340476Y-22519047D01*
X30340476Y-22185714D01*
X30388095Y-21995238D01*
X30483333Y-21900000D01*
X30578571Y-21852380D01*
X30769047Y-21852380D01*
X30864285Y-21900000D01*
X30959523Y-21995238D01*
X31007142Y-22185714D01*
X31007142Y-22519047D01*
X30959523Y-22709523D01*
X30864285Y-22804761D01*
X30769047Y-22852380D01*
X30578571Y-22852380D01*
X31388095Y-21947619D02*
X31435714Y-21900000D01*
X31530952Y-21852380D01*
X31769047Y-21852380D01*
X31864285Y-21900000D01*
X31911904Y-21947619D01*
X31959523Y-22042857D01*
X31959523Y-22138095D01*
X31911904Y-22280952D01*
X31340476Y-22852380D01*
X31959523Y-22852380D01*
%TO.C,Q1*%
X62904761Y-27797619D02*
X62809523Y-27750000D01*
X62714285Y-27654761D01*
X62571428Y-27511904D01*
X62476190Y-27464285D01*
X62380952Y-27464285D01*
X62428571Y-27702380D02*
X62333333Y-27654761D01*
X62238095Y-27559523D01*
X62190476Y-27369047D01*
X62190476Y-27035714D01*
X62238095Y-26845238D01*
X62333333Y-26750000D01*
X62428571Y-26702380D01*
X62619047Y-26702380D01*
X62714285Y-26750000D01*
X62809523Y-26845238D01*
X62857142Y-27035714D01*
X62857142Y-27369047D01*
X62809523Y-27559523D01*
X62714285Y-27654761D01*
X62619047Y-27702380D01*
X62428571Y-27702380D01*
X63809523Y-27702380D02*
X63238095Y-27702380D01*
X63523809Y-27702380D02*
X63523809Y-26702380D01*
X63428571Y-26845238D01*
X63333333Y-26940476D01*
X63238095Y-26988095D01*
%TO.C,J2*%
X67166666Y-29952380D02*
X67166666Y-30666666D01*
X67119047Y-30809523D01*
X67023809Y-30904761D01*
X66880952Y-30952380D01*
X66785714Y-30952380D01*
X67595238Y-30047619D02*
X67642857Y-30000000D01*
X67738095Y-29952380D01*
X67976190Y-29952380D01*
X68071428Y-30000000D01*
X68119047Y-30047619D01*
X68166666Y-30142857D01*
X68166666Y-30238095D01*
X68119047Y-30380952D01*
X67547619Y-30952380D01*
X68166666Y-30952380D01*
%TO.C,D2*%
X57261904Y-27402380D02*
X57261904Y-26402380D01*
X57500000Y-26402380D01*
X57642857Y-26450000D01*
X57738095Y-26545238D01*
X57785714Y-26640476D01*
X57833333Y-26830952D01*
X57833333Y-26973809D01*
X57785714Y-27164285D01*
X57738095Y-27259523D01*
X57642857Y-27354761D01*
X57500000Y-27402380D01*
X57261904Y-27402380D01*
X58214285Y-26497619D02*
X58261904Y-26450000D01*
X58357142Y-26402380D01*
X58595238Y-26402380D01*
X58690476Y-26450000D01*
X58738095Y-26497619D01*
X58785714Y-26592857D01*
X58785714Y-26688095D01*
X58738095Y-26830952D01*
X58166666Y-27402380D01*
X58785714Y-27402380D01*
%TO.C,D1*%
X61561904Y-22652380D02*
X61561904Y-21652380D01*
X61800000Y-21652380D01*
X61942857Y-21700000D01*
X62038095Y-21795238D01*
X62085714Y-21890476D01*
X62133333Y-22080952D01*
X62133333Y-22223809D01*
X62085714Y-22414285D01*
X62038095Y-22509523D01*
X61942857Y-22604761D01*
X61800000Y-22652380D01*
X61561904Y-22652380D01*
X63085714Y-22652380D02*
X62514285Y-22652380D01*
X62800000Y-22652380D02*
X62800000Y-21652380D01*
X62704761Y-21795238D01*
X62609523Y-21890476D01*
X62514285Y-21938095D01*
%TO.C,C1*%
X41133333Y-27607142D02*
X41085714Y-27654761D01*
X40942857Y-27702380D01*
X40847619Y-27702380D01*
X40704761Y-27654761D01*
X40609523Y-27559523D01*
X40561904Y-27464285D01*
X40514285Y-27273809D01*
X40514285Y-27130952D01*
X40561904Y-26940476D01*
X40609523Y-26845238D01*
X40704761Y-26750000D01*
X40847619Y-26702380D01*
X40942857Y-26702380D01*
X41085714Y-26750000D01*
X41133333Y-26797619D01*
X42085714Y-27702380D02*
X41514285Y-27702380D01*
X41800000Y-27702380D02*
X41800000Y-26702380D01*
X41704761Y-26845238D01*
X41609523Y-26940476D01*
X41514285Y-26988095D01*
%TD*%
%LPC*%
D12*
X64700000Y-25400000D02*
X64700000Y-26600000D01*
X64100000Y-26000000D02*
X65300000Y-26000000D01*
D13*
%TO.C,J7*%
X67550000Y-21500000D03*
%TD*%
D14*
%TO.C,J6*%
X27600000Y-24200000D03*
G36*
G01*
X25000000Y-24825001D02*
X25000000Y-23574999D01*
G75*
G02*
X25249999Y-23325000I249999J0D01*
G01*
X25950001Y-23325000D01*
G75*
G02*
X26200000Y-23574999I0J-249999D01*
G01*
X26200000Y-24825001D01*
G75*
G02*
X25950001Y-25075000I-249999J0D01*
G01*
X25249999Y-25075000D01*
G75*
G02*
X25000000Y-24825001I0J249999D01*
G01*
G37*
%TD*%
%TO.C,J3*%
X25600000Y-27800000D03*
G36*
G01*
X28200000Y-27174999D02*
X28200000Y-28425001D01*
G75*
G02*
X27950001Y-28675000I-249999J0D01*
G01*
X27249999Y-28675000D01*
G75*
G02*
X27000000Y-28425001I0J249999D01*
G01*
X27000000Y-27174999D01*
G75*
G02*
X27249999Y-26925000I249999J0D01*
G01*
X27950001Y-26925000D01*
G75*
G02*
X28200000Y-27174999I0J-249999D01*
G01*
G37*
%TD*%
D13*
%TO.C,J1*%
X64500000Y-21500000D03*
%TD*%
%TO.C,R3*%
G36*
G01*
X54950000Y-30743750D02*
X54950000Y-31256250D01*
G75*
G02*
X54731250Y-31475000I-218750J0D01*
G01*
X54293750Y-31475000D01*
G75*
G02*
X54075000Y-31256250I0J218750D01*
G01*
X54075000Y-30743750D01*
G75*
G02*
X54293750Y-30525000I218750J0D01*
G01*
X54731250Y-30525000D01*
G75*
G02*
X54950000Y-30743750I0J-218750D01*
G01*
G37*
G36*
G01*
X56525000Y-30743750D02*
X56525000Y-31256250D01*
G75*
G02*
X56306250Y-31475000I-218750J0D01*
G01*
X55868750Y-31475000D01*
G75*
G02*
X55650000Y-31256250I0J218750D01*
G01*
X55650000Y-30743750D01*
G75*
G02*
X55868750Y-30525000I218750J0D01*
G01*
X56306250Y-30525000D01*
G75*
G02*
X56525000Y-30743750I0J-218750D01*
G01*
G37*
%TD*%
%TO.C,U2*%
G36*
G01*
X47550000Y-26195000D02*
X47550000Y-25895000D01*
G75*
G02*
X47700000Y-25745000I150000J0D01*
G01*
X49350000Y-25745000D01*
G75*
G02*
X49500000Y-25895000I0J-150000D01*
G01*
X49500000Y-26195000D01*
G75*
G02*
X49350000Y-26345000I-150000J0D01*
G01*
X47700000Y-26345000D01*
G75*
G02*
X47550000Y-26195000I0J150000D01*
G01*
G37*
G36*
G01*
X47550000Y-27465000D02*
X47550000Y-27165000D01*
G75*
G02*
X47700000Y-27015000I150000J0D01*
G01*
X49350000Y-27015000D01*
G75*
G02*
X49500000Y-27165000I0J-150000D01*
G01*
X49500000Y-27465000D01*
G75*
G02*
X49350000Y-27615000I-150000J0D01*
G01*
X47700000Y-27615000D01*
G75*
G02*
X47550000Y-27465000I0J150000D01*
G01*
G37*
G36*
G01*
X47550000Y-28735000D02*
X47550000Y-28435000D01*
G75*
G02*
X47700000Y-28285000I150000J0D01*
G01*
X49350000Y-28285000D01*
G75*
G02*
X49500000Y-28435000I0J-150000D01*
G01*
X49500000Y-28735000D01*
G75*
G02*
X49350000Y-28885000I-150000J0D01*
G01*
X47700000Y-28885000D01*
G75*
G02*
X47550000Y-28735000I0J150000D01*
G01*
G37*
G36*
G01*
X47550000Y-30005000D02*
X47550000Y-29705000D01*
G75*
G02*
X47700000Y-29555000I150000J0D01*
G01*
X49350000Y-29555000D01*
G75*
G02*
X49500000Y-29705000I0J-150000D01*
G01*
X49500000Y-30005000D01*
G75*
G02*
X49350000Y-30155000I-150000J0D01*
G01*
X47700000Y-30155000D01*
G75*
G02*
X47550000Y-30005000I0J150000D01*
G01*
G37*
G36*
G01*
X42600000Y-30005000D02*
X42600000Y-29705000D01*
G75*
G02*
X42750000Y-29555000I150000J0D01*
G01*
X44400000Y-29555000D01*
G75*
G02*
X44550000Y-29705000I0J-150000D01*
G01*
X44550000Y-30005000D01*
G75*
G02*
X44400000Y-30155000I-150000J0D01*
G01*
X42750000Y-30155000D01*
G75*
G02*
X42600000Y-30005000I0J150000D01*
G01*
G37*
G36*
G01*
X42600000Y-28735000D02*
X42600000Y-28435000D01*
G75*
G02*
X42750000Y-28285000I150000J0D01*
G01*
X44400000Y-28285000D01*
G75*
G02*
X44550000Y-28435000I0J-150000D01*
G01*
X44550000Y-28735000D01*
G75*
G02*
X44400000Y-28885000I-150000J0D01*
G01*
X42750000Y-28885000D01*
G75*
G02*
X42600000Y-28735000I0J150000D01*
G01*
G37*
G36*
G01*
X42600000Y-27465000D02*
X42600000Y-27165000D01*
G75*
G02*
X42750000Y-27015000I150000J0D01*
G01*
X44400000Y-27015000D01*
G75*
G02*
X44550000Y-27165000I0J-150000D01*
G01*
X44550000Y-27465000D01*
G75*
G02*
X44400000Y-27615000I-150000J0D01*
G01*
X42750000Y-27615000D01*
G75*
G02*
X42600000Y-27465000I0J150000D01*
G01*
G37*
G36*
G01*
X42600000Y-26195000D02*
X42600000Y-25895000D01*
G75*
G02*
X42750000Y-25745000I150000J0D01*
G01*
X44400000Y-25745000D01*
G75*
G02*
X44550000Y-25895000I0J-150000D01*
G01*
X44550000Y-26195000D01*
G75*
G02*
X44400000Y-26345000I-150000J0D01*
G01*
X42750000Y-26345000D01*
G75*
G02*
X42600000Y-26195000I0J150000D01*
G01*
G37*
%TD*%
D15*
%TO.C,J5*%
X39290000Y-29450000D03*
X39290000Y-30720000D03*
X38020000Y-29450000D03*
X38020000Y-30720000D03*
X36750000Y-29450000D03*
D16*
X36750000Y-30720000D03*
%TD*%
D17*
%TO.C,R7*%
X33500000Y-21500000D03*
D18*
X55500000Y-21500000D03*
%TD*%
D19*
%TO.C,J4*%
X24800000Y-30600000D03*
%TD*%
D20*
%TO.C,H2*%
X22000000Y-26000000D03*
%TD*%
%TO.C,H1*%
X67000000Y-26000000D03*
%TD*%
D21*
%TO.C,U1*%
X51800000Y-28700000D03*
X52750000Y-30700000D03*
X50850000Y-30700000D03*
%TD*%
%TO.C,R13*%
G36*
G01*
X21743750Y-30850000D02*
X22256250Y-30850000D01*
G75*
G02*
X22475000Y-31068750I0J-218750D01*
G01*
X22475000Y-31506250D01*
G75*
G02*
X22256250Y-31725000I-218750J0D01*
G01*
X21743750Y-31725000D01*
G75*
G02*
X21525000Y-31506250I0J218750D01*
G01*
X21525000Y-31068750D01*
G75*
G02*
X21743750Y-30850000I218750J0D01*
G01*
G37*
G36*
G01*
X21743750Y-29275000D02*
X22256250Y-29275000D01*
G75*
G02*
X22475000Y-29493750I0J-218750D01*
G01*
X22475000Y-29931250D01*
G75*
G02*
X22256250Y-30150000I-218750J0D01*
G01*
X21743750Y-30150000D01*
G75*
G02*
X21525000Y-29931250I0J218750D01*
G01*
X21525000Y-29493750D01*
G75*
G02*
X21743750Y-29275000I218750J0D01*
G01*
G37*
%TD*%
%TO.C,R12*%
G36*
G01*
X31056250Y-29600000D02*
X30543750Y-29600000D01*
G75*
G02*
X30325000Y-29381250I0J218750D01*
G01*
X30325000Y-28943750D01*
G75*
G02*
X30543750Y-28725000I218750J0D01*
G01*
X31056250Y-28725000D01*
G75*
G02*
X31275000Y-28943750I0J-218750D01*
G01*
X31275000Y-29381250D01*
G75*
G02*
X31056250Y-29600000I-218750J0D01*
G01*
G37*
G36*
G01*
X31056250Y-31175000D02*
X30543750Y-31175000D01*
G75*
G02*
X30325000Y-30956250I0J218750D01*
G01*
X30325000Y-30518750D01*
G75*
G02*
X30543750Y-30300000I218750J0D01*
G01*
X31056250Y-30300000D01*
G75*
G02*
X31275000Y-30518750I0J-218750D01*
G01*
X31275000Y-30956250D01*
G75*
G02*
X31056250Y-31175000I-218750J0D01*
G01*
G37*
%TD*%
%TO.C,R11*%
G36*
G01*
X32150000Y-27243750D02*
X32150000Y-27756250D01*
G75*
G02*
X31931250Y-27975000I-218750J0D01*
G01*
X31493750Y-27975000D01*
G75*
G02*
X31275000Y-27756250I0J218750D01*
G01*
X31275000Y-27243750D01*
G75*
G02*
X31493750Y-27025000I218750J0D01*
G01*
X31931250Y-27025000D01*
G75*
G02*
X32150000Y-27243750I0J-218750D01*
G01*
G37*
G36*
G01*
X33725000Y-27243750D02*
X33725000Y-27756250D01*
G75*
G02*
X33506250Y-27975000I-218750J0D01*
G01*
X33068750Y-27975000D01*
G75*
G02*
X32850000Y-27756250I0J218750D01*
G01*
X32850000Y-27243750D01*
G75*
G02*
X33068750Y-27025000I218750J0D01*
G01*
X33506250Y-27025000D01*
G75*
G02*
X33725000Y-27243750I0J-218750D01*
G01*
G37*
%TD*%
%TO.C,R10*%
G36*
G01*
X36050000Y-25643750D02*
X36050000Y-26156250D01*
G75*
G02*
X35831250Y-26375000I-218750J0D01*
G01*
X35393750Y-26375000D01*
G75*
G02*
X35175000Y-26156250I0J218750D01*
G01*
X35175000Y-25643750D01*
G75*
G02*
X35393750Y-25425000I218750J0D01*
G01*
X35831250Y-25425000D01*
G75*
G02*
X36050000Y-25643750I0J-218750D01*
G01*
G37*
G36*
G01*
X37625000Y-25643750D02*
X37625000Y-26156250D01*
G75*
G02*
X37406250Y-26375000I-218750J0D01*
G01*
X36968750Y-26375000D01*
G75*
G02*
X36750000Y-26156250I0J218750D01*
G01*
X36750000Y-25643750D01*
G75*
G02*
X36968750Y-25425000I218750J0D01*
G01*
X37406250Y-25425000D01*
G75*
G02*
X37625000Y-25643750I0J-218750D01*
G01*
G37*
%TD*%
%TO.C,R9*%
G36*
G01*
X54950000Y-26643750D02*
X54950000Y-27156250D01*
G75*
G02*
X54731250Y-27375000I-218750J0D01*
G01*
X54293750Y-27375000D01*
G75*
G02*
X54075000Y-27156250I0J218750D01*
G01*
X54075000Y-26643750D01*
G75*
G02*
X54293750Y-26425000I218750J0D01*
G01*
X54731250Y-26425000D01*
G75*
G02*
X54950000Y-26643750I0J-218750D01*
G01*
G37*
G36*
G01*
X56525000Y-26643750D02*
X56525000Y-27156250D01*
G75*
G02*
X56306250Y-27375000I-218750J0D01*
G01*
X55868750Y-27375000D01*
G75*
G02*
X55650000Y-27156250I0J218750D01*
G01*
X55650000Y-26643750D01*
G75*
G02*
X55868750Y-26425000I218750J0D01*
G01*
X56306250Y-26425000D01*
G75*
G02*
X56525000Y-26643750I0J-218750D01*
G01*
G37*
%TD*%
%TO.C,R8*%
G36*
G01*
X60093750Y-27500000D02*
X60606250Y-27500000D01*
G75*
G02*
X60825000Y-27718750I0J-218750D01*
G01*
X60825000Y-28156250D01*
G75*
G02*
X60606250Y-28375000I-218750J0D01*
G01*
X60093750Y-28375000D01*
G75*
G02*
X59875000Y-28156250I0J218750D01*
G01*
X59875000Y-27718750D01*
G75*
G02*
X60093750Y-27500000I218750J0D01*
G01*
G37*
G36*
G01*
X60093750Y-25925000D02*
X60606250Y-25925000D01*
G75*
G02*
X60825000Y-26143750I0J-218750D01*
G01*
X60825000Y-26581250D01*
G75*
G02*
X60606250Y-26800000I-218750J0D01*
G01*
X60093750Y-26800000D01*
G75*
G02*
X59875000Y-26581250I0J218750D01*
G01*
X59875000Y-26143750D01*
G75*
G02*
X60093750Y-25925000I218750J0D01*
G01*
G37*
%TD*%
%TO.C,R6*%
G36*
G01*
X60450000Y-22356250D02*
X60450000Y-21843750D01*
G75*
G02*
X60668750Y-21625000I218750J0D01*
G01*
X61106250Y-21625000D01*
G75*
G02*
X61325000Y-21843750I0J-218750D01*
G01*
X61325000Y-22356250D01*
G75*
G02*
X61106250Y-22575000I-218750J0D01*
G01*
X60668750Y-22575000D01*
G75*
G02*
X60450000Y-22356250I0J218750D01*
G01*
G37*
G36*
G01*
X58875000Y-22356250D02*
X58875000Y-21843750D01*
G75*
G02*
X59093750Y-21625000I218750J0D01*
G01*
X59531250Y-21625000D01*
G75*
G02*
X59750000Y-21843750I0J-218750D01*
G01*
X59750000Y-22356250D01*
G75*
G02*
X59531250Y-22575000I-218750J0D01*
G01*
X59093750Y-22575000D01*
G75*
G02*
X58875000Y-22356250I0J218750D01*
G01*
G37*
%TD*%
%TO.C,R5*%
G36*
G01*
X58900000Y-23956250D02*
X58900000Y-23443750D01*
G75*
G02*
X59118750Y-23225000I218750J0D01*
G01*
X59556250Y-23225000D01*
G75*
G02*
X59775000Y-23443750I0J-218750D01*
G01*
X59775000Y-23956250D01*
G75*
G02*
X59556250Y-24175000I-218750J0D01*
G01*
X59118750Y-24175000D01*
G75*
G02*
X58900000Y-23956250I0J218750D01*
G01*
G37*
G36*
G01*
X57325000Y-23956250D02*
X57325000Y-23443750D01*
G75*
G02*
X57543750Y-23225000I218750J0D01*
G01*
X57981250Y-23225000D01*
G75*
G02*
X58200000Y-23443750I0J-218750D01*
G01*
X58200000Y-23956250D01*
G75*
G02*
X57981250Y-24175000I-218750J0D01*
G01*
X57543750Y-24175000D01*
G75*
G02*
X57325000Y-23956250I0J218750D01*
G01*
G37*
%TD*%
%TO.C,R4*%
G36*
G01*
X55650000Y-29756250D02*
X55650000Y-29243750D01*
G75*
G02*
X55868750Y-29025000I218750J0D01*
G01*
X56306250Y-29025000D01*
G75*
G02*
X56525000Y-29243750I0J-218750D01*
G01*
X56525000Y-29756250D01*
G75*
G02*
X56306250Y-29975000I-218750J0D01*
G01*
X55868750Y-29975000D01*
G75*
G02*
X55650000Y-29756250I0J218750D01*
G01*
G37*
G36*
G01*
X54075000Y-29756250D02*
X54075000Y-29243750D01*
G75*
G02*
X54293750Y-29025000I218750J0D01*
G01*
X54731250Y-29025000D01*
G75*
G02*
X54950000Y-29243750I0J-218750D01*
G01*
X54950000Y-29756250D01*
G75*
G02*
X54731250Y-29975000I-218750J0D01*
G01*
X54293750Y-29975000D01*
G75*
G02*
X54075000Y-29756250I0J218750D01*
G01*
G37*
%TD*%
%TO.C,R2*%
G36*
G01*
X51150000Y-25743750D02*
X51150000Y-26256250D01*
G75*
G02*
X50931250Y-26475000I-218750J0D01*
G01*
X50493750Y-26475000D01*
G75*
G02*
X50275000Y-26256250I0J218750D01*
G01*
X50275000Y-25743750D01*
G75*
G02*
X50493750Y-25525000I218750J0D01*
G01*
X50931250Y-25525000D01*
G75*
G02*
X51150000Y-25743750I0J-218750D01*
G01*
G37*
G36*
G01*
X52725000Y-25743750D02*
X52725000Y-26256250D01*
G75*
G02*
X52506250Y-26475000I-218750J0D01*
G01*
X52068750Y-26475000D01*
G75*
G02*
X51850000Y-26256250I0J218750D01*
G01*
X51850000Y-25743750D01*
G75*
G02*
X52068750Y-25525000I218750J0D01*
G01*
X52506250Y-25525000D01*
G75*
G02*
X52725000Y-25743750I0J-218750D01*
G01*
G37*
%TD*%
%TO.C,R1*%
G36*
G01*
X59350000Y-30743750D02*
X59350000Y-31256250D01*
G75*
G02*
X59131250Y-31475000I-218750J0D01*
G01*
X58693750Y-31475000D01*
G75*
G02*
X58475000Y-31256250I0J218750D01*
G01*
X58475000Y-30743750D01*
G75*
G02*
X58693750Y-30525000I218750J0D01*
G01*
X59131250Y-30525000D01*
G75*
G02*
X59350000Y-30743750I0J-218750D01*
G01*
G37*
G36*
G01*
X60925000Y-30743750D02*
X60925000Y-31256250D01*
G75*
G02*
X60706250Y-31475000I-218750J0D01*
G01*
X60268750Y-31475000D01*
G75*
G02*
X60050000Y-31256250I0J218750D01*
G01*
X60050000Y-30743750D01*
G75*
G02*
X60268750Y-30525000I218750J0D01*
G01*
X60706250Y-30525000D01*
G75*
G02*
X60925000Y-30743750I0J-218750D01*
G01*
G37*
%TD*%
D22*
%TO.C,Q3*%
X34300000Y-30300000D03*
X32300000Y-31250000D03*
X32300000Y-29350000D03*
%TD*%
%TO.C,Q2*%
X33900000Y-24800000D03*
X31900000Y-25750000D03*
X31900000Y-23850000D03*
%TD*%
D23*
%TO.C,Q1*%
X63500000Y-28200000D03*
X62200000Y-28200000D03*
X62850000Y-26300000D03*
X62850000Y-28200000D03*
X62200000Y-26300000D03*
X63500000Y-26300000D03*
%TD*%
D13*
%TO.C,J2*%
X64500000Y-30500000D03*
%TD*%
D24*
%TO.C,D2*%
X58200000Y-25900000D03*
X58850000Y-27900000D03*
X57550000Y-27900000D03*
%TD*%
%TO.C,D1*%
G36*
G01*
X62100000Y-23956250D02*
X62100000Y-23443750D01*
G75*
G02*
X62318750Y-23225000I218750J0D01*
G01*
X62756250Y-23225000D01*
G75*
G02*
X62975000Y-23443750I0J-218750D01*
G01*
X62975000Y-23956250D01*
G75*
G02*
X62756250Y-24175000I-218750J0D01*
G01*
X62318750Y-24175000D01*
G75*
G02*
X62100000Y-23956250I0J218750D01*
G01*
G37*
G36*
G01*
X60525000Y-23956250D02*
X60525000Y-23443750D01*
G75*
G02*
X60743750Y-23225000I218750J0D01*
G01*
X61181250Y-23225000D01*
G75*
G02*
X61400000Y-23443750I0J-218750D01*
G01*
X61400000Y-23956250D01*
G75*
G02*
X61181250Y-24175000I-218750J0D01*
G01*
X60743750Y-24175000D01*
G75*
G02*
X60525000Y-23956250I0J218750D01*
G01*
G37*
%TD*%
%TO.C,C1*%
G36*
G01*
X40300000Y-25693750D02*
X40300000Y-26206250D01*
G75*
G02*
X40081250Y-26425000I-218750J0D01*
G01*
X39643750Y-26425000D01*
G75*
G02*
X39425000Y-26206250I0J218750D01*
G01*
X39425000Y-25693750D01*
G75*
G02*
X39643750Y-25475000I218750J0D01*
G01*
X40081250Y-25475000D01*
G75*
G02*
X40300000Y-25693750I0J-218750D01*
G01*
G37*
G36*
G01*
X41875000Y-25693750D02*
X41875000Y-26206250D01*
G75*
G02*
X41656250Y-26425000I-218750J0D01*
G01*
X41218750Y-26425000D01*
G75*
G02*
X41000000Y-26206250I0J218750D01*
G01*
X41000000Y-25693750D01*
G75*
G02*
X41218750Y-25475000I218750J0D01*
G01*
X41656250Y-25475000D01*
G75*
G02*
X41875000Y-25693750I0J-218750D01*
G01*
G37*
%TD*%
D25*
X39850000Y-27150000D03*
X57500000Y-29100000D03*
X46750000Y-26200010D03*
X33500000Y-29200006D03*
X30650035Y-25749987D03*
X30650035Y-24799963D03*
X30650000Y-26700000D03*
X54700000Y-24499990D03*
X58900000Y-29100000D03*
X61500000Y-29350000D03*
X63700000Y-23700000D03*
X45501730Y-26198270D03*
X38500000Y-25850000D03*
X40840012Y-30744678D03*
M02*
